<?xml version="1.0" standalone="no"?>
<!DOCTYPE svg PUBLIC "-//W3C//DTD SVG 20010904//EN"
 "http://www.w3.org/TR/2001/REC-SVG-20010904/DTD/svg10.dtd">
<svg version="1.0" xmlns="http://www.w3.org/2000/svg"
 width="83.000000pt" height="83.000000pt" viewBox="0 0 83.000000 83.000000"
 preserveAspectRatio="xMidYMid meet">
<metadata>
Created by potrace 1.12, written by Peter Selinger 2001-2015
</metadata>
<g transform="translate(0.000000,83.000000) scale(0.100000,-0.100000)"
fill="#000000" stroke="none">
<path d="M12 815 c-9 -14 -9 -706 0 -697 4 4 8 153 8 331 l1 324 29 -40 29
-40 3 -251 c2 -139 0 -252 -3 -252 -3 0 -15 -22 -28 -49 -13 -30 -27 -48 -35
-45 -13 5 -16 -53 -3 -73 9 -15 48 -13 44 3 -1 6 16 33 38 60 22 26 39 51 37
56 -2 9 52 10 343 8 l199 -1 33 -37 c18 -20 30 -38 28 -40 -2 -3 5 -12 17 -21
19 -16 15 -17 -94 -16 -63 1 -120 5 -127 10 -8 5 -12 4 -8 -1 3 -5 -65 -9
-161 -9 -138 0 -169 2 -180 15 -11 13 -11 13 -7 0 4 -12 -3 -15 -35 -14 -22 0
-43 4 -46 7 -9 9 -24 -1 -24 -16 0 -9 85 -12 352 -10 194 1 362 2 374 2 17 1
20 7 20 51 0 34 -4 50 -13 50 -7 0 -10 -7 -7 -17 3 -10 -4 -1 -16 20 -11 21
-18 43 -14 49 4 6 3 8 -2 5 -6 -3 -15 3 -22 14 -7 10 -8 19 -3 19 4 0 8 25 7
55 0 30 -5 55 -11 55 -7 0 -7 3 0 8 13 9 13 85 0 94 -7 5 -7 8 1 8 5 0 10 11
10 25 0 14 -5 25 -10 25 -7 0 -8 3 -1 8 14 10 14 145 1 154 -8 5 -8 8 0 8 7 0
10 13 9 28 -1 18 6 38 21 55 30 35 34 34 30 -8 -1 -20 2 -35 8 -35 13 0 15
114 3 127 -12 12 -787 10 -795 -2z m35 -12 c-3 -5 13 -19 34 -32 36 -23 38
-26 22 -43 -18 -20 -33 -23 -33 -7 0 6 -9 24 -21 40 -17 25 -19 49 -3 49 3 0
3 -3 1 -7z m703 -1 c0 -5 -11 -15 -25 -22 -14 -7 -25 -18 -25 -24 0 -8 -85
-10 -280 -9 l-280 2 -40 27 c-22 15 -40 28 -40 30 0 2 155 4 345 4 190 0 345
-4 345 -8z m40 0 c0 -14 -50 -82 -61 -82 -15 0 -24 33 -10 38 7 2 22 15 34 27
23 24 37 31 37 17z m-92 -88 c22 -14 22 -16 22 -264 0 -207 -3 -251 -15 -263
-22 -23 -562 -22 -587 1 -16 13 -18 40 -17 261 0 207 3 248 16 263 14 15 43
17 287 17 220 0 275 -3 294 -15z m-578 -568 c0 -7 -10 -23 -22 -36 -13 -13
-34 -38 -47 -54 -23 -30 -23 -30 -17 -5 3 14 12 42 21 62 8 20 15 40 14 43 0
4 5 10 12 15 15 9 39 -7 39 -25z m646 -28 c10 -24 22 -46 27 -49 5 -4 5 -15
-2 -25 -6 -11 -11 -14 -11 -8 0 6 -18 34 -41 62 -34 43 -38 54 -27 66 17 18
30 7 54 -46z"/>
<path d="M415 709 c-4 -6 -8 -96 -8 -200 l0 -189 -34 26 c-36 27 -83 36 -90
18 -2 -7 16 -21 41 -33 41 -21 72 -52 78 -83 3 -14 27 -42 32 -37 1 2 8 18 15
34 17 43 41 68 84 88 39 19 47 34 23 43 -18 7 -96 -32 -96 -48 0 -6 -3 -8 -7
-4 -5 4 -8 94 -8 199 -1 132 -4 192 -12 194 -6 2 -14 -1 -18 -8z"/>
<path d="M798 668 c-6 -15 1 -38 10 -38 4 0 8 11 8 25 2 26 -10 34 -18 13z"/>
<path d="M775 610 c3 -5 8 -10 11 -10 2 0 4 5 4 10 0 6 -5 10 -11 10 -5 0 -7
-4 -4 -10z"/>
<path d="M801 568 c1 -29 0 -57 -1 -63 -5 -22 0 -75 8 -75 4 0 7 43 7 95 0 52
-3 95 -7 95 -4 0 -7 -24 -7 -52z"/>
<path d="M770 570 c0 -5 5 -10 11 -10 5 0 7 5 4 10 -3 6 -8 10 -11 10 -2 0 -4
-4 -4 -10z"/>
<path d="M775 450 c3 -5 8 -10 11 -10 2 0 4 5 4 10 0 6 -5 10 -11 10 -5 0 -7
-4 -4 -10z"/>
<path d="M795 397 c1 -13 4 -28 8 -34 4 -7 3 -14 -2 -18 -6 -3 -8 -12 -4 -20
11 -30 18 -14 18 40 1 32 -4 55 -10 55 -6 0 -10 -10 -10 -23z"/>
<path d="M759 398 c-5 -18 -6 -38 -1 -34 7 8 12 36 6 36 -2 0 -4 -1 -5 -2z"/>
<path d="M775 290 c3 -5 8 -10 11 -10 2 0 4 5 4 10 0 6 -5 10 -11 10 -5 0 -7
-4 -4 -10z"/>
<path d="M801 215 c0 -47 3 -85 7 -85 4 0 7 38 7 85 0 47 -3 85 -6 85 -4 0 -8
-38 -8 -85z"/>
<path d="M770 250 c0 -5 5 -10 11 -10 5 0 7 5 4 10 -3 6 -8 10 -11 10 -2 0 -4
-4 -4 -10z"/>
<path d="M215 130 c3 -5 8 -10 11 -10 2 0 4 5 4 10 0 6 -5 10 -11 10 -5 0 -7
-4 -4 -10z"/>
<path d="M187 109 c7 -7 15 -10 18 -7 3 3 -2 9 -12 12 -14 6 -15 5 -6 -5z"/>
<path d="M580 116 c0 -2 8 -10 18 -17 15 -13 16 -12 3 4 -13 16 -21 21 -21 13z"/>
<path d="M673 105 c0 -8 4 -12 9 -9 5 3 6 10 3 15 -9 13 -12 11 -12 -6z"/>
<path d="M490 90 c0 -5 5 -10 11 -10 5 0 7 5 4 10 -3 6 -8 10 -11 10 -2 0 -4
-4 -4 -10z"/>
<path d="M110 69 c0 -5 5 -7 10 -4 6 3 10 8 10 11 0 2 -4 4 -10 4 -5 0 -10 -5
-10 -11z"/>
<path d="M615 71 c-3 -5 -2 -12 3 -15 5 -3 9 1 9 9 0 17 -3 19 -12 6z"/>
<path d="M655 70 c-3 -5 -1 -10 4 -10 6 0 11 5 11 10 0 6 -2 10 -4 10 -3 0 -8
-4 -11 -10z"/>
</g>
</svg>
