<?xml version="1.0" standalone="no"?>
<!DOCTYPE svg PUBLIC "-//W3C//DTD SVG 20010904//EN"
 "http://www.w3.org/TR/2001/REC-SVG-20010904/DTD/svg10.dtd">
<svg version="1.0" xmlns="http://www.w3.org/2000/svg"
 width="107.000000pt" height="84.000000pt" viewBox="0 0 107.000000 84.000000"
 preserveAspectRatio="xMidYMid meet">
<metadata>
Created by potrace 1.12, written by Peter Selinger 2001-2015
</metadata>
<g transform="translate(0.000000,84.000000) scale(0.100000,-0.100000)"
fill="#000000" stroke="none">
<path d="M27 818 c-9 -5 -12 -115 -12 -403 0 -346 2 -395 15 -396 139 -5 1005
2 1011 8 5 5 8 186 7 403 l-3 393 -503 1 c-277 1 -509 -2 -515 -6z m963 -18
c0 -5 -4 -10 -10 -10 -6 0 -19 -9 -31 -21 -21 -21 -28 -21 -410 -22 l-389 0
-40 28 c-22 15 -43 26 -46 23 -3 -3 11 -15 30 -27 33 -21 34 -23 18 -41 -22
-26 -24 -26 -47 13 -10 17 -23 35 -28 38 -5 4 -7 12 -3 18 9 14 956 16 956 1z
m45 -89 c1 -51 -2 -78 -8 -74 -6 4 -7 1 -2 -7 12 -19 13 -240 1 -233 -5 4 -6
1 -1 -8 11 -16 13 -299 3 -299 -8 0 -12 16 -9 33 0 4 -3 7 -8 7 -5 0 -8 11 -7
25 2 13 -1 22 -5 19 -5 -3 -9 0 -9 6 0 6 -5 8 -10 5 -7 -4 -7 -11 -2 -18 5 -7
15 -28 22 -47 7 -19 20 -42 27 -52 12 -13 12 -18 1 -24 -20 -14 -88 -13 -88 0
0 8 -3 7 -8 -1 -8 -13 -29 -12 -51 1 -9 6 -12 5 -8 -1 9 -14 -74 -13 -92 1
-11 8 -13 8 -8 -1 9 -14 -31 -15 -50 -1 -6 5 -14 5 -18 -2 -8 -13 -65 -10 -84
4 -11 8 -13 8 -8 0 4 -7 -3 -11 -18 -11 -14 0 -28 4 -31 9 -4 5 -10 5 -17 -1
-15 -11 -177 -9 -196 3 -9 6 -12 5 -8 -1 4 -6 -9 -10 -33 -10 -24 0 -37 4 -33
10 4 6 1 7 -8 1 -22 -13 -42 -14 -58 -1 -11 9 -13 9 -8 0 10 -15 -82 -14 -102
1 -11 8 -13 8 -7 -1 5 -9 0 -13 -14 -13 -20 0 -20 1 -4 25 9 14 20 22 25 19 5
-3 6 2 3 10 -4 11 0 16 12 16 9 0 14 3 11 7 -4 3 -2 12 4 20 6 7 8 13 5 13 -8
0 -53 -51 -78 -89 -10 -14 -18 -24 -19 -21 0 3 -2 21 -5 40 -6 42 -11 669 -6
688 2 6 17 -6 33 -28 l29 -40 0 -246 c0 -243 0 -247 -25 -296 -14 -27 -25 -55
-25 -61 1 -7 13 13 28 44 26 54 28 55 45 38 17 -16 49 -17 400 -16 372 0 427
-3 427 -31 0 -10 70 -85 75 -80 2 2 -9 19 -26 38 -16 19 -33 40 -39 47 -14 17
-13 20 16 59 15 19 21 34 15 34 -14 0 -11 32 4 42 6 5 6 8 -1 8 -6 0 -10 17
-9 40 1 23 -3 40 -9 40 -7 0 -11 -27 -10 -75 0 -41 -3 -81 -8 -88 -9 -16 -715
-28 -723 -12 -3 6 -7 6 -10 -1 -7 -13 -81 -2 -97 14 -7 7 -10 99 -10 263 0
230 2 254 18 266 14 10 106 13 411 13 l393 0 14 -22 c8 -13 13 -42 12 -65 -1
-28 2 -43 10 -43 7 0 11 15 10 39 -2 46 10 85 23 77 5 -3 7 4 3 16 -3 13 -1
19 5 15 6 -4 13 0 17 8 12 31 -14 24 -31 -9 -17 -32 -19 -34 -38 -20 -19 14
-19 16 20 49 23 19 44 30 49 25 5 -5 10 -45 11 -89z"/>
<path d="M207 663 c-4 -7 -2 -331 1 -343 1 -3 44 -5 94 -4 88 0 93 1 96 22 3
21 0 22 -72 22 -82 0 -77 -5 -80 65 -3 44 7 51 69 50 46 -1 56 1 61 17 9 28 0
32 -66 30 -33 -1 -60 3 -61 8 -1 6 -1 19 -1 30 0 63 -4 60 77 60 73 0 75 1 75
25 0 25 0 25 -94 25 -52 0 -97 -3 -99 -7z"/>
<path d="M817 664 c-4 -4 -7 -31 -7 -60 0 -51 -1 -53 -22 -46 -13 5 -29 7 -35
6 -7 -1 -19 -2 -27 -3 -24 -2 -58 -70 -58 -116 0 -36 16 -83 35 -102 20 -20
73 -29 145 -24 10 1 12 39 10 173 -3 147 -5 173 -18 176 -9 1 -19 0 -23 -4z
m-23 -160 c19 -19 22 -114 4 -132 -35 -35 -81 6 -81 73 0 68 39 98 77 59z"/>
<path d="M958 583 c-9 -19 -1 -217 8 -220 7 -2 10 21 9 67 -1 43 3 70 9 70 8
0 8 3 0 8 -5 4 -10 24 -9 45 1 33 -8 49 -17 30z"/>
<path d="M449 552 c0 -9 0 -64 -1 -122 0 -99 1 -105 21 -108 18 -3 21 2 22 35
1 21 0 50 -1 64 0 15 6 43 14 63 14 34 19 37 48 34 l33 -3 3 -95 c3 -99 10
-120 33 -97 10 9 14 38 13 98 -1 101 -8 126 -37 135 -39 13 -51 13 -79 -1 -21
-10 -28 -10 -28 -1 0 19 -40 17 -41 -2z"/>
<path d="M466 122 c-3 -5 1 -9 9 -9 8 0 12 4 9 9 -3 4 -7 8 -9 8 -2 0 -6 -4
-9 -8z"/>
<path d="M586 122 c-3 -5 1 -9 9 -9 8 0 12 4 9 9 -3 4 -7 8 -9 8 -2 0 -6 -4
-9 -8z"/>
<path d="M746 122 c-3 -5 1 -9 9 -9 8 0 12 4 9 9 -3 4 -7 8 -9 8 -2 0 -6 -4
-9 -8z"/>
<path d="M350 101 c0 -6 4 -13 10 -16 6 -3 7 1 4 9 -7 18 -14 21 -14 7z"/>
<path d="M576 82 c-3 -5 1 -9 9 -9 8 0 12 4 9 9 -3 4 -7 8 -9 8 -2 0 -6 -4 -9
-8z"/>
<path d="M736 82 c-3 -5 1 -9 9 -9 8 0 12 4 9 9 -3 4 -7 8 -9 8 -2 0 -6 -4 -9
-8z"/>
</g>
</svg>
