<?xml version="1.0" standalone="no"?>
<!DOCTYPE svg PUBLIC "-//W3C//DTD SVG 20010904//EN"
 "http://www.w3.org/TR/2001/REC-SVG-20010904/DTD/svg10.dtd">
<svg version="1.0" xmlns="http://www.w3.org/2000/svg"
 width="84.000000pt" height="83.000000pt" viewBox="0 0 84.000000 83.000000"
 preserveAspectRatio="xMidYMid meet">
<metadata>
Created by potrace 1.12, written by Peter Selinger 2001-2015
</metadata>
<g transform="translate(0.000000,83.000000) scale(0.100000,-0.100000)"
fill="#000000" stroke="none">
<path d="M30 808 c-26 -10 -26 -45 0 -53 11 -3 20 -10 20 -14 0 -5 9 -20 21
-35 20 -25 21 -38 21 -275 1 -214 -2 -252 -16 -272 -9 -13 -16 -27 -16 -32 0
-12 -36 -57 -42 -52 -2 2 -5 -9 -6 -25 -1 -16 3 -32 10 -36 13 -8 782 -9 795
-1 10 7 10 783 0 793 -10 10 -761 12 -787 2z m73 -52 c28 -24 28 -24 8 -38
-12 -8 -18 -18 -14 -21 3 -4 4 -7 1 -7 -11 0 -58 92 -52 101 5 9 10 7 57 -35z
m704 1 c4 -23 6 -45 5 -49 -1 -4 -2 -150 -3 -325 0 -220 -4 -310 -11 -293 -5
14 -10 29 -11 35 -1 5 -8 16 -15 23 -7 8 -9 18 -6 24 4 7 2 8 -4 4 -9 -5 -12
10 -11 51 1 32 0 63 -1 68 -5 26 3 81 13 87 8 5 6 9 -6 14 -22 8 -22 25 1 18
13 -5 14 -4 3 4 -7 5 -11 14 -7 20 3 6 2 13 -3 16 -6 4 -6 18 -1 36 5 19 5 30
-1 30 -6 0 -7 5 -3 12 6 10 9 65 4 86 -1 4 -1 24 0 44 1 26 -4 42 -19 54 -20
18 -20 18 12 46 17 15 27 27 22 28 -6 0 -23 -11 -38 -25 l-27 -26 -276 0 -276
0 -41 31 -42 31 368 -1 367 -1 7 -42z m-87 -57 c6 -8 10 -126 10 -267 0 -230
-2 -253 -17 -261 -10 -5 -145 -9 -301 -8 -235 1 -284 3 -292 16 -13 21 -12
486 2 515 l11 25 289 -3 c244 -2 290 -4 298 -17z m-602 -542 c18 -18 15 -32
-13 -62 -14 -16 -33 -39 -41 -52 -9 -13 -20 -21 -26 -18 -5 3 -4 12 3 20 6 8
8 14 5 14 -4 0 -4 6 1 13 4 6 8 14 9 17 2 14 39 80 44 80 3 0 11 -5 18 -12z
m655 -45 c12 -27 26 -51 31 -54 5 -4 6 -15 2 -25 -7 -17 -8 -17 -19 2 -7 12
-27 40 -44 64 -18 23 -30 46 -27 51 13 21 36 5 57 -38z m-72 15 c13 -21 43
-60 57 -74 25 -26 9 -46 -17 -21 -8 6 -11 8 -8 2 3 -6 -13 -10 -39 -11 -24 -1
-41 2 -39 7 3 4 -3 6 -12 4 -10 -2 -18 -4 -18 -5 0 -7 -128 -4 -132 3 -2 4
-10 4 -16 -1 -26 -20 -105 -3 -91 20 4 7 2 8 -5 4 -9 -6 -9 -11 -1 -21 9 -11
7 -14 -9 -12 -12 1 -21 6 -21 12 0 7 -3 7 -8 0 -9 -14 -85 -15 -94 -1 -5 7 -8
7 -8 1 0 -13 -79 -14 -99 -1 -10 6 -12 6 -7 -2 4 -7 3 -12 -3 -12 -5 0 -13 5
-17 11 -4 8 -9 8 -17 0 -6 -6 -15 -11 -19 -11 -12 0 10 39 38 67 13 13 24 30
24 38 0 19 30 20 314 18 185 -1 241 -5 247 -15z"/>
<path d="M775 750 c-3 -11 -10 -20 -14 -20 -4 0 -8 -7 -8 -15 0 -23 11 -18 30
14 19 33 21 41 8 41 -5 0 -13 -9 -16 -20z"/>
<path d="M776 648 c3 -5 10 -6 15 -3 13 9 11 12 -6 12 -8 0 -12 -4 -9 -9z"/>
<path d="M773 565 c0 -8 4 -12 9 -9 5 3 6 10 3 15 -9 13 -12 11 -12 -6z"/>
<path d="M776 488 c3 -5 10 -6 15 -3 13 9 11 12 -6 12 -8 0 -12 -4 -9 -9z"/>
<path d="M776 328 c3 -5 10 -6 15 -3 13 9 11 12 -6 12 -8 0 -12 -4 -9 -9z"/>
<path d="M773 245 c0 -8 4 -12 9 -9 5 3 6 10 3 15 -9 13 -12 11 -12 -6z"/>
<path d="M207 653 c-3 -4 -5 -83 -5 -176 1 -147 3 -167 17 -168 22 -1 163 -1
178 0 11 1 12 25 1 36 -3 3 -38 6 -77 6 l-70 0 -3 152 c-3 132 -5 152 -20 155
-9 2 -18 -1 -21 -5z"/>
<path d="M525 650 c-4 -6 -18 -15 -32 -21 -13 -5 -23 -14 -21 -20 2 -6 6 -9 9
-7 3 2 14 -3 23 -11 14 -12 17 -30 16 -90 -3 -182 -2 -191 23 -191 22 0 22 0
21 172 -1 149 -3 173 -16 176 -9 2 -19 -2 -23 -8z"/>
<path d="M316 112 c-3 -5 1 -9 9 -9 8 0 12 4 9 9 -3 4 -7 8 -9 8 -2 0 -6 -4
-9 -8z"/>
<path d="M369 107 c6 -8 7 -18 3 -22 -4 -5 -1 -5 6 -1 10 6 10 11 1 22 -6 8
-14 14 -16 14 -3 0 0 -6 6 -13z"/>
<path d="M215 90 c-3 -5 -1 -10 4 -10 6 0 11 5 11 10 0 6 -2 10 -4 10 -3 0 -8
-4 -11 -10z"/>
<path d="M459 98 c-5 -18 -6 -38 -1 -34 7 8 12 36 6 36 -2 0 -4 -1 -5 -2z"/>
<path d="M530 70 c0 -5 5 -10 11 -10 5 0 7 5 4 10 -3 6 -8 10 -11 10 -2 0 -4
-4 -4 -10z"/>
<path d="M579 78 c-5 -18 -6 -38 -1 -34 7 8 12 36 6 36 -2 0 -4 -1 -5 -2z"/>
<path d="M155 61 c-3 -5 -2 -12 3 -15 5 -3 9 1 9 9 0 17 -3 19 -12 6z"/>
<path d="M276 52 c-3 -5 1 -9 9 -9 8 0 12 4 9 9 -3 4 -7 8 -9 8 -2 0 -6 -4 -9
-8z"/>
<path d="M690 49 c0 -5 5 -7 10 -4 6 3 10 8 10 11 0 2 -4 4 -10 4 -5 0 -10 -5
-10 -11z"/>
<path d="M15 726 c0 -37 15 -44 15 -8 0 18 -4 32 -8 32 -4 0 -8 -11 -7 -24z"/>
<path d="M13 660 c1 -21 12 -26 22 -10 3 6 1 10 -5 10 -6 0 -8 5 -5 10 3 6 2
10 -4 10 -5 0 -9 -9 -8 -20z"/>
<path d="M15 620 c-3 -6 1 -7 9 -4 18 7 21 14 7 14 -6 0 -13 -4 -16 -10z"/>
<path d="M10 591 c0 -6 5 -13 10 -16 6 -3 10 1 10 9 0 9 -4 16 -10 16 -5 0
-10 -4 -10 -9z"/>
<path d="M13 540 c1 -21 12 -26 22 -10 3 6 1 10 -5 10 -6 0 -8 5 -5 10 3 6 2
10 -4 10 -5 0 -9 -9 -8 -20z"/>
<path d="M15 500 c-3 -6 1 -7 9 -4 18 7 21 14 7 14 -6 0 -13 -4 -16 -10z"/>
<path d="M10 471 c0 -6 5 -13 10 -16 6 -3 10 1 10 9 0 9 -4 16 -10 16 -5 0
-10 -4 -10 -9z"/>
<path d="M13 420 c1 -21 12 -26 22 -10 3 6 1 10 -5 10 -6 0 -8 5 -5 10 3 6 2
10 -4 10 -5 0 -9 -9 -8 -20z"/>
<path d="M15 380 c-3 -6 1 -7 9 -4 18 7 21 14 7 14 -6 0 -13 -4 -16 -10z"/>
<path d="M10 351 c0 -6 5 -13 10 -16 6 -3 10 1 10 9 0 9 -4 16 -10 16 -5 0
-10 -4 -10 -9z"/>
<path d="M13 300 c1 -21 12 -26 22 -10 3 6 1 10 -5 10 -6 0 -8 5 -5 10 3 6 2
10 -4 10 -5 0 -9 -9 -8 -20z"/>
<path d="M15 260 c-3 -6 1 -7 9 -4 18 7 21 14 7 14 -6 0 -13 -4 -16 -10z"/>
<path d="M10 231 c0 -6 5 -13 10 -16 6 -3 10 1 10 9 0 9 -4 16 -10 16 -5 0
-10 -4 -10 -9z"/>
<path d="M13 180 c1 -21 12 -26 22 -10 3 6 1 10 -5 10 -6 0 -8 5 -5 10 3 6 2
10 -4 10 -5 0 -9 -9 -8 -20z"/>
<path d="M15 126 c0 -37 15 -44 15 -8 0 18 -4 32 -8 32 -4 0 -8 -11 -7 -24z"/>
</g>
</svg>
