<?xml version="1.0" standalone="no"?>
<!DOCTYPE svg PUBLIC "-//W3C//DTD SVG 20010904//EN"
 "http://www.w3.org/TR/2001/REC-SVG-20010904/DTD/svg10.dtd">
<svg version="1.0" xmlns="http://www.w3.org/2000/svg"
 width="84.000000pt" height="83.000000pt" viewBox="0 0 84.000000 83.000000"
 preserveAspectRatio="xMidYMid meet">
<metadata>
Created by potrace 1.12, written by Peter Selinger 2001-2015
</metadata>
<g transform="translate(0.000000,83.000000) scale(0.100000,-0.100000)"
fill="#000000" stroke="none">
<path d="M23 812 c-16 -16 -17 -32 -2 -32 6 0 7 -5 2 -12 -8 -14 -13 -38 -8
-38 14 0 35 35 30 50 -7 22 11 36 19 15 3 -8 10 -15 16 -15 5 0 18 -8 29 -19
18 -18 18 -19 1 -34 -16 -14 -18 -38 -17 -272 0 -247 1 -259 21 -281 l21 -24
289 -1 c235 -1 292 2 300 13 6 8 20 12 30 10 18 -4 19 -3 3 13 -18 18 -13 40
6 28 7 -4 6 0 -2 10 -7 9 -11 30 -9 47 3 16 1 30 -3 30 -4 0 -4 14 1 30 5 19
5 28 -1 25 -5 -4 -9 -1 -9 4 0 6 8 11 18 11 13 0 14 2 3 9 -9 6 -12 21 -9 45
2 20 1 36 -3 36 -4 0 -4 13 1 29 6 21 5 31 -3 35 -7 2 -3 5 8 5 15 1 17 3 6
10 -9 6 -12 21 -9 45 2 20 2 36 -2 36 -3 0 -5 23 -5 50 0 34 4 50 13 50 7 0
21 15 32 33 l20 32 0 -72 c0 -40 4 -73 8 -73 9 0 10 166 0 175 -3 4 -181 7
-394 8 -310 2 -390 -1 -401 -11z m713 -36 l-33 -31 -277 1 -276 1 -40 28 c-22
15 -40 30 -40 32 0 2 157 3 349 2 l350 -1 -33 -32z m49 -6 c-18 -35 -50 -56
-61 -39 -7 12 56 79 68 72 5 -2 1 -17 -7 -33z m-72 -57 c15 -15 17 -40 17
-263 0 -182 -3 -251 -13 -263 -11 -16 -38 -18 -277 -18 -146 0 -273 0 -282 1
-44 1 -47 16 -46 279 0 137 3 253 7 258 12 20 40 22 306 21 230 0 273 -2 288
-15z"/>
<path d="M208 668 c-4 -10 -4 -348 1 -349 38 -6 177 -2 187 6 27 20 -1 34 -71
37 l-70 3 -5 150 c-4 132 -7 150 -22 153 -10 2 -19 2 -20 0z"/>
<path d="M493 660 c-24 -10 -53 -58 -46 -77 8 -23 42 -15 49 11 5 21 28 35 57
36 4 0 14 -15 22 -32 16 -39 3 -71 -51 -128 -67 -70 -84 -96 -84 -123 l0 -28
93 3 c84 3 92 5 92 23 0 17 -8 21 -63 25 l-64 5 21 25 c12 14 37 41 56 61 66
68 77 141 29 186 -26 24 -70 29 -111 13z"/>
<path d="M50 754 c0 -5 7 -19 15 -30 8 -10 15 -14 15 -8 0 5 -7 19 -15 30 -8
10 -15 14 -15 8z"/>
<path d="M14 666 c1 -38 5 -52 13 -49 7 3 10 10 6 16 -4 6 -6 28 -6 49 0 21
-3 38 -6 38 -4 0 -7 -24 -7 -54z"/>
<path d="M810 575 c0 -30 4 -55 8 -55 5 0 8 25 8 55 -1 30 -4 55 -8 55 -5 0
-8 -25 -8 -55z"/>
<path d="M14 546 c1 -38 5 -52 13 -49 7 3 10 10 6 16 -4 6 -6 28 -6 49 0 21
-3 38 -6 38 -4 0 -7 -24 -7 -54z"/>
<path d="M810 475 c0 -19 4 -35 9 -35 4 0 8 16 7 35 -1 46 -16 46 -16 0z"/>
<path d="M14 426 c1 -38 5 -52 13 -49 7 3 10 10 6 16 -4 6 -6 28 -6 49 0 21
-3 38 -6 38 -4 0 -7 -24 -7 -54z"/>
<path d="M811 315 c0 -63 3 -115 7 -115 4 0 7 52 7 115 0 63 -3 115 -7 115 -4
0 -7 -52 -7 -115z"/>
<path d="M14 306 c1 -38 5 -52 13 -49 7 3 10 10 6 16 -4 6 -6 28 -6 49 0 21
-3 38 -6 38 -4 0 -7 -24 -7 -54z"/>
<path d="M15 137 c0 -56 4 -107 7 -112 5 -8 596 -12 784 -6 19 1 20 6 18 79
-2 94 -2 92 -11 92 -5 0 -7 -26 -6 -57 l3 -58 -20 43 c-10 23 -23 42 -29 42
-11 0 26 -82 42 -91 5 -4 7 -15 3 -25 -7 -18 -8 -18 -19 2 -22 38 -71 93 -79
88 -4 -3 1 -15 12 -27 10 -12 28 -33 39 -46 21 -24 19 -47 -2 -34 -18 12 -77
10 -77 -2 0 -5 -5 -3 -10 5 -9 13 -10 13 -10 0 0 -10 -3 -11 -8 -4 -8 13 -42
14 -42 2 0 -5 -5 -6 -11 -2 -15 9 -366 12 -400 3 -15 -4 -32 -3 -40 2 -8 5
-16 3 -21 -4 -6 -9 -8 -8 -8 3 0 13 -1 13 -10 0 -8 -12 -10 -12 -10 -1 0 10
-3 11 -14 2 -11 -9 -16 -9 -21 0 -4 6 -1 15 6 20 8 5 11 9 6 9 -4 0 9 16 29
35 20 20 34 39 30 42 -6 7 -31 -17 -77 -76 -29 -36 -34 -18 -11 33 23 48 37
96 29 96 -3 0 -14 -24 -23 -54 -23 -72 -39 -56 -38 35 1 38 -1 69 -5 69 -4 0
-7 -46 -6 -103z"/>
<path d="M150 66 c0 -2 8 -10 18 -17 15 -13 16 -12 3 4 -13 16 -21 21 -21 13z"/>
<path d="M505 50 c-3 -6 1 -7 9 -4 18 7 21 14 7 14 -6 0 -13 -4 -16 -10z"/>
</g>
</svg>
