<?xml version="1.0" standalone="no"?>
<!DOCTYPE svg PUBLIC "-//W3C//DTD SVG 20010904//EN"
 "http://www.w3.org/TR/2001/REC-SVG-20010904/DTD/svg10.dtd">
<svg version="1.0" xmlns="http://www.w3.org/2000/svg"
 width="97.000000pt" height="84.000000pt" viewBox="0 0 97.000000 84.000000"
 preserveAspectRatio="xMidYMid meet">
<metadata>
Created by potrace 1.12, written by Peter Selinger 2001-2015
</metadata>
<g transform="translate(0.000000,84.000000) scale(0.100000,-0.100000)"
fill="#000000" stroke="none">
<path d="M24 813 c-7 -8 -11 -32 -9 -60 4 -63 6 -66 15 -18 5 33 8 37 15 20 4
-11 16 -29 26 -41 17 -19 19 -43 21 -278 1 -159 -2 -260 -8 -264 -6 -4 -16
-22 -23 -39 -17 -41 -31 -42 -31 -3 0 17 -4 30 -8 30 -10 0 -10 -46 0 -56 10
-10 10 -27 0 -20 -12 7 -13 -45 -1 -60 15 -19 146 -16 153 3 4 9 1 11 -6 7
-17 -11 -98 -11 -98 0 0 5 7 16 15 25 8 9 26 28 40 43 14 15 25 31 25 35 0 5
153 9 340 11 256 2 340 -1 340 -10 0 -6 7 -18 15 -27 36 -38 65 -77 65 -90 0
-8 6 -11 16 -7 9 3 19 6 23 6 4 0 8 117 7 259 0 143 -4 258 -8 255 -4 -2 -6
-17 -4 -32 1 -15 -2 -33 -7 -39 -6 -9 -5 -13 3 -13 10 0 10 -3 0 -15 -7 -8 -9
-15 -4 -15 5 0 9 -20 9 -45 0 -25 -4 -45 -8 -45 -5 0 -5 -6 0 -12 9 -15 11
-108 2 -108 -3 0 -6 -7 -6 -15 0 -8 4 -15 7 -15 6 0 6 -46 0 -95 -1 -5 -12 15
-26 45 -14 30 -30 58 -37 62 -9 5 -9 10 0 19 8 8 9 19 2 36 -5 13 -6 22 -1 20
4 -3 7 10 7 29 0 19 -4 34 -8 34 -5 0 -5 5 -1 11 6 10 6 35 1 127 -1 23 3 42
8 42 6 0 3 5 -5 10 -9 6 -10 10 -3 10 8 0 9 9 3 28 -9 32 5 66 22 56 7 -4 8
-2 4 5 -4 6 -12 9 -17 6 -10 -7 -12 5 -9 47 1 16 -6 35 -14 44 -23 22 -20 30
19 60 45 34 55 25 21 -20 -14 -19 -22 -37 -18 -40 5 -3 16 8 26 25 9 16 22 29
28 29 7 0 6 -6 -2 -15 -7 -8 -8 -15 -3 -15 10 0 9 -101 -1 -118 -4 -7 -1 -12
7 -12 11 0 14 21 13 101 -1 92 -3 103 -21 109 -15 5 -29 -3 -60 -34 l-40 -41
-341 0 -341 0 -41 29 c-23 16 -42 31 -42 33 0 3 18 3 40 1 23 -2 40 1 40 7 0
14 -111 13 -126 -2z m68 -42 c37 -28 38 -28 18 -46 -11 -10 -22 -16 -23 -14
-8 10 -47 81 -47 85 0 10 17 2 52 -25z m755 -54 c12 -13 10 -524 -2 -536 -13
-13 -14 -13 -361 -11 -160 0 -295 0 -300 -1 -22 -4 -44 2 -57 16 -12 12 -15
59 -16 260 0 223 1 247 17 263 17 17 45 18 364 18 191 -1 350 -5 355 -9z m43
-563 c0 -24 39 -94 52 -94 9 0 9 -3 -1 -12 -10 -11 -16 -8 -33 12 -11 14 -30
38 -43 54 -19 23 -22 32 -13 46 13 20 38 16 38 -6z m-761 3 c8 -10 6 -18 -7
-33 -9 -11 -31 -36 -49 -56 -18 -21 -34 -34 -36 -30 -7 12 54 132 68 132 7 0
18 -6 24 -13z"/>
<path d="M328 560 c-10 -25 -33 -51 -62 -71 -47 -33 -57 -49 -32 -49 18 0 96
-74 96 -91 1 -21 27 -52 39 -45 13 9 -6 73 -29 99 -11 11 -17 24 -14 28 3 5
100 9 216 9 116 -1 213 1 215 4 3 3 2 9 -2 15 -4 7 -80 11 -221 11 l-215 0 25
43 c36 63 41 87 19 87 -11 0 -24 -14 -35 -40z"/>
<path d="M194 818 c-3 -4 128 -9 291 -10 162 -2 295 0 295 5 0 9 17 9 -303 10
-154 1 -281 -1 -283 -5z"/>
<path d="M820 819 c-19 -3 -33 -7 -30 -8 14 -6 100 -5 100 0 0 11 -33 15 -70
8z"/>
<path d="M165 810 c3 -5 8 -10 11 -10 2 0 4 5 4 10 0 6 -5 10 -11 10 -5 0 -7
-4 -4 -10z"/>
<path d="M13 670 c1 -21 12 -26 22 -10 3 6 1 10 -5 10 -6 0 -8 5 -5 10 3 6 2
10 -4 10 -5 0 -9 -9 -8 -20z"/>
<path d="M895 661 c-3 -5 -2 -12 3 -15 5 -3 9 1 9 9 0 17 -3 19 -12 6z"/>
<path d="M17 633 c-10 -17 0 -67 13 -71 9 -2 11 0 5 5 -14 11 -15 56 -1 65 8
6 8 8 -1 8 -6 0 -14 -3 -16 -7z"/>
<path d="M940 589 c-11 -8 -12 -12 -2 -16 6 -2 10 -9 6 -14 -3 -5 -1 -9 4 -9
5 0 10 11 10 25 0 14 -1 25 -2 25 0 0 -8 -5 -16 -11z"/>
<path d="M896 582 c-3 -5 1 -9 9 -9 8 0 12 4 9 9 -3 4 -7 8 -9 8 -2 0 -6 -4
-9 -8z"/>
<path d="M10 540 c0 -5 4 -10 9 -10 6 0 13 5 16 10 3 6 -1 10 -9 10 -9 0 -16
-4 -16 -10z"/>
<path d="M17 513 c-10 -17 0 -67 13 -71 9 -2 11 0 5 5 -14 11 -15 56 -1 65 8
6 8 8 -1 8 -6 0 -14 -3 -16 -7z"/>
<path d="M10 420 c0 -5 4 -10 9 -10 6 0 13 5 16 10 3 6 -1 10 -9 10 -9 0 -16
-4 -16 -10z"/>
<path d="M17 393 c-10 -17 0 -67 13 -71 9 -2 11 0 5 5 -14 11 -15 56 -1 65 8
6 8 8 -1 8 -6 0 -14 -3 -16 -7z"/>
<path d="M10 300 c0 -5 4 -10 9 -10 6 0 13 5 16 10 3 6 -1 10 -9 10 -9 0 -16
-4 -16 -10z"/>
<path d="M17 273 c-10 -17 0 -67 13 -71 9 -2 11 0 5 5 -14 11 -15 56 -1 65 8
6 8 8 -1 8 -6 0 -14 -3 -16 -7z"/>
<path d="M10 180 c0 -5 4 -10 9 -10 6 0 13 5 16 10 3 6 -1 10 -9 10 -9 0 -16
-4 -16 -10z"/>
<path d="M216 102 c-2 -4 -1 -14 4 -22 7 -11 9 -9 7 8 -1 24 -3 26 -11 14z"/>
<path d="M290 100 c0 -5 5 -10 11 -10 5 0 7 5 4 10 -3 6 -8 10 -11 10 -2 0 -4
-4 -4 -10z"/>
<path d="M819 108 c-5 -18 -6 -38 -1 -34 7 8 12 36 6 36 -2 0 -4 -1 -5 -2z"/>
<path d="M573 71 c0 -11 5 -18 9 -15 4 3 5 11 1 19 -7 21 -12 19 -10 -4z"/>
<path d="M733 71 c0 -11 5 -18 9 -15 4 3 5 11 1 19 -7 21 -12 19 -10 -4z"/>
<path d="M135 60 c3 -5 8 -10 11 -10 2 0 4 5 4 10 0 6 -5 10 -11 10 -5 0 -7
-4 -4 -10z"/>
<path d="M371 63 c4 -25 -4 -33 -35 -33 -19 0 -38 5 -41 10 -8 13 -25 3 -25
-14 0 -15 91 -17 102 -1 5 6 8 5 8 -2 0 -7 7 -13 15 -13 8 0 15 7 15 16 0 8 5
12 10 9 6 -4 8 -11 5 -16 -4 -5 4 -9 17 -9 l23 0 -25 20 c-22 17 -26 18 -37 4
-12 -16 -29 -2 -18 15 3 5 1 13 -5 16 -6 4 -10 3 -9 -2z"/>
<path d="M456 58 c3 -5 10 -6 15 -3 13 9 11 12 -6 12 -8 0 -12 -4 -9 -9z"/>
<path d="M495 60 c3 -5 8 -10 11 -10 2 0 4 5 4 10 0 6 -5 10 -11 10 -5 0 -7
-4 -4 -10z"/>
<path d="M655 60 c3 -5 8 -10 11 -10 2 0 4 5 4 10 0 6 -5 10 -11 10 -5 0 -7
-4 -4 -10z"/>
<path d="M790 45 c-11 -13 -38 -15 -170 -13 -109 2 -156 0 -153 -8 2 -7 57
-10 157 -10 147 0 153 1 170 23 19 26 16 32 -4 8z"/>
<path d="M224 37 c-3 -9 -12 -13 -19 -11 -7 3 -16 1 -19 -5 -4 -6 9 -10 34 -9
43 0 49 8 25 28 -12 10 -16 9 -21 -3z m21 -7 c3 -5 1 -10 -4 -10 -6 0 -11 5
-11 10 0 6 2 10 4 10 3 0 8 -4 11 -10z"/>
<path d="M823 25 c0 -9 12 -14 39 -13 38 0 49 10 26 24 -7 4 -8 3 -4 -5 5 -8
0 -10 -18 -7 -14 3 -29 7 -34 10 -5 3 -9 -1 -9 -9z"/>
<path d="M795 20 c-3 -5 -1 -10 4 -10 6 0 11 5 11 10 0 6 -2 10 -4 10 -3 0 -8
-4 -11 -10z"/>
</g>
</svg>
