<?xml version="1.0" standalone="no"?>
<!DOCTYPE svg PUBLIC "-//W3C//DTD SVG 20010904//EN"
 "http://www.w3.org/TR/2001/REC-SVG-20010904/DTD/svg10.dtd">
<svg version="1.0" xmlns="http://www.w3.org/2000/svg"
 width="97.000000pt" height="83.000000pt" viewBox="0 0 97.000000 83.000000"
 preserveAspectRatio="xMidYMid meet">
<metadata>
Created by potrace 1.12, written by Peter Selinger 2001-2015
</metadata>
<g transform="translate(0.000000,83.000000) scale(0.100000,-0.100000)"
fill="#000000" stroke="none">
<path d="M32 814 c-28 -19 -28 -51 -2 -59 11 -3 20 -10 20 -14 0 -4 9 -17 21
-29 19 -22 20 -34 21 -265 0 -221 1 -245 19 -273 23 -39 23 -36 -2 -65 -12
-13 -30 -35 -40 -48 -32 -39 -35 -14 -6 45 32 65 36 97 4 39 -11 -22 -21 -43
-22 -47 0 -3 -3 -10 -7 -14 -5 -4 -8 10 -8 32 0 22 -4 34 -8 27 -6 -10 -8 -89
-3 -125 1 -10 912 -10 927 0 15 10 14 280 -1 286 -7 2 -12 -2 -12 -10 0 -8 4
-14 9 -14 4 0 8 -5 8 -11 0 -5 -4 -8 -8 -5 -12 7 -10 -38 2 -46 7 -5 4 -13 -9
-23 -11 -9 -15 -14 -9 -11 13 7 22 -25 19 -66 -3 -44 -12 -42 -30 7 -10 25
-25 49 -33 54 -10 5 -12 13 -6 22 12 20 14 38 3 45 -13 8 0 25 14 18 7 -3 5 0
-3 8 -15 13 -18 52 -7 82 4 9 2 16 -4 16 -6 0 -7 5 -4 11 9 14 13 69 5 69 -8
0 -4 55 5 69 3 6 2 11 -3 11 -4 0 -7 17 -5 38 2 20 5 61 6 90 0 28 4 52 8 52
4 0 11 9 14 20 4 11 11 18 16 15 5 -4 9 3 9 14 0 29 -5 26 -30 -14 -19 -30
-24 -33 -41 -22 -19 12 -19 13 7 35 35 30 25 39 -12 10 -28 -23 -31 -23 -367
-24 -248 -1 -342 2 -351 11 -6 7 -22 17 -34 24 -26 14 -21 32 8 26 11 -2 20 1
20 6 0 6 -12 9 -28 8 -15 -2 -32 0 -38 3 -6 4 -20 0 -32 -8z m58 -46 c0 -4 6
-8 14 -8 23 0 25 -26 4 -39 -11 -7 -21 -11 -22 -9 -55 76 -59 94 -21 76 14 -6
25 -15 25 -20z m754 -57 c14 -12 16 -47 16 -260 0 -192 -3 -251 -14 -266 -12
-17 -35 -18 -358 -19 -298 -1 -347 1 -361 14 -14 14 -16 46 -14 270 2 246 3
255 23 265 33 16 688 12 708 -4z m65 -606 c17 -32 28 -62 25 -64 -5 -6 -64 54
-64 65 0 4 -8 12 -17 19 -15 11 -15 15 -4 29 20 24 26 18 60 -49z m-741 30
c-5 8 94 10 315 10 348 -2 353 -2 344 -11 -3 -3 10 -20 29 -37 19 -18 34 -36
34 -41 0 -5 7 -14 16 -21 15 -11 15 -12 -2 -12 -11 0 -25 5 -33 11 -11 8 -13
8 -7 -2 4 -6 3 -12 -3 -12 -5 0 -13 5 -16 10 -4 6 -12 7 -18 3 -22 -14 -59
-15 -51 -2 5 8 3 9 -7 3 -23 -14 -51 -16 -43 -2 5 7 3 8 -7 2 -21 -13 -42 -14
-55 -3 -8 7 -14 6 -19 -1 -5 -8 -11 -7 -23 2 -12 10 -14 10 -8 0 8 -14 -19
-12 -43 2 -9 6 -12 5 -8 -1 9 -14 -56 -12 -65 2 -5 6 -8 6 -8 -2 0 -12 -17
-12 -38 1 -7 4 -19 2 -27 -4 -12 -10 -15 -10 -15 1 0 9 -3 10 -8 3 -9 -14 -42
-14 -42 0 0 6 -5 4 -10 -4 -9 -13 -11 -13 -20 0 -5 8 -10 10 -10 4 0 -6 -16
-11 -35 -11 -21 0 -32 4 -28 11 3 6 0 5 -8 -1 -17 -17 -32 -17 -23 -1 5 10 4
10 -6 1 -11 -10 -17 -10 -29 0 -8 6 -12 7 -9 2 4 -7 -15 -11 -53 -11 -32 0
-59 4 -59 8 0 7 7 16 53 70 9 12 17 28 17 36 0 12 2 12 17 1 9 -8 14 -9 11 -4z"/>
<path d="M603 603 c-15 -5 0 -59 27 -95 11 -15 20 -30 20 -33 0 -3 -97 -5
-215 -5 -184 0 -215 -2 -215 -15 0 -17 -15 -16 238 -17 105 -1 192 -4 192 -7
0 -4 -11 -23 -25 -43 -24 -35 -34 -88 -17 -88 14 0 32 23 32 42 0 22 47 71 89
92 17 9 31 18 31 21 0 2 -16 12 -36 21 -34 16 -98 89 -90 103 6 9 -18 28 -31
24z"/>
<path d="M230 109 c0 -5 5 -7 10 -4 6 3 10 8 10 11 0 2 -4 4 -10 4 -5 0 -10
-5 -10 -11z"/>
<path d="M396 112 c-3 -5 1 -9 9 -9 8 0 12 4 9 9 -3 4 -7 8 -9 8 -2 0 -6 -4
-9 -8z"/>
<path d="M335 89 c-3 -4 2 -6 10 -5 21 3 28 13 10 13 -9 0 -18 -4 -20 -8z"/>
<path d="M459 98 c-5 -18 -6 -38 -1 -34 7 8 12 36 6 36 -2 0 -4 -1 -5 -2z"/>
<path d="M536 88 c3 -5 10 -6 15 -3 13 9 11 12 -6 12 -8 0 -12 -4 -9 -9z"/>
<path d="M615 90 c-3 -5 -1 -10 4 -10 6 0 11 5 11 10 0 6 -2 10 -4 10 -3 0 -8
-4 -11 -10z"/>
<path d="M696 88 c3 -5 10 -6 15 -3 13 9 11 12 -6 12 -8 0 -12 -4 -9 -9z"/>
<path d="M139 78 c-5 -18 -6 -38 -1 -34 7 8 12 36 6 36 -2 0 -4 -1 -5 -2z"/>
<path d="M171 77 c2 -1 13 -9 24 -17 19 -14 19 -14 6 3 -7 9 -18 17 -24 17 -6
0 -8 -1 -6 -3z"/>
<path d="M236 72 c-3 -5 1 -9 9 -9 8 0 12 4 9 9 -3 4 -7 8 -9 8 -2 0 -6 -4 -9
-8z"/>
<path d="M386 68 c3 -5 10 -6 15 -3 13 9 11 12 -6 12 -8 0 -12 -4 -9 -9z"/>
<path d="M760 70 c8 -5 20 -10 25 -10 6 0 3 5 -5 10 -8 5 -19 10 -25 10 -5 0
-3 -5 5 -10z"/>
<path d="M280 50 c-12 -7 -10 -9 7 -7 12 0 19 5 17 9 -6 10 -6 10 -24 -2z"/>
<path d="M140 812 c0 -9 126 -9 135 -1 3 4 -26 7 -65 7 -38 0 -70 -3 -70 -6z"/>
<path d="M290 812 c0 -4 25 -8 55 -7 30 0 55 3 55 8 0 4 -25 7 -55 7 -30 0
-55 -4 -55 -8z"/>
<path d="M410 812 c0 -4 25 -8 55 -7 30 0 55 3 55 8 0 4 -25 7 -55 7 -30 0
-55 -4 -55 -8z"/>
<path d="M530 812 c0 -4 25 -8 55 -7 30 0 55 3 55 8 0 4 -25 7 -55 7 -30 0
-55 -4 -55 -8z"/>
<path d="M650 812 c0 -4 51 -8 113 -9 145 -3 160 -5 173 -22 10 -13 10 -77 0
-143 -2 -16 0 -28 5 -28 6 0 5 -8 -1 -20 -8 -14 -8 -26 0 -40 7 -14 8 -26 0
-39 -5 -11 -7 -27 -4 -35 7 -18 24 -22 24 -6 0 6 -4 10 -10 10 -5 0 -10 5 -10
11 0 5 4 8 9 5 5 -3 8 10 8 29 -1 19 -5 35 -9 35 -4 0 -8 5 -8 11 0 5 3 8 8 5
4 -2 7 50 7 117 l0 121 -152 3 c-84 1 -153 -1 -153 -5z"/>
<path d="M16 742 c-7 -11 -2 -40 8 -49 5 -4 6 5 2 20 -5 21 -4 27 5 21 8 -4 9
-3 5 4 -8 14 -13 15 -20 4z"/>
<path d="M910 709 c0 -5 5 -7 10 -4 6 3 10 8 10 11 0 2 -4 4 -10 4 -5 0 -10
-5 -10 -11z"/>
<path d="M13 660 c1 -21 12 -26 22 -10 3 6 1 10 -5 10 -6 0 -8 5 -5 10 3 6 2
10 -4 10 -5 0 -9 -9 -8 -20z"/>
<path d="M15 620 c-3 -6 1 -7 9 -4 18 7 21 14 7 14 -6 0 -13 -4 -16 -10z"/>
<path d="M10 591 c0 -6 5 -13 10 -16 6 -3 10 1 10 9 0 9 -4 16 -10 16 -5 0
-10 -4 -10 -9z"/>
<path d="M896 572 c-3 -5 1 -9 9 -9 8 0 12 4 9 9 -3 4 -7 8 -9 8 -2 0 -6 -4
-9 -8z"/>
<path d="M13 540 c1 -21 12 -26 22 -10 3 6 1 10 -5 10 -6 0 -8 5 -5 10 3 6 2
10 -4 10 -5 0 -9 -9 -8 -20z"/>
<path d="M15 500 c-3 -6 1 -7 9 -4 18 7 21 14 7 14 -6 0 -13 -4 -16 -10z"/>
<path d="M895 490 c3 -5 8 -10 11 -10 2 0 4 5 4 10 0 6 -5 10 -11 10 -5 0 -7
-4 -4 -10z"/>
<path d="M10 471 c0 -6 5 -13 10 -16 6 -3 10 1 10 9 0 9 -4 16 -10 16 -5 0
-10 -4 -10 -9z"/>
<path d="M947 443 c-3 -5 -4 -28 -3 -53 1 -25 -2 -50 -6 -56 -5 -7 -3 -14 5
-17 10 -4 13 10 13 64 0 69 -1 75 -9 62z"/>
<path d="M13 420 c1 -21 12 -26 22 -10 3 6 1 10 -5 10 -6 0 -8 5 -5 10 3 6 2
10 -4 10 -5 0 -9 -9 -8 -20z"/>
<path d="M15 380 c-3 -6 1 -7 9 -4 18 7 21 14 7 14 -6 0 -13 -4 -16 -10z"/>
<path d="M10 351 c0 -6 5 -13 10 -16 6 -3 10 1 10 9 0 9 -4 16 -10 16 -5 0
-10 -4 -10 -9z"/>
<path d="M893 319 c-2 -23 3 -25 10 -4 4 8 3 16 -1 19 -4 3 -9 -4 -9 -15z"/>
<path d="M13 300 c1 -21 12 -26 22 -10 3 6 1 10 -5 10 -6 0 -8 5 -5 10 3 6 2
10 -4 10 -5 0 -9 -9 -8 -20z"/>
<path d="M15 260 c-3 -6 1 -7 9 -4 18 7 21 14 7 14 -6 0 -13 -4 -16 -10z"/>
<path d="M10 231 c0 -6 5 -13 10 -16 6 -3 10 1 10 9 0 9 -4 16 -10 16 -5 0
-10 -4 -10 -9z"/>
<path d="M13 180 c1 -21 12 -26 22 -10 3 6 1 10 -5 10 -6 0 -8 5 -5 10 3 6 2
10 -4 10 -5 0 -9 -9 -8 -20z"/>
</g>
</svg>
