<?xml version="1.0" standalone="no"?>
<!DOCTYPE svg PUBLIC "-//W3C//DTD SVG 20010904//EN"
 "http://www.w3.org/TR/2001/REC-SVG-20010904/DTD/svg10.dtd">
<svg version="1.0" xmlns="http://www.w3.org/2000/svg"
 width="178.000000pt" height="86.000000pt" viewBox="0 0 178.000000 86.000000"
 preserveAspectRatio="xMidYMid meet">
<metadata>
Created by potrace 1.12, written by Peter Selinger 2001-2015
</metadata>
<g transform="translate(0.000000,86.000000) scale(0.100000,-0.100000)"
fill="#000000" stroke="none">
<path d="M30 826 c-13 -13 -13 -36 1 -36 5 0 7 -5 3 -11 -8 -13 -10 -736 -2
-744 9 -10 1710 -7 1719 2 5 5 8 183 7 403 l-3 395 -127 0 c-71 0 -128 -3
-128 -7 0 -3 19 -6 43 -6 23 0 68 -1 100 -1 l59 -1 -34 -32 -33 -33 -738 3
-739 2 -32 25 c-44 34 -58 32 -19 -2 31 -27 31 -28 13 -47 -18 -18 -19 -18
-39 15 -11 19 -25 40 -31 47 -6 6 -9 12 -8 13 30 7 80 10 156 11 50 0 92 3 92
7 0 10 -250 7 -260 -3z m1716 -91 c0 -41 -3 -65 -10 -65 -7 0 -7 -3 -1 -8 11
-8 16 -234 5 -227 -4 2 -7 -2 -7 -10 0 -8 4 -12 7 -10 4 3 8 -6 8 -20 0 -14
-5 -22 -11 -18 -6 4 -7 1 -1 -8 12 -21 12 -199 0 -199 -7 0 -8 -3 -1 -8 10 -7
17 -62 8 -62 -2 0 -13 20 -24 44 -10 24 -26 47 -35 50 -9 4 -12 11 -7 18 13
20 12 288 -1 288 -8 0 -8 2 0 8 7 4 11 46 11 111 0 71 3 106 11 109 7 2 12 10
12 17 0 8 8 18 17 24 10 5 14 13 10 18 -8 7 -26 -11 -47 -47 -7 -11 -11 -12
-24 -1 -12 10 -13 16 -3 31 6 11 13 17 15 15 2 -2 14 5 25 16 30 28 41 10 43
-66z m-1653 -17 c7 -4 11 -98 11 -262 1 -223 3 -258 18 -272 14 -14 41 -17
165 -18 81 0 154 -5 162 -10 9 -6 12 -5 8 1 -8 13 186 13 198 1 4 -4 15 -4 24
1 20 10 62 9 79 -2 6 -5 12 -4 12 0 0 5 11 10 26 11 18 1 23 -2 18 -11 -6 -9
-4 -9 7 -1 15 12 63 13 75 1 4 -3 14 -3 23 2 20 10 62 9 79 -2 6 -5 12 -4 12
2 0 11 19 9 39 -3 10 -6 12 -5 7 3 -5 8 4 10 33 8 22 -2 43 -6 47 -10 4 -3 14
-3 23 2 20 10 62 9 79 -2 6 -5 12 -4 12 2 0 11 19 9 39 -3 10 -6 12 -5 7 3 -5
8 4 10 33 8 22 -2 43 -6 47 -10 4 -3 14 -3 23 2 20 10 62 9 79 -2 6 -5 12 -4
12 0 0 5 11 10 26 11 18 1 23 -2 18 -11 -6 -9 -4 -9 7 -1 23 19 109 2 109 -21
0 -6 13 -23 29 -37 16 -15 31 -32 33 -40 3 -7 9 -10 13 -6 4 4 -11 28 -34 53
-44 48 -47 55 -29 73 13 13 38 -2 38 -23 0 -7 11 -29 25 -50 19 -27 23 -41 15
-50 -8 -9 -187 -12 -840 -12 -917 0 -841 -6 -778 61 16 17 28 37 28 45 -1 13
-4 12 -15 -4 -38 -52 -79 -94 -88 -88 -5 3 -5 8 0 12 13 8 54 121 45 121 -8 0
-37 -70 -34 -82 1 -3 -4 -8 -11 -11 -9 -3 -12 68 -10 317 1 176 4 330 7 341 2
11 5 22 6 25 0 3 8 -8 17 -25 9 -16 21 -33 26 -37z m1524 23 c37 -2 52 -26 49
-84 -1 -28 1 -62 6 -74 4 -12 4 -24 0 -27 -9 -5 -7 -209 2 -224 3 -6 2 -13 -3
-16 -10 -7 -9 -25 2 -43 4 -6 3 -14 -2 -17 -4 -3 -8 -17 -8 -32 0 -14 -5 -29
-12 -33 -6 -4 -345 -7 -754 -6 -599 0 -747 3 -760 13 -14 12 -16 48 -17 260
-1 265 1 278 50 284 21 2 1380 2 1447 -1z"/>
<path d="M855 131 c-3 -5 -2 -12 3 -15 5 -3 9 1 9 9 0 17 -3 19 -12 6z"/>
<path d="M1333 125 c0 -8 4 -12 9 -9 5 3 6 10 3 15 -9 13 -12 11 -12 -6z"/>
<path d="M1595 129 c-4 -6 -5 -12 -2 -15 2 -3 7 2 10 11 7 17 1 20 -8 4z"/>
<path d="M693 109 c-2 -23 3 -25 10 -4 4 8 3 16 -1 19 -4 3 -9 -4 -9 -15z"/>
<path d="M1110 119 c0 -5 5 -7 10 -4 6 3 10 8 10 11 0 2 -4 4 -10 4 -5 0 -10
-5 -10 -11z"/>
<path d="M1173 109 c-2 -23 3 -25 10 -4 4 8 3 16 -1 19 -4 3 -9 -4 -9 -15z"/>
<path d="M1057 95 c-4 -8 -3 -16 1 -19 4 -3 9 4 9 15 2 23 -3 25 -10 4z"/>
<path d="M1537 95 c-4 -8 -3 -16 1 -19 4 -3 9 4 9 15 2 23 -3 25 -10 4z"/>
<path d="M354 82 c4 -3 14 -7 22 -8 9 -1 13 0 10 4 -4 3 -14 7 -22 8 -9 1 -13
0 -10 -4z"/>
<path d="M514 82 c4 -3 14 -7 22 -8 9 -1 13 0 10 4 -4 3 -14 7 -22 8 -9 1 -13
0 -10 -4z"/>
<path d="M636 73 c-6 -14 -5 -15 5 -6 7 7 10 15 7 18 -3 3 -9 -2 -12 -12z"/>
<path d="M935 79 c-3 -4 2 -6 10 -5 21 3 28 13 10 13 -9 0 -18 -4 -20 -8z"/>
<path d="M1115 80 c-3 -5 -1 -10 4 -10 6 0 11 5 11 10 0 6 -2 10 -4 10 -3 0
-8 -4 -11 -10z"/>
<path d="M1296 78 c3 -4 11 -5 19 -1 21 7 19 12 -4 10 -11 0 -18 -5 -15 -9z"/>
<path d="M251 651 c-25 -23 -31 -37 -31 -68 0 -45 16 -64 75 -89 81 -33 102
-78 53 -115 -26 -20 -60 -11 -94 26 -31 34 -56 24 -42 -16 25 -72 135 -88 190
-29 22 23 26 87 8 117 -8 12 -40 33 -71 47 -62 27 -79 47 -71 78 11 43 83 41
97 -3 8 -23 45 -12 45 12 0 30 -46 65 -89 67 -30 2 -45 -3 -70 -27z"/>
<path d="M765 669 c-9 -13 -9 -328 -1 -337 4 -3 13 -7 21 -8 13 -2 15 25 15
177 0 149 -2 179 -14 179 -8 0 -18 -5 -21 -11z"/>
<path d="M1459 667 c-9 -7 -16 -25 -15 -45 1 -26 -4 -34 -21 -39 -28 -7 -30
-33 -3 -40 11 -3 20 -13 21 -22 0 -9 1 -53 1 -98 1 -65 4 -83 17 -89 27 -12
70 -11 75 2 6 15 -19 38 -33 30 -13 -9 -17 11 -16 94 0 70 1 75 23 78 12 2 27
12 32 23 9 16 7 19 -12 19 -35 0 -46 12 -43 47 3 41 -6 55 -26 40z"/>
<path d="M515 572 c-11 -2 -30 -16 -42 -31 -44 -50 -42 -135 2 -184 26 -28 30
-29 65 -29 50 0 62 4 85 27 14 13 25 31 25 38 0 26 -29 27 -52 3 -13 -13 -30
-26 -39 -29 -21 -7 -56 23 -64 56 l-7 27 82 0 83 0 -6 37 c-11 62 -69 101
-132 85z m70 -56 c8 -7 11 -16 8 -20 -9 -9 -93 -7 -93 2 0 30 61 43 85 18z"/>
<path d="M975 570 c-35 -14 -58 -49 -65 -101 -7 -53 2 -80 38 -119 46 -49 158
-18 168 47 4 23 -34 21 -55 -3 -36 -42 -90 -25 -104 34 -5 21 -3 22 78 22 l84
0 -5 28 c-8 49 -14 60 -40 77 -30 19 -71 26 -99 15z m75 -59 c8 -16 6 -20 -13
-23 -12 -2 -34 -1 -49 1 -24 3 -26 6 -17 22 13 26 65 25 79 0z"/>
<path d="M1204 570 c-60 -24 -88 -134 -49 -193 33 -50 82 -64 142 -38 34 14
62 66 40 74 -21 7 -45 -4 -50 -24 -7 -27 -58 -25 -83 2 -26 28 -25 106 1 126
31 22 74 17 87 -12 6 -14 19 -25 29 -25 29 0 30 29 1 60 -29 31 -81 44 -118
30z"/>
<path d="M300 829 c0 -4 25 -6 55 -6 30 0 55 2 55 6 0 3 -25 6 -55 6 -30 0
-55 -3 -55 -6z"/>
<path d="M420 829 c0 -4 25 -6 55 -6 30 0 55 2 55 6 0 3 -25 6 -55 6 -30 0
-55 -3 -55 -6z"/>
<path d="M540 829 c0 -4 25 -6 55 -6 30 0 55 2 55 6 0 3 -25 6 -55 6 -30 0
-55 -3 -55 -6z"/>
<path d="M660 829 c0 -4 25 -6 55 -6 30 0 55 2 55 6 0 3 -25 6 -55 6 -30 0
-55 -3 -55 -6z"/>
<path d="M780 829 c0 -4 25 -6 55 -6 30 0 55 2 55 6 0 3 -25 6 -55 6 -30 0
-55 -3 -55 -6z"/>
<path d="M900 829 c0 -4 25 -6 55 -6 30 0 55 2 55 6 0 3 -25 6 -55 6 -30 0
-55 -3 -55 -6z"/>
<path d="M1020 829 c0 -4 25 -6 55 -6 30 0 55 2 55 6 0 3 -25 6 -55 6 -30 0
-55 -3 -55 -6z"/>
<path d="M1140 829 c0 -4 25 -6 55 -6 30 0 55 2 55 6 0 3 -25 6 -55 6 -30 0
-55 -3 -55 -6z"/>
<path d="M1260 829 c0 -4 25 -6 55 -6 30 0 55 2 55 6 0 3 -25 6 -55 6 -30 0
-55 -3 -55 -6z"/>
<path d="M1380 829 c0 -4 25 -6 55 -6 30 0 55 2 55 6 0 3 -25 6 -55 6 -30 0
-55 -3 -55 -6z"/>
</g>
</svg>
