<?xml version="1.0" standalone="no"?>
<!DOCTYPE svg PUBLIC "-//W3C//DTD SVG 20010904//EN"
 "http://www.w3.org/TR/2001/REC-SVG-20010904/DTD/svg10.dtd">
<svg version="1.0" xmlns="http://www.w3.org/2000/svg"
 width="153.000000pt" height="83.000000pt" viewBox="0 0 153.000000 83.000000"
 preserveAspectRatio="xMidYMid meet">
<metadata>
Created by potrace 1.12, written by Peter Selinger 2001-2015
</metadata>
<g transform="translate(0.000000,83.000000) scale(0.100000,-0.100000)"
fill="#000000" stroke="none">
<path d="M38 823 c-21 -5 -20 0 -22 -91 -1 -40 2 -76 6 -78 4 -3 7 19 5 49 -4
63 12 72 37 20 9 -18 19 -33 23 -33 5 0 8 -114 7 -253 0 -238 1 -253 19 -270
17 -15 42 -17 174 -17 121 0 153 -3 147 -12 -6 -10 -5 -10 7 -1 22 18 403 17
392 0 -5 -9 -3 -9 8 0 11 9 89 12 280 12 l264 0 25 -37 c14 -20 33 -44 42 -54
10 -10 15 -24 12 -33 -4 -10 0 -15 12 -15 46 1 46 -5 46 406 -1 355 -2 389
-18 401 -20 15 -41 6 -25 -10 16 -16 14 -31 -8 -56 -11 -13 -22 -28 -23 -33
-3 -7 -15 -4 -32 7 -27 18 -64 19 -645 20 -555 0 -619 2 -647 17 -17 9 -36 23
-42 31 -10 12 -4 14 39 13 28 -1 53 2 56 7 3 6 -10 8 -31 5 -20 -2 -36 0 -36
6 0 6 -5 5 -12 -2 -6 -6 -18 -8 -27 -3 -9 4 -24 6 -33 4z m45 -45 c45 -32 48
-40 25 -60 -23 -20 -32 -23 -23 -8 3 6 1 10 -4 10 -6 0 -11 6 -11 13 0 7 -9
23 -20 35 -37 39 -17 45 33 10z m1427 -49 c0 -29 -3 -38 -12 -33 -10 6 -10 4
-2 -7 15 -20 16 -61 1 -52 -9 5 -9 3 -1 -8 16 -20 17 -262 1 -252 -7 4 -6 0 2
-10 11 -14 11 -20 0 -34 -8 -9 -9 -14 -2 -10 8 5 11 -19 11 -93 -1 -70 -4 -98
-12 -93 -6 3 -5 0 2 -8 6 -7 12 -22 11 -33 0 -20 -1 -20 -11 1 -6 13 -15 23
-21 23 -5 0 -6 7 -3 16 3 8 2 12 -4 9 -6 -3 -10 3 -10 15 0 12 -4 18 -10 15
-10 -6 18 -75 32 -75 4 0 8 -9 8 -20 0 -11 5 -20 10 -20 6 0 5 -8 -2 -20 -7
-11 -17 -20 -22 -20 -4 0 -3 6 3 14 7 8 8 15 2 18 -5 1 -25 23 -45 48 l-35 45
21 22 c18 19 21 35 22 115 0 51 5 99 10 107 6 9 5 12 -1 8 -7 -4 -10 46 -9
149 1 117 4 157 14 163 8 5 14 12 15 17 1 9 29 44 34 44 2 0 3 -18 3 -41z
m-98 -17 c20 -20 18 -514 -2 -533 -13 -12 -116 -14 -644 -14 -596 1 -629 2
-642 19 -10 14 -13 75 -12 267 0 230 2 250 18 262 27 19 1263 18 1282 -1z"/>
<path d="M1475 270 c3 -5 8 -10 11 -10 2 0 4 5 4 10 0 6 -5 10 -11 10 -5 0 -7
-4 -4 -10z"/>
<path d="M248 637 c-37 -31 -47 -56 -36 -94 8 -30 53 -73 76 -73 20 0 71 -35
75 -52 9 -32 -16 -63 -53 -66 -29 -3 -39 2 -61 30 -30 36 -54 30 -47 -12 5
-36 49 -63 102 -62 56 1 93 25 104 66 17 63 -16 113 -91 136 -63 19 -84 80
-33 99 29 11 52 3 66 -24 14 -26 50 -23 50 4 0 21 -9 33 -40 54 -34 23 -80 21
-112 -6z"/>
<path d="M518 646 c-9 -7 -18 -28 -20 -47 -2 -25 -8 -34 -20 -33 -26 2 -23
-36 2 -43 18 -5 20 -14 20 -95 0 -105 8 -125 47 -123 55 2 66 27 19 45 -20 7
-22 14 -21 84 1 80 3 86 32 90 29 4 23 41 -7 41 -22 0 -24 4 -25 42 -1 50 -5
55 -27 39z"/>
<path d="M1213 645 c-7 -8 -13 -28 -13 -44 0 -24 -5 -32 -25 -37 -31 -8 -32
-19 -1 -39 22 -15 24 -22 24 -106 -1 -50 3 -94 8 -99 12 -12 59 -20 70 -12 18
14 13 32 -11 38 -23 6 -24 9 -23 90 1 80 2 84 23 84 24 0 38 20 27 36 -4 5
-16 9 -28 8 -17 -1 -21 5 -23 40 -2 48 -11 60 -28 41z"/>
<path d="M742 550 c-29 -7 -61 -33 -62 -51 -1 -17 41 -15 56 3 21 23 67 21 72
-4 2 -12 -11 -21 -48 -33 -56 -19 -89 -57 -84 -97 1 -13 3 -26 3 -30 1 -11 42
-31 66 -33 11 0 30 2 43 7 13 4 31 4 41 -1 30 -17 36 2 33 99 -4 130 -30 159
-120 140z m69 -120 c1 -5 2 -16 3 -22 6 -38 -43 -74 -76 -56 -44 22 -3 76 65
87 4 0 8 -3 8 -9z"/>
<path d="M937 554 c-4 -4 -7 -60 -7 -125 0 -88 3 -118 13 -122 26 -10 34 8 35
82 2 82 14 106 62 116 31 7 43 25 29 46 -7 12 -15 12 -53 -2 -27 -10 -44 -12
-43 -6 2 13 -26 21 -36 11z"/>
<path d="M210 814 c0 -8 5 -12 10 -9 6 4 8 11 5 16 -9 14 -15 11 -15 -7z"/>
<path d="M240 820 c0 -5 5 -10 11 -10 5 0 7 5 4 10 -3 6 -8 10 -11 10 -2 0 -4
-4 -4 -10z"/>
<path d="M277 823 c-4 -3 -7 -11 -7 -17 0 -6 5 -5 12 2 6 6 9 14 7 17 -3 3 -9
2 -12 -2z"/>
<path d="M311 814 c0 -11 3 -14 6 -6 3 7 2 16 -1 19 -3 4 -6 -2 -5 -13z"/>
<path d="M330 814 c0 -8 5 -12 10 -9 6 4 8 11 5 16 -9 14 -15 11 -15 -7z"/>
<path d="M360 820 c0 -5 5 -10 11 -10 5 0 7 5 4 10 -3 6 -8 10 -11 10 -2 0 -4
-4 -4 -10z"/>
<path d="M397 823 c-4 -3 -7 -11 -7 -17 0 -6 5 -5 12 2 6 6 9 14 7 17 -3 3 -9
2 -12 -2z"/>
<path d="M431 814 c0 -11 3 -14 6 -6 3 7 2 16 -1 19 -3 4 -6 -2 -5 -13z"/>
<path d="M450 814 c0 -8 5 -12 10 -9 6 4 8 11 5 16 -9 14 -15 11 -15 -7z"/>
<path d="M480 820 c0 -5 5 -10 11 -10 5 0 7 5 4 10 -3 6 -8 10 -11 10 -2 0 -4
-4 -4 -10z"/>
<path d="M517 823 c-4 -3 -7 -11 -7 -17 0 -6 5 -5 12 2 6 6 9 14 7 17 -3 3 -9
2 -12 -2z"/>
<path d="M551 814 c0 -11 3 -14 6 -6 3 7 2 16 -1 19 -3 4 -6 -2 -5 -13z"/>
<path d="M570 814 c0 -8 5 -12 10 -9 6 4 8 11 5 16 -9 14 -15 11 -15 -7z"/>
<path d="M600 820 c0 -5 5 -10 11 -10 5 0 7 5 4 10 -3 6 -8 10 -11 10 -2 0 -4
-4 -4 -10z"/>
<path d="M637 823 c-4 -3 -7 -11 -7 -17 0 -6 5 -5 12 2 6 6 9 14 7 17 -3 3 -9
2 -12 -2z"/>
<path d="M671 814 c0 -11 3 -14 6 -6 3 7 2 16 -1 19 -3 4 -6 -2 -5 -13z"/>
<path d="M690 814 c0 -8 5 -12 10 -9 6 4 8 11 5 16 -9 14 -15 11 -15 -7z"/>
<path d="M720 820 c0 -5 5 -10 11 -10 5 0 7 5 4 10 -3 6 -8 10 -11 10 -2 0 -4
-4 -4 -10z"/>
<path d="M757 823 c-4 -3 -7 -11 -7 -17 0 -6 5 -5 12 2 6 6 9 14 7 17 -3 3 -9
2 -12 -2z"/>
<path d="M791 814 c0 -11 3 -14 6 -6 3 7 2 16 -1 19 -3 4 -6 -2 -5 -13z"/>
<path d="M810 814 c0 -8 5 -12 10 -9 6 4 8 11 5 16 -9 14 -15 11 -15 -7z"/>
<path d="M840 820 c0 -5 5 -10 11 -10 5 0 7 5 4 10 -3 6 -8 10 -11 10 -2 0 -4
-4 -4 -10z"/>
<path d="M877 823 c-4 -3 -7 -11 -7 -17 0 -6 5 -5 12 2 6 6 9 14 7 17 -3 3 -9
2 -12 -2z"/>
<path d="M911 814 c0 -11 3 -14 6 -6 3 7 2 16 -1 19 -3 4 -6 -2 -5 -13z"/>
<path d="M930 814 c0 -8 5 -12 10 -9 6 4 8 11 5 16 -9 14 -15 11 -15 -7z"/>
<path d="M960 820 c0 -5 5 -10 11 -10 5 0 7 5 4 10 -3 6 -8 10 -11 10 -2 0 -4
-4 -4 -10z"/>
<path d="M997 823 c-4 -3 -7 -11 -7 -17 0 -6 5 -5 12 2 6 6 9 14 7 17 -3 3 -9
2 -12 -2z"/>
<path d="M1031 814 c0 -11 3 -14 6 -6 3 7 2 16 -1 19 -3 4 -6 -2 -5 -13z"/>
<path d="M1050 814 c0 -8 5 -12 10 -9 6 4 8 11 5 16 -9 14 -15 11 -15 -7z"/>
<path d="M1080 820 c0 -5 5 -10 11 -10 5 0 7 5 4 10 -3 6 -8 10 -11 10 -2 0
-4 -4 -4 -10z"/>
<path d="M1117 823 c-4 -3 -7 -11 -7 -17 0 -6 5 -5 12 2 6 6 9 14 7 17 -3 3
-9 2 -12 -2z"/>
<path d="M1151 814 c0 -11 3 -14 6 -6 3 7 2 16 -1 19 -3 4 -6 -2 -5 -13z"/>
<path d="M1170 814 c0 -8 5 -12 10 -9 6 4 8 11 5 16 -9 14 -15 11 -15 -7z"/>
<path d="M1200 820 c0 -5 5 -10 11 -10 5 0 7 5 4 10 -3 6 -8 10 -11 10 -2 0
-4 -4 -4 -10z"/>
<path d="M1237 823 c-4 -3 -7 -11 -7 -17 0 -6 5 -5 12 2 6 6 9 14 7 17 -3 3
-9 2 -12 -2z"/>
<path d="M1271 814 c0 -11 3 -14 6 -6 3 7 2 16 -1 19 -3 4 -6 -2 -5 -13z"/>
<path d="M1290 814 c0 -8 5 -12 10 -9 6 4 8 11 5 16 -9 14 -15 11 -15 -7z"/>
<path d="M1320 820 c0 -5 4 -10 9 -10 5 0 16 -3 25 -6 10 -4 16 -1 16 7 0 7
-3 9 -6 6 -4 -3 -15 -2 -25 4 -13 6 -19 6 -19 -1z"/>
<path d="M1385 810 c3 -5 8 -10 11 -10 2 0 4 5 4 10 0 6 -5 10 -11 10 -5 0 -7
-4 -4 -10z"/>
<path d="M1410 809 c0 -5 6 -9 13 -8 31 4 37 -1 20 -19 -10 -11 -21 -17 -24
-15 -4 1 -9 -4 -13 -12 -8 -21 10 -19 26 3 7 10 21 21 32 25 13 5 15 11 8 20
-13 15 -62 21 -62 6z"/>
<path d="M14 591 c1 -28 4 -53 8 -56 4 -4 6 18 6 49 -1 31 -4 56 -8 56 -4 0
-6 -22 -6 -49z"/>
<path d="M14 471 c1 -28 4 -53 8 -56 4 -4 6 18 6 49 -1 31 -4 56 -8 56 -4 0
-6 -22 -6 -49z"/>
<path d="M14 351 c1 -28 4 -53 8 -56 4 -4 6 18 6 49 -1 31 -4 56 -8 56 -4 0
-6 -22 -6 -49z"/>
<path d="M14 231 c1 -28 4 -53 8 -56 4 -4 6 18 6 49 -1 31 -4 56 -8 56 -4 0
-6 -22 -6 -49z"/>
<path d="M72 158 c-7 -7 -12 -19 -12 -28 0 -9 -8 -24 -19 -34 -18 -16 -18 -15
-15 24 1 22 -1 40 -5 40 -10 0 -8 -71 2 -87 4 -6 2 -13 -4 -15 -9 -3 -9 -9 0
-25 11 -21 15 -22 308 -21 184 0 303 4 311 10 8 7 12 7 12 -1 0 -6 11 -11 25
-11 22 0 24 2 13 14 -8 8 -15 10 -19 4 -4 -7 -9 -6 -13 1 -4 6 -13 8 -19 4
-20 -12 -147 -12 -147 0 0 8 -4 7 -11 0 -14 -14 -42 -5 -32 10 3 6 1 7 -6 3
-6 -4 -9 -12 -6 -17 4 -5 -3 -9 -15 -9 -12 0 -19 4 -15 9 3 5 0 13 -6 17 -8 4
-9 3 -5 -4 8 -14 8 -14 -69 -18 -33 -1 -66 2 -72 8 -9 7 -13 7 -13 -1 0 -6 -7
-11 -16 -11 -9 0 -12 5 -8 12 5 7 3 8 -7 2 -24 -14 -51 -16 -43 -2 6 10 4 11
-7 1 -16 -16 -75 -17 -84 -2 -4 5 4 20 18 33 28 26 51 65 43 73 -3 3 -9 -2
-13 -12 -3 -11 -22 -32 -40 -48 -18 -16 -30 -33 -27 -38 3 -5 0 -9 -5 -9 -17
0 -13 26 14 82 26 53 28 67 7 46z"/>
<path d="M559 103 c-13 -16 -12 -17 4 -4 9 7 17 15 17 17 0 8 -8 3 -21 -13z"/>
<path d="M144 72 c4 -3 14 -7 22 -8 9 -1 13 0 10 4 -4 3 -14 7 -22 8 -9 1 -13
0 -10 -4z"/>
<path d="M650 76 c0 -2 7 -7 16 -10 8 -3 12 -2 9 4 -6 10 -25 14 -25 6z"/>
<path d="M1130 76 c0 -2 7 -7 16 -10 8 -3 12 -2 9 4 -6 10 -25 14 -25 6z"/>
<path d="M587 49 c7 -7 15 -10 18 -7 3 3 -2 9 -12 12 -14 6 -15 5 -6 -5z"/>
<path d="M700 50 c-9 -6 -10 -10 -3 -10 6 0 15 5 18 10 8 12 4 12 -15 0z"/>
<path d="M946 48 c3 -5 10 -6 15 -3 13 9 11 12 -6 12 -8 0 -12 -4 -9 -9z"/>
<path d="M1180 50 c-9 -6 -10 -10 -3 -10 6 0 15 5 18 10 8 12 4 12 -15 0z"/>
<path d="M1295 50 c-3 -5 -1 -10 4 -10 6 0 11 5 11 10 0 6 -2 10 -4 10 -3 0
-8 -4 -11 -10z"/>
<path d="M911 36 c-12 -14 -85 -21 -77 -7 3 4 -4 7 -14 7 -10 0 -16 -4 -14 -8
3 -4 1 -8 -5 -8 -5 0 -12 6 -14 13 -4 9 -6 8 -6 -2 -1 -11 -4 -11 -18 0 -12
10 -15 11 -9 1 6 -9 1 -11 -18 -8 -14 3 -26 1 -26 -4 0 -4 97 -8 216 -8 175 0
212 2 193 12 -13 7 -25 8 -27 4 -6 -13 -42 -9 -42 5 0 8 -2 9 -8 1 -11 -17
-124 -14 -118 3 7 17 1 17 -13 -1z"/>
<path d="M1150 27 c0 -11 13 -15 50 -14 47 0 62 8 41 22 -5 3 -12 1 -15 -3 -6
-11 -46 -10 -63 1 -8 5 -13 3 -13 -6z"/>
<path d="M1260 28 c0 -14 10 -16 62 -16 35 1 54 4 43 8 -11 4 -35 6 -55 4 -19
-1 -38 3 -42 9 -5 8 -8 7 -8 -5z"/>
<path d="M1410 32 c0 -7 -4 -10 -10 -7 -5 3 -10 1 -10 -4 0 -6 14 -11 30 -11
17 0 30 5 30 11 0 5 -5 7 -11 3 -6 -3 -15 0 -20 7 -7 11 -9 11 -9 1z"/>
</g>
</svg>
