<?xml version="1.0" standalone="no"?>
<!DOCTYPE svg PUBLIC "-//W3C//DTD SVG 20010904//EN"
 "http://www.w3.org/TR/2001/REC-SVG-20010904/DTD/svg10.dtd">
<svg version="1.0" xmlns="http://www.w3.org/2000/svg"
 width="84.000000pt" height="83.000000pt" viewBox="0 0 84.000000 83.000000"
 preserveAspectRatio="xMidYMid meet">
<metadata>
Created by potrace 1.12, written by Peter Selinger 2001-2015
</metadata>
<g transform="translate(0.000000,83.000000) scale(0.100000,-0.100000)"
fill="#000000" stroke="none">
<path d="M21 805 c-10 -13 -8 -101 2 -111 4 -4 7 9 7 29 0 45 11 47 28 7 8
-16 19 -30 25 -30 9 0 12 -68 12 -257 0 -142 -3 -260 -6 -263 -4 -3 -18 -27
-32 -55 l-26 -50 -1 38 c0 20 -3 37 -8 37 -9 0 -10 -126 0 -135 8 -9 761 -9
786 0 15 4 18 17 18 75 -1 39 -4 70 -8 70 -5 0 -8 -19 -8 -42 l-1 -43 -23 45
c-13 25 -22 50 -19 55 3 6 1 5 -6 -1 -9 -9 -8 -20 6 -50 9 -21 24 -47 32 -57
13 -16 13 -20 -4 -35 -10 -9 -15 -11 -11 -4 5 7 -4 26 -21 46 -66 77 -63 73
-38 84 24 11 38 60 23 85 -5 10 -2 17 8 21 12 5 13 10 5 19 -15 19 -13 159 2
150 7 -4 7 0 -1 9 -8 10 -12 37 -11 65 1 27 -1 54 -4 60 -4 6 0 14 9 17 12 5
14 9 5 20 -25 30 2 147 31 130 4 -3 5 2 2 10 -4 11 0 16 14 16 14 0 20 7 20
25 0 14 -3 26 -7 26 -26 6 -153 3 -157 -3 -3 -4 21 -8 53 -8 l58 0 -32 -21
c-18 -12 -33 -24 -33 -29 0 -4 -125 -8 -278 -9 l-277 -1 -45 30 -45 30 60 0
c33 1 165 0 293 0 127 0 232 3 232 7 0 12 -620 10 -629 -2z m94 -82 c-26 -19
-30 -17 -51 22 -10 19 -22 35 -27 35 -4 0 -5 5 -2 10 4 6 25 -3 52 -21 43 -30
45 -33 28 -46z m677 49 c-10 -10 -26 -29 -35 -43 -15 -20 -19 -22 -27 -9 -15
23 -13 28 28 54 41 26 61 25 34 -2z m-110 -52 c9 0 24 -7 33 -16 13 -14 15
-50 15 -270 -1 -184 -5 -256 -13 -261 -7 -4 -138 -8 -292 -8 -226 -1 -283 1
-297 12 -14 13 -16 44 -17 256 -1 259 3 282 51 289 17 2 373 1 520 -2z m-558
-564 c15 -7 43 -13 62 -11 19 1 34 -3 34 -9 0 -7 3 -7 8 -1 11 15 464 13 458
-2 -3 -7 1 -10 10 -6 7 3 14 0 14 -6 0 -5 14 -26 30 -44 16 -19 30 -39 30 -45
0 -11 -51 -9 -70 3 -5 3 -10 0 -10 -7 0 -9 -3 -9 -10 2 -5 8 -10 10 -10 4 0
-13 -90 -13 -90 1 0 6 -3 6 -8 -1 -9 -13 -64 -13 -74 1 -5 6 -8 5 -8 -2 0 -14
-26 -13 -49 1 -9 6 -12 5 -8 -1 4 -7 -3 -10 -18 -9 -14 0 -25 5 -25 10 0 5 -6
4 -12 -1 -14 -11 -107 -11 -125 0 -7 4 -14 3 -17 -2 -7 -11 -56 -11 -56 1 0 5
-10 4 -21 -3 -17 -9 -20 -8 -14 2 6 8 4 10 -6 3 -21 -13 -39 -14 -39 -1 0 7
-4 6 -10 -3 -12 -19 -25 -6 -13 13 4 9 23 31 40 51 18 19 29 37 24 40 -5 3
-28 -19 -51 -49 -47 -61 -55 -66 -46 -32 6 27 45 117 50 117 2 0 16 -6 30 -14z"/>
<path d="M410 668 c-27 -52 -51 -76 -91 -90 -16 -6 -28 -15 -26 -22 6 -16 56
-8 88 15 15 10 30 19 33 19 3 0 5 -84 5 -186 -1 -176 5 -223 28 -200 4 4 7 94
7 200 l0 194 31 -23 c32 -25 86 -37 91 -20 2 6 -18 22 -45 37 -36 20 -53 38
-70 72 -11 25 -23 46 -25 46 -2 0 -14 -19 -26 -42z"/>
<path d="M553 115 c0 -8 4 -12 9 -9 5 3 6 10 3 15 -9 13 -12 11 -12 -6z"/>
<path d="M515 111 c-3 -5 -2 -12 3 -15 5 -3 9 1 9 9 0 17 -3 19 -12 6z"/>
<path d="M595 111 c-3 -5 -2 -12 3 -15 5 -3 9 1 9 9 0 17 -3 19 -12 6z"/>
<path d="M453 85 c0 -8 4 -12 9 -9 5 3 6 10 3 15 -9 13 -12 11 -12 -6z"/>
<path d="M695 90 c-3 -5 -1 -10 4 -10 6 0 11 5 11 10 0 6 -2 10 -4 10 -3 0 -8
-4 -11 -10z"/>
<path d="M534 66 c1 -8 5 -18 8 -22 4 -3 5 1 4 10 -1 8 -5 18 -8 22 -4 3 -5
-1 -4 -10z"/>
<path d="M614 66 c1 -8 5 -18 8 -22 4 -3 5 1 4 10 -1 8 -5 18 -8 22 -4 3 -5
-1 -4 -10z"/>
<path d="M275 49 c-3 -4 2 -6 10 -5 21 3 28 13 10 13 -9 0 -18 -4 -20 -8z"/>
<path d="M346 52 c-3 -5 1 -9 9 -9 8 0 12 4 9 9 -3 4 -7 8 -9 8 -2 0 -6 -4 -9
-8z"/>
<path d="M456 52 c-3 -5 1 -9 9 -9 8 0 12 4 9 9 -3 4 -7 8 -9 8 -2 0 -6 -4 -9
-8z"/>
<path d="M811 460 c0 -159 3 -290 7 -290 4 0 7 131 7 290 0 160 -3 290 -7 290
-4 0 -7 -130 -7 -290z"/>
<path d="M776 692 c-3 -5 1 -9 9 -9 8 0 12 4 9 9 -3 4 -7 8 -9 8 -2 0 -6 -4
-9 -8z"/>
<path d="M13 660 c1 -11 7 -20 13 -20 7 0 10 8 7 20 -3 11 -9 20 -14 20 -4 0
-7 -9 -6 -20z"/>
<path d="M17 623 c-7 -13 -2 -61 7 -70 5 -4 6 9 3 29 -4 24 -1 39 6 42 9 3 9
5 0 5 -6 1 -14 -2 -16 -6z"/>
<path d="M10 530 c0 -5 4 -10 9 -10 6 0 13 5 16 10 3 6 -1 10 -9 10 -9 0 -16
-4 -16 -10z"/>
<path d="M17 503 c-7 -13 -2 -61 7 -70 5 -4 6 9 3 29 -4 24 -1 39 6 42 9 3 9
5 0 5 -6 1 -14 -2 -16 -6z"/>
<path d="M10 410 c0 -5 4 -10 9 -10 6 0 13 5 16 10 3 6 -1 10 -9 10 -9 0 -16
-4 -16 -10z"/>
<path d="M773 405 c0 -8 4 -12 9 -9 5 3 6 10 3 15 -9 13 -12 11 -12 -6z"/>
<path d="M17 383 c-7 -13 -2 -61 7 -70 5 -4 6 9 3 29 -4 24 -1 39 6 42 9 3 9
5 0 5 -6 1 -14 -2 -16 -6z"/>
<path d="M776 372 c-3 -5 1 -9 9 -9 8 0 12 4 9 9 -3 4 -7 8 -9 8 -2 0 -6 -4
-9 -8z"/>
<path d="M10 290 c0 -5 4 -10 9 -10 6 0 13 5 16 10 3 6 -1 10 -9 10 -9 0 -16
-4 -16 -10z"/>
<path d="M17 263 c-7 -13 -2 -61 7 -70 5 -4 6 9 3 29 -4 24 -1 39 6 42 9 3 9
5 0 5 -6 1 -14 -2 -16 -6z"/>
<path d="M10 170 c0 -5 4 -10 9 -10 6 0 13 5 16 10 3 6 -1 10 -9 10 -9 0 -16
-4 -16 -10z"/>
</g>
</svg>
