%FSLAX42Y42*%
%MOMM*%
G71*
G01*
G75*
G04 Layer_Physical_Order=2*
G04 Layer_Color=16711680*
%ADD10O,1.40X0.45*%
%ADD11R,0.40X0.80*%
%ADD12R,1.00X0.90*%
%ADD13R,0.90X1.00*%
%ADD14R,0.80X0.40*%
%ADD15O,1.90X0.60*%
%ADD16R,0.90X2.25*%
%ADD17R,3.25X2.25*%
%ADD18C,0.25*%
%ADD19C,0.40*%
%ADD20C,0.30*%
%ADD21C,0.80*%
%ADD22C,0.50*%
%ADD23C,0.10*%
%ADD24C,0.05*%
%ADD25C,0.15*%
%ADD26C,1.50*%
%ADD27C,5.00*%
%ADD28C,2.00*%
%ADD29C,1.27*%
%ADD30C,6.00*%
G36*
X13673Y9795D02*
X13675Y9787D01*
X13649Y9746D01*
X13630Y9699D01*
X13618Y9650D01*
X13614Y9600D01*
X13618Y9550D01*
X13630Y9501D01*
X13649Y9454D01*
X13676Y9411D01*
X13708Y9373D01*
X13747Y9340D01*
X13790Y9314D01*
X13836Y9295D01*
X13885Y9283D01*
X13935Y9279D01*
X13986Y9283D01*
X14035Y9295D01*
X14081Y9314D01*
X14124Y9340D01*
X14162Y9373D01*
X14195Y9411D01*
X14221Y9454D01*
X14223Y9458D01*
X14235Y9456D01*
Y544D01*
X14223Y542D01*
X14221Y546D01*
X14195Y589D01*
X14162Y627D01*
X14124Y660D01*
X14081Y686D01*
X14035Y705D01*
X13986Y717D01*
X13935Y721D01*
X13885Y717D01*
X13836Y705D01*
X13790Y686D01*
X13747Y660D01*
X13708Y627D01*
X13676Y589D01*
X13649Y546D01*
X13631Y500D01*
X4134D01*
X4133Y513D01*
X4139Y514D01*
X4179Y531D01*
X4216Y553D01*
X4249Y582D01*
X4277Y615D01*
X4300Y652D01*
X4317Y692D01*
X4327Y734D01*
X4329Y764D01*
X3779D01*
X3781Y734D01*
X3791Y692D01*
X3808Y652D01*
X3830Y615D01*
X3859Y582D01*
X3891Y553D01*
X3928Y531D01*
X3968Y514D01*
X3975Y513D01*
X3973Y500D01*
X840D01*
X821Y546D01*
X795Y589D01*
X762Y627D01*
X724Y660D01*
X681Y686D01*
X635Y705D01*
X586Y717D01*
X535Y721D01*
X485Y717D01*
X436Y705D01*
X390Y686D01*
X347Y660D01*
X308Y627D01*
X276Y589D01*
X249Y546D01*
X248Y542D01*
X235Y544D01*
Y9456D01*
X248Y9458D01*
X249Y9454D01*
X276Y9411D01*
X308Y9373D01*
X347Y9340D01*
X390Y9314D01*
X436Y9295D01*
X485Y9283D01*
X535Y9279D01*
X586Y9283D01*
X635Y9295D01*
X681Y9314D01*
X724Y9340D01*
X762Y9373D01*
X795Y9411D01*
X821Y9454D01*
X841Y9501D01*
X852Y9550D01*
X856Y9600D01*
X852Y9650D01*
X841Y9699D01*
X821Y9746D01*
X796Y9787D01*
X798Y9795D01*
X800Y9800D01*
X13671D01*
X13673Y9795D01*
D02*
G37*
%LPC*%
G36*
X3731Y3542D02*
Y3467D01*
X3807D01*
X3805Y3478D01*
X3796Y3499D01*
X3782Y3518D01*
X3763Y3532D01*
X3742Y3541D01*
X3731Y3542D01*
D02*
G37*
G36*
X3706D02*
X3695Y3541D01*
X3674Y3532D01*
X3655Y3518D01*
X3641Y3499D01*
X3632Y3478D01*
X3631Y3467D01*
X3706D01*
Y3542D01*
D02*
G37*
G36*
Y3442D02*
X3631D01*
X3632Y3431D01*
X3641Y3410D01*
X3655Y3391D01*
X3674Y3377D01*
X3695Y3368D01*
X3706Y3366D01*
Y3442D01*
D02*
G37*
G36*
X3807D02*
X3731D01*
Y3366D01*
X3742Y3368D01*
X3763Y3377D01*
X3782Y3391D01*
X3796Y3410D01*
X3805Y3431D01*
X3807Y3442D01*
D02*
G37*
G36*
X3733Y4122D02*
X3658D01*
Y4047D01*
X3668Y4048D01*
X3690Y4057D01*
X3708Y4072D01*
X3723Y4090D01*
X3732Y4112D01*
X3733Y4122D01*
D02*
G37*
G36*
X7560Y4142D02*
X7473D01*
X7475Y4129D01*
X7485Y4104D01*
X7501Y4083D01*
X7522Y4067D01*
X7546Y4057D01*
X7560Y4055D01*
Y4142D01*
D02*
G37*
G36*
X3632Y4122D02*
X3557D01*
X3558Y4112D01*
X3567Y4090D01*
X3582Y4072D01*
X3600Y4057D01*
X3622Y4048D01*
X3632Y4047D01*
Y4122D01*
D02*
G37*
G36*
X5347Y4039D02*
X5235D01*
X5238Y4019D01*
X5250Y3989D01*
X5271Y3963D01*
X5297Y3942D01*
X5327Y3930D01*
X5347Y3927D01*
Y4039D01*
D02*
G37*
G36*
X5485D02*
X5373D01*
Y3927D01*
X5393Y3930D01*
X5423Y3942D01*
X5449Y3963D01*
X5470Y3989D01*
X5482Y4019D01*
X5485Y4039D01*
D02*
G37*
G36*
X1908Y3431D02*
Y3355D01*
X1983D01*
X1981Y3366D01*
X1972Y3387D01*
X1958Y3406D01*
X1940Y3420D01*
X1918Y3429D01*
X1908Y3431D01*
D02*
G37*
G36*
X9959Y3040D02*
X9884D01*
X9885Y3030D01*
X9894Y3008D01*
X9909Y2990D01*
X9927Y2975D01*
X9949Y2966D01*
X9959Y2965D01*
Y3040D01*
D02*
G37*
G36*
X10060D02*
X9985D01*
Y2965D01*
X9995Y2966D01*
X10017Y2975D01*
X10035Y2990D01*
X10050Y3008D01*
X10059Y3030D01*
X10060Y3040D01*
D02*
G37*
G36*
X13150Y3024D02*
X13139Y3023D01*
X13117Y3014D01*
X13099Y3000D01*
X13085Y2981D01*
X13076Y2959D01*
X13074Y2949D01*
X13150D01*
Y3024D01*
D02*
G37*
G36*
X13175D02*
Y2949D01*
X13250D01*
X13249Y2959D01*
X13240Y2981D01*
X13226Y3000D01*
X13207Y3014D01*
X13185Y3023D01*
X13175Y3024D01*
D02*
G37*
G36*
X9959Y3141D02*
X9949Y3140D01*
X9927Y3131D01*
X9909Y3116D01*
X9894Y3098D01*
X9885Y3076D01*
X9884Y3066D01*
X9959D01*
Y3141D01*
D02*
G37*
G36*
X1983Y3330D02*
X1908D01*
Y3255D01*
X1918Y3256D01*
X1940Y3265D01*
X1958Y3279D01*
X1972Y3298D01*
X1981Y3319D01*
X1983Y3330D01*
D02*
G37*
G36*
X1882Y3431D02*
X1872Y3429D01*
X1850Y3420D01*
X1831Y3406D01*
X1817Y3387D01*
X1808Y3366D01*
X1807Y3355D01*
X1882D01*
Y3431D01*
D02*
G37*
G36*
X9985Y3141D02*
Y3066D01*
X10060D01*
X10059Y3076D01*
X10050Y3098D01*
X10035Y3116D01*
X10017Y3131D01*
X9995Y3140D01*
X9985Y3141D01*
D02*
G37*
G36*
X1882Y3330D02*
X1807D01*
X1808Y3319D01*
X1817Y3298D01*
X1831Y3279D01*
X1850Y3265D01*
X1872Y3256D01*
X1882Y3255D01*
Y3330D01*
D02*
G37*
G36*
X3007Y4632D02*
X2982Y4629D01*
X2959Y4619D01*
X2939Y4604D01*
X2924Y4584D01*
X2914Y4561D01*
X2911Y4537D01*
X2914Y4512D01*
X2924Y4489D01*
X2939Y4469D01*
X2959Y4454D01*
X2982Y4444D01*
X3007Y4441D01*
X3032Y4444D01*
X3055Y4454D01*
X3075Y4469D01*
X3090Y4489D01*
X3100Y4512D01*
X3103Y4537D01*
X3100Y4561D01*
X3090Y4584D01*
X3075Y4604D01*
X3055Y4619D01*
X3032Y4629D01*
X3007Y4632D01*
D02*
G37*
G36*
X11412Y4646D02*
X11387Y4643D01*
X11364Y4633D01*
X11344Y4618D01*
X11329Y4598D01*
X11319Y4575D01*
X11316Y4550D01*
X11319Y4525D01*
X11329Y4502D01*
X11344Y4482D01*
X11364Y4467D01*
X11387Y4458D01*
X11412Y4454D01*
X11437Y4458D01*
X11460Y4467D01*
X11480Y4482D01*
X11495Y4502D01*
X11504Y4525D01*
X11508Y4550D01*
X11504Y4575D01*
X11495Y4598D01*
X11480Y4618D01*
X11460Y4633D01*
X11437Y4643D01*
X11412Y4646D01*
D02*
G37*
G36*
X4580Y4459D02*
X4558Y4456D01*
X4538Y4448D01*
X4520Y4435D01*
X4507Y4417D01*
X4503Y4408D01*
X3946D01*
X3943Y4415D01*
X3930Y4432D01*
X3912Y4445D01*
X3892Y4454D01*
X3870Y4457D01*
X3848Y4454D01*
X3828Y4445D01*
X3810Y4432D01*
X3797Y4415D01*
X3793Y4406D01*
X3570D01*
X3557Y4403D01*
X3553Y4400D01*
X3546Y4396D01*
X3201Y4051D01*
X1835D01*
X1822Y4048D01*
X1811Y4041D01*
X1651Y3881D01*
X1644Y3870D01*
X1642Y3858D01*
Y3142D01*
X1644Y3130D01*
X1651Y3119D01*
X1795Y2975D01*
X1794Y2972D01*
X1791Y2950D01*
X1794Y2928D01*
X1802Y2908D01*
X1815Y2890D01*
X1833Y2877D01*
X1853Y2869D01*
X1875Y2866D01*
X1897Y2869D01*
X1917Y2877D01*
X1935Y2890D01*
X1948Y2908D01*
X1956Y2928D01*
X1959Y2950D01*
X1956Y2972D01*
X1948Y2992D01*
X1935Y3010D01*
X1917Y3023D01*
X1897Y3031D01*
X1875Y3034D01*
X1853Y3031D01*
X1839Y3026D01*
X1708Y3156D01*
Y3655D01*
X1720Y3663D01*
X1721Y3663D01*
X1734Y3646D01*
X1751Y3633D01*
X1771Y3625D01*
X1793Y3622D01*
X1815Y3625D01*
X1835Y3633D01*
X1853Y3646D01*
X1866Y3664D01*
X1867Y3665D01*
X2911D01*
Y1567D01*
X2904Y1564D01*
X2887Y1551D01*
X2873Y1533D01*
X2865Y1513D01*
X2862Y1491D01*
X2865Y1469D01*
X2873Y1449D01*
X2887Y1431D01*
X2904Y1418D01*
X2925Y1410D01*
X2946Y1407D01*
X2968Y1410D01*
X2989Y1418D01*
X3006Y1431D01*
X3019Y1449D01*
X3028Y1469D01*
X3031Y1491D01*
X3028Y1513D01*
X3019Y1533D01*
X3006Y1551D01*
X3002Y1553D01*
Y2567D01*
X3015Y2569D01*
X3023Y2549D01*
X3037Y2531D01*
X3054Y2518D01*
X3074Y2509D01*
X3096Y2507D01*
X3118Y2509D01*
X3127Y2513D01*
X3292Y2348D01*
Y2286D01*
X3283Y2283D01*
X3265Y2269D01*
X3252Y2252D01*
X3244Y2232D01*
X3241Y2210D01*
X3244Y2188D01*
X3252Y2168D01*
X3265Y2150D01*
X3283Y2137D01*
X3303Y2128D01*
X3325Y2126D01*
X3347Y2128D01*
X3367Y2137D01*
X3384Y2150D01*
X3398Y2168D01*
X3406Y2188D01*
X3409Y2210D01*
X3406Y2232D01*
X3398Y2252D01*
X3384Y2269D01*
X3367Y2283D01*
X3358Y2286D01*
Y2362D01*
X3356Y2375D01*
X3348Y2386D01*
X3174Y2560D01*
X3178Y2569D01*
X3180Y2591D01*
X3178Y2613D01*
X3169Y2633D01*
X3156Y2650D01*
X3138Y2664D01*
X3118Y2672D01*
X3096Y2675D01*
X3074Y2672D01*
X3054Y2664D01*
X3037Y2650D01*
X3023Y2633D01*
X3015Y2613D01*
X3002Y2614D01*
Y3654D01*
X3012Y3662D01*
X3050Y3661D01*
X3106Y3628D01*
X3106Y3627D01*
X3109Y3605D01*
X3117Y3585D01*
X3131Y3568D01*
X3148Y3554D01*
X3168Y3546D01*
X3190Y3543D01*
X3212Y3546D01*
X3232Y3554D01*
X3250Y3568D01*
X3263Y3585D01*
X3272Y3605D01*
X3274Y3627D01*
X3272Y3647D01*
X3273Y3652D01*
X3278Y3660D01*
X3862D01*
X3873Y3645D01*
X3890Y3632D01*
X3911Y3624D01*
X3933Y3621D01*
X3954Y3624D01*
X3975Y3632D01*
X3992Y3645D01*
X4005Y3663D01*
X4014Y3683D01*
X4017Y3705D01*
X4014Y3727D01*
X4005Y3747D01*
X3999Y3755D01*
X4006Y3768D01*
X6197D01*
X6350Y3615D01*
X6361Y3607D01*
X6375Y3604D01*
X10248D01*
X10250Y3600D01*
X10265Y3580D01*
X10285Y3565D01*
X10308Y3556D01*
X10313Y3555D01*
X10325Y3553D01*
X10328Y3542D01*
Y3541D01*
Y3540D01*
Y3540D01*
Y3540D01*
X10325Y3540D01*
X10325Y3540D01*
X10308Y3538D01*
X10285Y3528D01*
X10265Y3513D01*
X10250Y3493D01*
X10240Y3470D01*
X10237Y3445D01*
X10240Y3420D01*
X10250Y3397D01*
X10265Y3377D01*
X10285Y3362D01*
X10308Y3352D01*
X10332Y3349D01*
X10357Y3352D01*
X10380Y3362D01*
X10400Y3377D01*
X10415Y3397D01*
X10418Y3404D01*
X13053D01*
X13194Y3263D01*
X13189Y3249D01*
X13186Y3228D01*
X13189Y3206D01*
X13197Y3185D01*
X13210Y3168D01*
X13228Y3155D01*
X13248Y3146D01*
X13270Y3143D01*
X13292Y3146D01*
X13312Y3155D01*
X13330Y3168D01*
X13343Y3185D01*
X13351Y3206D01*
X13354Y3228D01*
X13351Y3249D01*
X13343Y3270D01*
X13330Y3287D01*
X13312Y3300D01*
X13292Y3309D01*
X13270Y3312D01*
X13262Y3311D01*
X13099Y3474D01*
X13086Y3483D01*
X13083Y3483D01*
X13070Y3486D01*
X13070Y3486D01*
X12616D01*
X12612Y3498D01*
X12622Y3507D01*
X12636Y3524D01*
X12644Y3544D01*
X12647Y3566D01*
X12644Y3588D01*
X12636Y3608D01*
X12622Y3626D01*
X12605Y3639D01*
X12585Y3648D01*
X12565Y3650D01*
X12352Y3863D01*
X12332Y3877D01*
X12309Y3881D01*
X10423D01*
X10415Y3899D01*
X10400Y3919D01*
X10380Y3934D01*
X10357Y3944D01*
X10332Y3947D01*
X10308Y3944D01*
X10285Y3934D01*
X10265Y3919D01*
X10250Y3899D01*
X10242Y3881D01*
X9623D01*
X9615Y3888D01*
X9594Y3896D01*
X9572Y3899D01*
X9551Y3896D01*
X9530Y3888D01*
X9522Y3881D01*
X6967D01*
X6952Y3893D01*
X6932Y3901D01*
X6910Y3904D01*
X6888Y3901D01*
X6868Y3893D01*
X6850Y3880D01*
X6837Y3862D01*
X6829Y3842D01*
X6826Y3820D01*
X6829Y3798D01*
X6837Y3778D01*
X6850Y3760D01*
X6868Y3747D01*
X6888Y3739D01*
X6910Y3736D01*
X6932Y3739D01*
X6952Y3747D01*
X6967Y3759D01*
X9510D01*
X9513Y3755D01*
X9530Y3742D01*
X9551Y3734D01*
X9572Y3731D01*
X9594Y3734D01*
X9615Y3742D01*
X9632Y3755D01*
X9635Y3759D01*
X10308D01*
X10313Y3758D01*
X10325Y3757D01*
X10328Y3745D01*
Y3744D01*
Y3744D01*
Y3743D01*
Y3743D01*
X10325Y3743D01*
X10325Y3743D01*
X10308Y3741D01*
X10285Y3731D01*
X10265Y3716D01*
X10250Y3696D01*
X10241Y3676D01*
X6390D01*
X6237Y3829D01*
X6225Y3836D01*
X6212Y3839D01*
X3689D01*
X3624Y3904D01*
X3626Y3911D01*
X3629Y3933D01*
X3626Y3954D01*
X3618Y3975D01*
X3605Y3992D01*
X3587Y4005D01*
X3567Y4014D01*
X3545Y4017D01*
X3523Y4014D01*
X3503Y4005D01*
X3485Y3992D01*
X3472Y3975D01*
X3464Y3954D01*
X3461Y3933D01*
X3464Y3911D01*
X3472Y3890D01*
X3485Y3873D01*
X3503Y3860D01*
X3523Y3851D01*
X3545Y3848D01*
X3567Y3851D01*
X3573Y3854D01*
X3649Y3778D01*
X3660Y3771D01*
X3674Y3768D01*
X3848D01*
X3855Y3755D01*
X3853Y3752D01*
X3065D01*
X2959Y3757D01*
X2958Y3757D01*
X2957Y3757D01*
X1859D01*
X1853Y3765D01*
X1835Y3779D01*
X1815Y3787D01*
X1793Y3790D01*
X1771Y3787D01*
X1751Y3779D01*
X1734Y3765D01*
X1721Y3749D01*
X1720Y3749D01*
X1708Y3757D01*
Y3844D01*
X1849Y3984D01*
X3215D01*
X3228Y3987D01*
X3239Y3994D01*
X3584Y4339D01*
X3793D01*
X3797Y4330D01*
X3810Y4313D01*
X3828Y4300D01*
X3848Y4291D01*
X3870Y4288D01*
X3892Y4291D01*
X3912Y4300D01*
X3930Y4313D01*
X3943Y4330D01*
X3948Y4342D01*
X4503D01*
X4507Y4333D01*
X4520Y4315D01*
X4538Y4302D01*
X4558Y4294D01*
X4580Y4291D01*
X4602Y4294D01*
X4622Y4302D01*
X4640Y4315D01*
X4653Y4333D01*
X4661Y4353D01*
X4664Y4375D01*
X4661Y4397D01*
X4653Y4417D01*
X4640Y4435D01*
X4622Y4448D01*
X4602Y4456D01*
X4580Y4459D01*
D02*
G37*
G36*
X2753Y4632D02*
X2728Y4629D01*
X2705Y4619D01*
X2685Y4604D01*
X2670Y4584D01*
X2660Y4561D01*
X2657Y4537D01*
X2660Y4512D01*
X2670Y4489D01*
X2685Y4469D01*
X2705Y4454D01*
X2728Y4444D01*
X2753Y4441D01*
X2778Y4444D01*
X2801Y4454D01*
X2821Y4469D01*
X2836Y4489D01*
X2846Y4512D01*
X2849Y4537D01*
X2846Y4561D01*
X2836Y4584D01*
X2821Y4604D01*
X2801Y4619D01*
X2778Y4629D01*
X2753Y4632D01*
D02*
G37*
G36*
X11666Y4646D02*
X11641Y4643D01*
X11618Y4633D01*
X11598Y4618D01*
X11583Y4598D01*
X11573Y4575D01*
X11570Y4550D01*
X11573Y4525D01*
X11583Y4502D01*
X11598Y4482D01*
X11618Y4467D01*
X11641Y4458D01*
X11666Y4454D01*
X11691Y4458D01*
X11714Y4467D01*
X11734Y4482D01*
X11749Y4502D01*
X11758Y4525D01*
X11762Y4550D01*
X11758Y4575D01*
X11749Y4598D01*
X11734Y4618D01*
X11714Y4633D01*
X11691Y4643D01*
X11666Y4646D01*
D02*
G37*
G36*
X11412Y4900D02*
X11387Y4897D01*
X11364Y4887D01*
X11344Y4872D01*
X11329Y4852D01*
X11319Y4829D01*
X11316Y4804D01*
X11319Y4779D01*
X11329Y4756D01*
X11344Y4736D01*
X11364Y4721D01*
X11387Y4712D01*
X11412Y4708D01*
X11437Y4712D01*
X11460Y4721D01*
X11480Y4736D01*
X11495Y4756D01*
X11504Y4779D01*
X11508Y4804D01*
X11504Y4829D01*
X11495Y4852D01*
X11480Y4872D01*
X11460Y4887D01*
X11437Y4897D01*
X11412Y4900D01*
D02*
G37*
G36*
X11666D02*
X11641Y4897D01*
X11618Y4887D01*
X11598Y4872D01*
X11583Y4852D01*
X11573Y4829D01*
X11570Y4804D01*
X11573Y4779D01*
X11583Y4756D01*
X11598Y4736D01*
X11618Y4721D01*
X11641Y4712D01*
X11666Y4708D01*
X11691Y4712D01*
X11714Y4721D01*
X11734Y4736D01*
X11749Y4756D01*
X11758Y4779D01*
X11762Y4804D01*
X11758Y4829D01*
X11749Y4852D01*
X11734Y4872D01*
X11714Y4887D01*
X11691Y4897D01*
X11666Y4900D01*
D02*
G37*
G36*
X2753Y4886D02*
X2728Y4883D01*
X2705Y4873D01*
X2685Y4858D01*
X2670Y4838D01*
X2660Y4815D01*
X2657Y4790D01*
X2660Y4766D01*
X2670Y4743D01*
X2685Y4723D01*
X2705Y4708D01*
X2728Y4698D01*
X2753Y4695D01*
X2778Y4698D01*
X2801Y4708D01*
X2821Y4723D01*
X2836Y4743D01*
X2846Y4766D01*
X2849Y4790D01*
X2846Y4815D01*
X2836Y4838D01*
X2821Y4858D01*
X2801Y4873D01*
X2778Y4883D01*
X2753Y4886D01*
D02*
G37*
G36*
X3007D02*
X2982Y4883D01*
X2959Y4873D01*
X2939Y4858D01*
X2924Y4838D01*
X2914Y4815D01*
X2911Y4790D01*
X2914Y4766D01*
X2924Y4743D01*
X2939Y4723D01*
X2959Y4708D01*
X2982Y4698D01*
X3007Y4695D01*
X3032Y4698D01*
X3055Y4708D01*
X3075Y4723D01*
X3090Y4743D01*
X3100Y4766D01*
X3103Y4790D01*
X3100Y4815D01*
X3090Y4838D01*
X3075Y4858D01*
X3055Y4873D01*
X3032Y4883D01*
X3007Y4886D01*
D02*
G37*
G36*
X11666Y4392D02*
X11641Y4389D01*
X11618Y4379D01*
X11598Y4364D01*
X11583Y4344D01*
X11573Y4321D01*
X11570Y4296D01*
X11573Y4271D01*
X11583Y4248D01*
X11598Y4228D01*
X11618Y4213D01*
X11641Y4204D01*
X11666Y4200D01*
X11691Y4204D01*
X11714Y4213D01*
X11734Y4228D01*
X11749Y4248D01*
X11758Y4271D01*
X11762Y4296D01*
X11758Y4321D01*
X11749Y4344D01*
X11734Y4364D01*
X11714Y4379D01*
X11691Y4389D01*
X11666Y4392D01*
D02*
G37*
G36*
X3632Y4223D02*
X3622Y4222D01*
X3600Y4213D01*
X3582Y4198D01*
X3567Y4180D01*
X3558Y4158D01*
X3557Y4148D01*
X3632D01*
Y4223D01*
D02*
G37*
G36*
X3658D02*
Y4148D01*
X3733D01*
X3732Y4158D01*
X3723Y4180D01*
X3708Y4198D01*
X3690Y4213D01*
X3668Y4222D01*
X3658Y4223D01*
D02*
G37*
G36*
X7672Y4142D02*
X7585D01*
Y4055D01*
X7599Y4057D01*
X7623Y4067D01*
X7644Y4083D01*
X7660Y4104D01*
X7670Y4129D01*
X7672Y4142D01*
D02*
G37*
G36*
X4945Y6042D02*
X4923Y6039D01*
X4903Y6030D01*
X4885Y6017D01*
X4872Y6000D01*
X4864Y5979D01*
X4861Y5958D01*
X4864Y5936D01*
X4872Y5915D01*
X4885Y5898D01*
X4903Y5885D01*
X4923Y5876D01*
X4945Y5873D01*
X4967Y5876D01*
X4973Y5879D01*
X5104Y5748D01*
Y4526D01*
X5107Y4512D01*
X5115Y4501D01*
X5253Y4362D01*
X5243Y4337D01*
X5239Y4306D01*
X5243Y4275D01*
X5255Y4245D01*
X5274Y4220D01*
X5299Y4201D01*
X5329Y4189D01*
X5336Y4188D01*
Y4175D01*
X5327Y4174D01*
X5297Y4162D01*
X5271Y4141D01*
X5250Y4115D01*
X5238Y4085D01*
X5235Y4065D01*
X5485D01*
X5482Y4085D01*
X5470Y4115D01*
X5449Y4141D01*
X5423Y4162D01*
X5393Y4174D01*
X5384Y4175D01*
Y4188D01*
X5391Y4189D01*
X5421Y4201D01*
X5446Y4220D01*
X5465Y4245D01*
X5477Y4275D01*
X5481Y4306D01*
X5477Y4337D01*
X5465Y4367D01*
X5446Y4392D01*
X5421Y4411D01*
X5391Y4423D01*
X5369Y4426D01*
X5369D01*
X5363Y4427D01*
Y4427D01*
Y4427D01*
Y4428D01*
Y4438D01*
Y4439D01*
Y4439D01*
Y4439D01*
X5369Y4440D01*
D01*
X5391Y4443D01*
X5421Y4455D01*
X5446Y4474D01*
X5465Y4499D01*
X5477Y4529D01*
X5481Y4560D01*
X5477Y4591D01*
X5465Y4621D01*
X5446Y4646D01*
X5421Y4665D01*
X5391Y4677D01*
X5360Y4681D01*
X5329Y4677D01*
X5299Y4665D01*
X5274Y4646D01*
X5255Y4621D01*
X5243Y4591D01*
X5239Y4560D01*
X5243Y4529D01*
X5255Y4499D01*
X5274Y4474D01*
X5299Y4455D01*
X5329Y4443D01*
X5351Y4440D01*
X5351D01*
X5357Y4439D01*
Y4439D01*
Y4439D01*
Y4438D01*
Y4428D01*
Y4427D01*
Y4427D01*
Y4427D01*
X5351Y4426D01*
D01*
X5329Y4423D01*
X5304Y4413D01*
X5176Y4541D01*
Y5762D01*
X5173Y5776D01*
X5165Y5788D01*
X5024Y5929D01*
X5026Y5936D01*
X5029Y5958D01*
X5026Y5979D01*
X5018Y6000D01*
X5005Y6017D01*
X4987Y6030D01*
X4967Y6039D01*
X4945Y6042D01*
D02*
G37*
G36*
X7560Y4255D02*
X7546Y4253D01*
X7522Y4243D01*
X7501Y4227D01*
X7485Y4206D01*
X7475Y4181D01*
X7473Y4168D01*
X7560D01*
Y4255D01*
D02*
G37*
G36*
X3007Y4378D02*
X2982Y4375D01*
X2959Y4365D01*
X2939Y4350D01*
X2924Y4330D01*
X2914Y4307D01*
X2911Y4283D01*
X2914Y4258D01*
X2924Y4235D01*
X2939Y4215D01*
X2959Y4200D01*
X2982Y4190D01*
X3007Y4187D01*
X3032Y4190D01*
X3055Y4200D01*
X3075Y4215D01*
X3090Y4235D01*
X3100Y4258D01*
X3103Y4283D01*
X3100Y4307D01*
X3090Y4330D01*
X3075Y4350D01*
X3055Y4365D01*
X3032Y4375D01*
X3007Y4378D01*
D02*
G37*
G36*
X11412Y4392D02*
X11387Y4389D01*
X11364Y4379D01*
X11344Y4364D01*
X11329Y4344D01*
X11319Y4321D01*
X11316Y4296D01*
X11319Y4271D01*
X11329Y4248D01*
X11344Y4228D01*
X11364Y4213D01*
X11387Y4204D01*
X11412Y4200D01*
X11437Y4204D01*
X11460Y4213D01*
X11480Y4228D01*
X11495Y4248D01*
X11504Y4271D01*
X11508Y4296D01*
X11504Y4321D01*
X11495Y4344D01*
X11480Y4364D01*
X11460Y4379D01*
X11437Y4389D01*
X11412Y4392D01*
D02*
G37*
G36*
X7585Y4255D02*
Y4168D01*
X7672D01*
X7670Y4181D01*
X7660Y4206D01*
X7644Y4227D01*
X7623Y4243D01*
X7599Y4253D01*
X7585Y4255D01*
D02*
G37*
G36*
X2753Y4378D02*
X2728Y4375D01*
X2705Y4365D01*
X2685Y4350D01*
X2670Y4330D01*
X2660Y4307D01*
X2657Y4283D01*
X2660Y4258D01*
X2670Y4235D01*
X2685Y4215D01*
X2705Y4200D01*
X2728Y4190D01*
X2753Y4187D01*
X2778Y4190D01*
X2801Y4200D01*
X2821Y4215D01*
X2836Y4235D01*
X2846Y4258D01*
X2849Y4283D01*
X2846Y4307D01*
X2836Y4330D01*
X2821Y4350D01*
X2801Y4365D01*
X2778Y4375D01*
X2753Y4378D01*
D02*
G37*
G36*
X13250Y2924D02*
X13175D01*
Y2848D01*
X13185Y2850D01*
X13207Y2859D01*
X13226Y2873D01*
X13240Y2891D01*
X13249Y2913D01*
X13250Y2924D01*
D02*
G37*
G36*
X7175Y2019D02*
X6690D01*
X6667Y2014D01*
X6647Y2001D01*
X6644Y1998D01*
X6631Y1978D01*
X6626Y1955D01*
Y1530D01*
X6631Y1507D01*
X6644Y1487D01*
X6649Y1482D01*
X6864Y1267D01*
Y1144D01*
X6852Y1139D01*
X6723Y1268D01*
X6703Y1282D01*
X6680Y1286D01*
X6657Y1282D01*
X6637Y1268D01*
X6623Y1248D01*
X6619Y1225D01*
Y932D01*
X6623Y909D01*
X6637Y889D01*
X6657Y876D01*
X6680Y871D01*
X7125D01*
X7148Y876D01*
X7168Y889D01*
X7182Y909D01*
X7186Y932D01*
Y1415D01*
X7182Y1438D01*
X7168Y1458D01*
X6966Y1660D01*
Y1712D01*
X6978Y1717D01*
X7100Y1594D01*
X7120Y1581D01*
X7144Y1576D01*
X7175D01*
X7198Y1581D01*
X7218Y1594D01*
X7232Y1614D01*
X7236Y1638D01*
Y1958D01*
X7232Y1981D01*
X7218Y2001D01*
X7198Y2014D01*
X7175Y2019D01*
D02*
G37*
G36*
X970Y1757D02*
X895D01*
X896Y1747D01*
X905Y1725D01*
X919Y1707D01*
X938Y1692D01*
X959Y1683D01*
X970Y1682D01*
Y1757D01*
D02*
G37*
G36*
X1782Y1243D02*
X1772Y1242D01*
X1750Y1233D01*
X1732Y1218D01*
X1717Y1200D01*
X1708Y1178D01*
X1707Y1168D01*
X1782D01*
Y1243D01*
D02*
G37*
G36*
X1808D02*
Y1168D01*
X1883D01*
X1882Y1178D01*
X1873Y1200D01*
X1858Y1218D01*
X1840Y1233D01*
X1818Y1242D01*
X1808Y1243D01*
D02*
G37*
G36*
X1070Y1757D02*
X995D01*
Y1682D01*
X1006Y1683D01*
X1027Y1692D01*
X1046Y1707D01*
X1060Y1725D01*
X1069Y1747D01*
X1070Y1757D01*
D02*
G37*
G36*
X12502Y2306D02*
X12427D01*
X12428Y2296D01*
X12437Y2274D01*
X12451Y2256D01*
X12470Y2241D01*
X12491Y2232D01*
X12502Y2231D01*
Y2306D01*
D02*
G37*
G36*
X12603D02*
X12527D01*
Y2231D01*
X12538Y2232D01*
X12559Y2241D01*
X12578Y2256D01*
X12592Y2274D01*
X12601Y2296D01*
X12603Y2306D01*
D02*
G37*
G36*
X970Y1858D02*
X959Y1857D01*
X938Y1848D01*
X919Y1833D01*
X905Y1815D01*
X896Y1793D01*
X895Y1783D01*
X970D01*
Y1858D01*
D02*
G37*
G36*
X995D02*
Y1783D01*
X1070D01*
X1069Y1793D01*
X1060Y1815D01*
X1046Y1833D01*
X1027Y1848D01*
X1006Y1857D01*
X995Y1858D01*
D02*
G37*
G36*
X4054Y1673D02*
X4011Y1669D01*
X3970Y1660D01*
X3931Y1643D01*
X3895Y1621D01*
X3862Y1593D01*
X3835Y1561D01*
X3813Y1525D01*
X3796Y1486D01*
X3786Y1444D01*
X3783Y1402D01*
X3786Y1360D01*
X3796Y1318D01*
X3813Y1279D01*
X3835Y1243D01*
X3862Y1210D01*
X3895Y1183D01*
X3931Y1161D01*
X3970Y1144D01*
X4011Y1134D01*
X4054Y1131D01*
X4096Y1134D01*
X4138Y1144D01*
X4177Y1161D01*
X4213Y1183D01*
X4245Y1210D01*
X4273Y1243D01*
X4295Y1279D01*
X4311Y1318D01*
X4321Y1360D01*
X4325Y1402D01*
X4321Y1444D01*
X4311Y1486D01*
X4295Y1525D01*
X4273Y1561D01*
X4245Y1593D01*
X4213Y1621D01*
X4177Y1643D01*
X4138Y1660D01*
X4096Y1669D01*
X4054Y1673D01*
D02*
G37*
G36*
X7693Y1996D02*
X7462D01*
X7439Y1992D01*
X7419Y1978D01*
X7406Y1958D01*
X7401Y1935D01*
X7406Y1912D01*
X7419Y1892D01*
X7913Y1398D01*
X7908Y1386D01*
X7565D01*
X7542Y1382D01*
X7522Y1368D01*
X7484Y1331D01*
X7471Y1311D01*
X7466Y1288D01*
Y1188D01*
Y877D01*
X7471Y854D01*
X7484Y834D01*
X7504Y821D01*
X7528Y816D01*
X7750D01*
X7773Y821D01*
X7793Y834D01*
X7807Y854D01*
X7811Y877D01*
Y1096D01*
X8320D01*
X8343Y1101D01*
X8363Y1114D01*
X8377Y1134D01*
X8381Y1157D01*
Y1307D01*
X8377Y1331D01*
X8363Y1351D01*
X7736Y1978D01*
X7716Y1992D01*
X7693Y1996D01*
D02*
G37*
G36*
X4521Y1089D02*
X4259D01*
X4261Y1059D01*
X4271Y1017D01*
X4288Y977D01*
X4310Y940D01*
X4339Y907D01*
X4371Y878D01*
X4408Y856D01*
X4448Y839D01*
X4491Y829D01*
X4521Y827D01*
Y1089D01*
D02*
G37*
G36*
X4041Y1052D02*
X4011Y1050D01*
X3968Y1040D01*
X3928Y1023D01*
X3891Y1000D01*
X3859Y972D01*
X3830Y939D01*
X3808Y902D01*
X3791Y862D01*
X3781Y820D01*
X3779Y790D01*
X4041D01*
Y1052D01*
D02*
G37*
G36*
X4067D02*
Y790D01*
X4329D01*
X4327Y820D01*
X4317Y862D01*
X4300Y902D01*
X4277Y939D01*
X4249Y972D01*
X4216Y1000D01*
X4179Y1023D01*
X4139Y1040D01*
X4097Y1050D01*
X4067Y1052D01*
D02*
G37*
G36*
X4809Y1089D02*
X4547D01*
Y827D01*
X4577Y829D01*
X4619Y839D01*
X4659Y856D01*
X4696Y878D01*
X4729Y907D01*
X4757Y940D01*
X4780Y977D01*
X4797Y1017D01*
X4807Y1059D01*
X4809Y1089D01*
D02*
G37*
G36*
X4521Y1377D02*
X4491Y1375D01*
X4448Y1365D01*
X4408Y1348D01*
X4371Y1325D01*
X4339Y1297D01*
X4310Y1264D01*
X4288Y1227D01*
X4271Y1187D01*
X4261Y1145D01*
X4259Y1115D01*
X4521D01*
Y1377D01*
D02*
G37*
G36*
X4547D02*
Y1115D01*
X4809D01*
X4807Y1145D01*
X4797Y1187D01*
X4780Y1227D01*
X4757Y1264D01*
X4729Y1297D01*
X4696Y1325D01*
X4659Y1348D01*
X4619Y1365D01*
X4577Y1375D01*
X4547Y1377D01*
D02*
G37*
G36*
X1782Y1142D02*
X1707D01*
X1708Y1132D01*
X1717Y1110D01*
X1732Y1092D01*
X1750Y1077D01*
X1772Y1068D01*
X1782Y1067D01*
Y1142D01*
D02*
G37*
G36*
X1883D02*
X1808D01*
Y1067D01*
X1818Y1068D01*
X1840Y1077D01*
X1858Y1092D01*
X1873Y1110D01*
X1882Y1132D01*
X1883Y1142D01*
D02*
G37*
G36*
X11180Y2817D02*
X11105D01*
X11106Y2807D01*
X11115Y2785D01*
X11129Y2767D01*
X11148Y2752D01*
X11169Y2743D01*
X11180Y2742D01*
Y2817D01*
D02*
G37*
G36*
X11280D02*
X11205D01*
Y2742D01*
X11216Y2743D01*
X11237Y2752D01*
X11256Y2767D01*
X11270Y2785D01*
X11279Y2807D01*
X11280Y2817D01*
D02*
G37*
G36*
X1757Y2808D02*
X1747Y2807D01*
X1725Y2798D01*
X1707Y2783D01*
X1692Y2765D01*
X1683Y2743D01*
X1682Y2733D01*
X1757D01*
Y2808D01*
D02*
G37*
G36*
X1783D02*
Y2733D01*
X1858D01*
X1857Y2743D01*
X1848Y2765D01*
X1833Y2783D01*
X1815Y2798D01*
X1793Y2807D01*
X1783Y2808D01*
D02*
G37*
G36*
X3112Y2894D02*
X3101Y2893D01*
X3079Y2884D01*
X3061Y2870D01*
X3047Y2851D01*
X3038Y2830D01*
X3036Y2819D01*
X3112D01*
Y2894D01*
D02*
G37*
G36*
X11205Y2918D02*
Y2843D01*
X11280D01*
X11279Y2853D01*
X11270Y2875D01*
X11256Y2893D01*
X11237Y2908D01*
X11216Y2917D01*
X11205Y2918D01*
D02*
G37*
G36*
X13150Y2924D02*
X13074D01*
X13076Y2913D01*
X13085Y2891D01*
X13099Y2873D01*
X13117Y2859D01*
X13139Y2850D01*
X13150Y2848D01*
Y2924D01*
D02*
G37*
G36*
X3137Y2894D02*
Y2819D01*
X3212D01*
X3211Y2830D01*
X3202Y2851D01*
X3188Y2870D01*
X3169Y2884D01*
X3147Y2893D01*
X3137Y2894D01*
D02*
G37*
G36*
X11180Y2918D02*
X11169Y2917D01*
X11148Y2908D01*
X11129Y2893D01*
X11115Y2875D01*
X11106Y2853D01*
X11105Y2843D01*
X11180D01*
Y2918D01*
D02*
G37*
G36*
X3212Y2794D02*
X3137D01*
Y2718D01*
X3147Y2720D01*
X3169Y2729D01*
X3188Y2743D01*
X3202Y2761D01*
X3211Y2783D01*
X3212Y2794D01*
D02*
G37*
G36*
X12502Y2407D02*
X12491Y2406D01*
X12470Y2397D01*
X12451Y2382D01*
X12437Y2364D01*
X12428Y2342D01*
X12427Y2332D01*
X12502D01*
Y2407D01*
D02*
G37*
G36*
X12527D02*
Y2332D01*
X12603D01*
X12601Y2342D01*
X12592Y2364D01*
X12578Y2382D01*
X12559Y2397D01*
X12538Y2406D01*
X12527Y2407D01*
D02*
G37*
G36*
X9037Y2637D02*
X9016Y2634D01*
X8995Y2626D01*
X8978Y2612D01*
X8964Y2595D01*
X8956Y2574D01*
X8953Y2553D01*
X8956Y2531D01*
X8964Y2511D01*
X8978Y2493D01*
X8995Y2480D01*
X9016Y2471D01*
X9024Y2470D01*
X9598Y1897D01*
X9609Y1889D01*
X9622Y1887D01*
X12576D01*
X12588Y1889D01*
X12599Y1897D01*
X12621Y1919D01*
X12628Y1929D01*
X12631Y1942D01*
Y2061D01*
X12640Y2065D01*
X12657Y2078D01*
X12670Y2096D01*
X12679Y2116D01*
X12682Y2138D01*
X12679Y2160D01*
X12670Y2180D01*
X12657Y2197D01*
X12640Y2211D01*
X12619Y2219D01*
X12598Y2222D01*
X12576Y2219D01*
X12555Y2211D01*
X12538Y2197D01*
X12525Y2180D01*
X12516Y2160D01*
X12513Y2138D01*
X12516Y2116D01*
X12525Y2096D01*
X12538Y2078D01*
X12555Y2065D01*
X12564Y2061D01*
Y1956D01*
X12562Y1954D01*
X9635D01*
X9284Y2304D01*
X9286Y2310D01*
X9291Y2316D01*
X9299Y2315D01*
Y2390D01*
X9224D01*
X9225Y2382D01*
X9218Y2377D01*
X9213Y2376D01*
X9097Y2492D01*
X9097Y2493D01*
X9110Y2511D01*
X9119Y2531D01*
X9122Y2553D01*
X9119Y2574D01*
X9110Y2595D01*
X9097Y2612D01*
X9079Y2626D01*
X9059Y2634D01*
X9037Y2637D01*
D02*
G37*
G36*
X9400Y2390D02*
X9324D01*
Y2315D01*
X9335Y2316D01*
X9356Y2325D01*
X9375Y2339D01*
X9389Y2358D01*
X9398Y2380D01*
X9400Y2390D01*
D02*
G37*
G36*
X9299Y2491D02*
X9288Y2489D01*
X9267Y2480D01*
X9248Y2466D01*
X9234Y2448D01*
X9225Y2426D01*
X9224Y2416D01*
X9299D01*
Y2491D01*
D02*
G37*
G36*
X1858Y2707D02*
X1783D01*
Y2632D01*
X1793Y2633D01*
X1815Y2642D01*
X1833Y2657D01*
X1848Y2675D01*
X1857Y2697D01*
X1858Y2707D01*
D02*
G37*
G36*
X3112Y2794D02*
X3036D01*
X3038Y2783D01*
X3047Y2761D01*
X3061Y2743D01*
X3079Y2729D01*
X3101Y2720D01*
X3112Y2718D01*
Y2794D01*
D02*
G37*
G36*
X9324Y2491D02*
Y2416D01*
X9400D01*
X9398Y2426D01*
X9389Y2448D01*
X9375Y2466D01*
X9356Y2480D01*
X9335Y2489D01*
X9324Y2491D01*
D02*
G37*
G36*
X1757Y2707D02*
X1682D01*
X1683Y2697D01*
X1692Y2675D01*
X1707Y2657D01*
X1725Y2642D01*
X1747Y2633D01*
X1757Y2632D01*
Y2707D01*
D02*
G37*
G36*
X7572Y4901D02*
X7548Y4898D01*
X7525Y4888D01*
X7505Y4873D01*
X7490Y4853D01*
X7480Y4830D01*
X7477Y4805D01*
X7480Y4780D01*
X7490Y4757D01*
X7505Y4737D01*
X7525Y4722D01*
X7548Y4712D01*
X7572Y4709D01*
X7597Y4712D01*
X7620Y4722D01*
X7640Y4737D01*
X7655Y4757D01*
X7665Y4780D01*
X7668Y4805D01*
X7665Y4830D01*
X7655Y4853D01*
X7640Y4873D01*
X7620Y4888D01*
X7597Y4898D01*
X7572Y4901D01*
D02*
G37*
G36*
X2156Y7895D02*
X2131Y7892D01*
X2108Y7882D01*
X2088Y7867D01*
X2073Y7847D01*
X2063Y7824D01*
X2060Y7800D01*
X2063Y7775D01*
X2073Y7752D01*
X2088Y7732D01*
X2108Y7717D01*
X2131Y7707D01*
X2156Y7704D01*
X2180Y7707D01*
X2203Y7717D01*
X2223Y7732D01*
X2238Y7752D01*
X2248Y7775D01*
X2251Y7800D01*
X2248Y7824D01*
X2238Y7847D01*
X2223Y7867D01*
X2203Y7882D01*
X2180Y7892D01*
X2156Y7895D01*
D02*
G37*
G36*
X2409D02*
X2385Y7892D01*
X2362Y7882D01*
X2342Y7867D01*
X2327Y7847D01*
X2317Y7824D01*
X2314Y7800D01*
X2317Y7775D01*
X2327Y7752D01*
X2342Y7732D01*
X2362Y7717D01*
X2385Y7707D01*
X2409Y7704D01*
X2434Y7707D01*
X2457Y7717D01*
X2477Y7732D01*
X2492Y7752D01*
X2502Y7775D01*
X2505Y7800D01*
X2502Y7824D01*
X2492Y7847D01*
X2477Y7867D01*
X2457Y7882D01*
X2434Y7892D01*
X2409Y7895D01*
D02*
G37*
G36*
X11412Y7694D02*
X11387Y7691D01*
X11364Y7681D01*
X11344Y7666D01*
X11329Y7646D01*
X11319Y7623D01*
X11316Y7598D01*
X11319Y7573D01*
X11329Y7550D01*
X11344Y7530D01*
X11364Y7515D01*
X11387Y7506D01*
X11412Y7502D01*
X11437Y7506D01*
X11460Y7515D01*
X11480Y7530D01*
X11495Y7550D01*
X11504Y7573D01*
X11508Y7598D01*
X11504Y7623D01*
X11495Y7646D01*
X11480Y7666D01*
X11460Y7681D01*
X11437Y7691D01*
X11412Y7694D01*
D02*
G37*
G36*
X11666D02*
X11641Y7691D01*
X11618Y7681D01*
X11598Y7666D01*
X11583Y7646D01*
X11573Y7623D01*
X11570Y7598D01*
X11573Y7573D01*
X11583Y7550D01*
X11598Y7530D01*
X11618Y7515D01*
X11641Y7506D01*
X11666Y7502D01*
X11691Y7506D01*
X11714Y7515D01*
X11734Y7530D01*
X11749Y7550D01*
X11758Y7573D01*
X11762Y7598D01*
X11758Y7623D01*
X11749Y7646D01*
X11734Y7666D01*
X11714Y7681D01*
X11691Y7691D01*
X11666Y7694D01*
D02*
G37*
G36*
X4849Y7785D02*
X4774D01*
X4775Y7775D01*
X4784Y7753D01*
X4798Y7734D01*
X4817Y7720D01*
X4838Y7711D01*
X4849Y7710D01*
Y7785D01*
D02*
G37*
G36*
X11666Y7948D02*
X11641Y7945D01*
X11618Y7935D01*
X11598Y7920D01*
X11583Y7900D01*
X11573Y7877D01*
X11570Y7852D01*
X11573Y7827D01*
X11583Y7804D01*
X11598Y7784D01*
X11618Y7769D01*
X11641Y7760D01*
X11666Y7756D01*
X11691Y7760D01*
X11714Y7769D01*
X11734Y7784D01*
X11749Y7804D01*
X11758Y7827D01*
X11762Y7852D01*
X11758Y7877D01*
X11749Y7900D01*
X11734Y7920D01*
X11714Y7935D01*
X11691Y7945D01*
X11666Y7948D01*
D02*
G37*
G36*
X4849Y7886D02*
X4838Y7884D01*
X4817Y7875D01*
X4798Y7861D01*
X4784Y7843D01*
X4775Y7821D01*
X4774Y7811D01*
X4849D01*
Y7886D01*
D02*
G37*
G36*
X4950Y7785D02*
X4874D01*
Y7710D01*
X4885Y7711D01*
X4906Y7720D01*
X4925Y7734D01*
X4939Y7753D01*
X4948Y7775D01*
X4950Y7785D01*
D02*
G37*
G36*
X11412Y7948D02*
X11387Y7945D01*
X11364Y7935D01*
X11344Y7920D01*
X11329Y7900D01*
X11319Y7877D01*
X11316Y7852D01*
X11319Y7827D01*
X11329Y7804D01*
X11344Y7784D01*
X11364Y7769D01*
X11387Y7760D01*
X11412Y7756D01*
X11437Y7760D01*
X11460Y7769D01*
X11480Y7784D01*
X11495Y7804D01*
X11504Y7827D01*
X11508Y7852D01*
X11504Y7877D01*
X11495Y7900D01*
X11480Y7920D01*
X11460Y7935D01*
X11437Y7945D01*
X11412Y7948D01*
D02*
G37*
G36*
X2409Y7641D02*
X2385Y7638D01*
X2362Y7628D01*
X2342Y7613D01*
X2327Y7593D01*
X2317Y7570D01*
X2314Y7546D01*
X2317Y7521D01*
X2327Y7498D01*
X2342Y7478D01*
X2362Y7463D01*
X2385Y7453D01*
X2409Y7450D01*
X2434Y7453D01*
X2457Y7463D01*
X2477Y7478D01*
X2492Y7498D01*
X2502Y7521D01*
X2505Y7546D01*
X2502Y7570D01*
X2492Y7593D01*
X2477Y7613D01*
X2457Y7628D01*
X2434Y7638D01*
X2409Y7641D01*
D02*
G37*
G36*
X11412Y7186D02*
X11387Y7183D01*
X11364Y7173D01*
X11344Y7158D01*
X11329Y7138D01*
X11319Y7115D01*
X11316Y7090D01*
X11319Y7065D01*
X11329Y7042D01*
X11344Y7022D01*
X11364Y7007D01*
X11387Y6998D01*
X11412Y6994D01*
X11437Y6998D01*
X11460Y7007D01*
X11480Y7022D01*
X11495Y7042D01*
X11504Y7065D01*
X11508Y7090D01*
X11504Y7115D01*
X11495Y7138D01*
X11480Y7158D01*
X11460Y7173D01*
X11437Y7183D01*
X11412Y7186D01*
D02*
G37*
G36*
X11666D02*
X11641Y7183D01*
X11618Y7173D01*
X11598Y7158D01*
X11583Y7138D01*
X11573Y7115D01*
X11570Y7090D01*
X11573Y7065D01*
X11583Y7042D01*
X11598Y7022D01*
X11618Y7007D01*
X11641Y6998D01*
X11666Y6994D01*
X11691Y6998D01*
X11714Y7007D01*
X11734Y7022D01*
X11749Y7042D01*
X11758Y7065D01*
X11762Y7090D01*
X11758Y7115D01*
X11749Y7138D01*
X11734Y7158D01*
X11714Y7173D01*
X11691Y7183D01*
X11666Y7186D01*
D02*
G37*
G36*
X6614Y7060D02*
X6604Y7059D01*
X6582Y7050D01*
X6563Y7036D01*
X6549Y7017D01*
X6540Y6996D01*
X6539Y6985D01*
X6614D01*
Y7060D01*
D02*
G37*
G36*
X6640D02*
Y6985D01*
X6715D01*
X6713Y6996D01*
X6705Y7017D01*
X6690Y7036D01*
X6672Y7050D01*
X6650Y7059D01*
X6640Y7060D01*
D02*
G37*
G36*
X2156Y7387D02*
X2131Y7384D01*
X2108Y7374D01*
X2088Y7359D01*
X2073Y7339D01*
X2063Y7316D01*
X2060Y7292D01*
X2063Y7267D01*
X2073Y7244D01*
X2088Y7224D01*
X2108Y7209D01*
X2131Y7199D01*
X2156Y7196D01*
X2180Y7199D01*
X2203Y7209D01*
X2223Y7224D01*
X2238Y7244D01*
X2248Y7267D01*
X2251Y7292D01*
X2248Y7316D01*
X2238Y7339D01*
X2223Y7359D01*
X2203Y7374D01*
X2180Y7384D01*
X2156Y7387D01*
D02*
G37*
G36*
X11666Y7440D02*
X11641Y7437D01*
X11618Y7427D01*
X11598Y7412D01*
X11583Y7392D01*
X11573Y7369D01*
X11570Y7344D01*
X11573Y7319D01*
X11583Y7296D01*
X11598Y7276D01*
X11618Y7261D01*
X11641Y7252D01*
X11666Y7248D01*
X11691Y7252D01*
X11714Y7261D01*
X11734Y7276D01*
X11749Y7296D01*
X11758Y7319D01*
X11762Y7344D01*
X11758Y7369D01*
X11749Y7392D01*
X11734Y7412D01*
X11714Y7427D01*
X11691Y7437D01*
X11666Y7440D01*
D02*
G37*
G36*
X2156Y7641D02*
X2131Y7638D01*
X2108Y7628D01*
X2088Y7613D01*
X2073Y7593D01*
X2063Y7570D01*
X2060Y7546D01*
X2063Y7521D01*
X2073Y7498D01*
X2088Y7478D01*
X2108Y7463D01*
X2131Y7453D01*
X2156Y7450D01*
X2180Y7453D01*
X2203Y7463D01*
X2223Y7478D01*
X2238Y7498D01*
X2248Y7521D01*
X2251Y7546D01*
X2248Y7570D01*
X2238Y7593D01*
X2223Y7613D01*
X2203Y7628D01*
X2180Y7638D01*
X2156Y7641D01*
D02*
G37*
G36*
X2409Y7387D02*
X2385Y7384D01*
X2362Y7374D01*
X2342Y7359D01*
X2327Y7339D01*
X2317Y7316D01*
X2314Y7292D01*
X2317Y7267D01*
X2327Y7244D01*
X2342Y7224D01*
X2362Y7209D01*
X2385Y7199D01*
X2409Y7196D01*
X2434Y7199D01*
X2457Y7209D01*
X2477Y7224D01*
X2492Y7244D01*
X2502Y7267D01*
X2505Y7292D01*
X2502Y7316D01*
X2492Y7339D01*
X2477Y7359D01*
X2457Y7374D01*
X2434Y7384D01*
X2409Y7387D01*
D02*
G37*
G36*
X11412Y7440D02*
X11387Y7437D01*
X11364Y7427D01*
X11344Y7412D01*
X11329Y7392D01*
X11319Y7369D01*
X11316Y7344D01*
X11319Y7319D01*
X11329Y7296D01*
X11344Y7276D01*
X11364Y7261D01*
X11387Y7252D01*
X11412Y7248D01*
X11437Y7252D01*
X11460Y7261D01*
X11480Y7276D01*
X11495Y7296D01*
X11504Y7319D01*
X11508Y7344D01*
X11504Y7369D01*
X11495Y7392D01*
X11480Y7412D01*
X11460Y7427D01*
X11437Y7437D01*
X11412Y7440D01*
D02*
G37*
G36*
X2409Y8911D02*
X2385Y8908D01*
X2362Y8898D01*
X2342Y8883D01*
X2327Y8863D01*
X2317Y8840D01*
X2314Y8815D01*
X2317Y8791D01*
X2327Y8768D01*
X2342Y8748D01*
X2362Y8733D01*
X2385Y8723D01*
X2409Y8720D01*
X2434Y8723D01*
X2457Y8733D01*
X2477Y8748D01*
X2492Y8768D01*
X2502Y8791D01*
X2505Y8815D01*
X2502Y8840D01*
X2492Y8863D01*
X2477Y8883D01*
X2457Y8898D01*
X2434Y8908D01*
X2409Y8911D01*
D02*
G37*
G36*
X8466Y9462D02*
X8354D01*
X8356Y9441D01*
X8369Y9411D01*
X8389Y9385D01*
X8415Y9365D01*
X8446Y9352D01*
X8466Y9349D01*
Y9462D01*
D02*
G37*
G36*
X2409Y8657D02*
X2385Y8654D01*
X2362Y8644D01*
X2342Y8629D01*
X2327Y8609D01*
X2317Y8586D01*
X2314Y8561D01*
X2317Y8537D01*
X2327Y8514D01*
X2342Y8494D01*
X2362Y8479D01*
X2385Y8469D01*
X2409Y8466D01*
X2434Y8469D01*
X2457Y8479D01*
X2477Y8494D01*
X2492Y8514D01*
X2502Y8537D01*
X2505Y8561D01*
X2502Y8586D01*
X2492Y8609D01*
X2477Y8629D01*
X2457Y8644D01*
X2434Y8654D01*
X2409Y8657D01*
D02*
G37*
G36*
X2156Y8911D02*
X2131Y8908D01*
X2108Y8898D01*
X2088Y8883D01*
X2073Y8863D01*
X2063Y8840D01*
X2060Y8815D01*
X2063Y8791D01*
X2073Y8768D01*
X2088Y8748D01*
X2108Y8733D01*
X2131Y8723D01*
X2156Y8720D01*
X2180Y8723D01*
X2203Y8733D01*
X2223Y8748D01*
X2238Y8768D01*
X2248Y8791D01*
X2251Y8815D01*
X2248Y8840D01*
X2238Y8863D01*
X2223Y8883D01*
X2203Y8898D01*
X2180Y8908D01*
X2156Y8911D01*
D02*
G37*
G36*
X6581Y9599D02*
Y9474D01*
Y9349D01*
X6601Y9352D01*
X6632Y9365D01*
X6658Y9385D01*
X6678Y9411D01*
X6691Y9441D01*
X6692Y9450D01*
X6705D01*
X6706Y9443D01*
X6718Y9414D01*
X6737Y9389D01*
X6762Y9369D01*
X6791Y9357D01*
X6823Y9353D01*
X6854Y9357D01*
X6883Y9369D01*
X6908Y9389D01*
X6927Y9414D01*
X6939Y9443D01*
X6942Y9465D01*
Y9465D01*
X6943Y9471D01*
X6943D01*
X6944D01*
X6944D01*
X6955D01*
X6955D01*
X6956D01*
X6956D01*
X6957Y9465D01*
D01*
X6960Y9443D01*
X6972Y9414D01*
X6991Y9389D01*
X7016Y9369D01*
X7045Y9357D01*
X7077Y9353D01*
X7108Y9357D01*
X7137Y9369D01*
X7162Y9389D01*
X7181Y9414D01*
X7193Y9443D01*
X7196Y9465D01*
Y9465D01*
X7197Y9471D01*
X7197D01*
X7198D01*
X7198D01*
X7209D01*
X7209D01*
X7210D01*
X7210D01*
X7211Y9465D01*
D01*
X7214Y9443D01*
X7226Y9414D01*
X7245Y9389D01*
X7270Y9369D01*
X7299Y9357D01*
X7331Y9353D01*
X7362Y9357D01*
X7391Y9369D01*
X7416Y9389D01*
X7435Y9414D01*
X7447Y9443D01*
X7452Y9474D01*
X7447Y9506D01*
X7435Y9535D01*
X7416Y9560D01*
X7391Y9579D01*
X7362Y9591D01*
X7331Y9595D01*
X7299Y9591D01*
X7270Y9579D01*
X7245Y9560D01*
X7226Y9535D01*
X7214Y9506D01*
X7211Y9483D01*
Y9483D01*
X7210Y9478D01*
X7210D01*
X7209D01*
X7209D01*
X7198D01*
X7198D01*
X7197D01*
X7197D01*
X7196Y9483D01*
D01*
X7193Y9506D01*
X7181Y9535D01*
X7162Y9560D01*
X7137Y9579D01*
X7108Y9591D01*
X7077Y9595D01*
X7045Y9591D01*
X7016Y9579D01*
X6991Y9560D01*
X6972Y9535D01*
X6960Y9506D01*
X6957Y9483D01*
Y9483D01*
X6956Y9478D01*
X6956D01*
X6955D01*
X6955D01*
X6944D01*
X6944D01*
X6943D01*
X6943D01*
X6942Y9483D01*
D01*
X6939Y9506D01*
X6927Y9535D01*
X6908Y9560D01*
X6883Y9579D01*
X6854Y9591D01*
X6823Y9595D01*
X6791Y9591D01*
X6762Y9579D01*
X6737Y9560D01*
X6718Y9535D01*
X6706Y9506D01*
X6705Y9498D01*
X6692D01*
X6691Y9507D01*
X6678Y9537D01*
X6658Y9564D01*
X6632Y9584D01*
X6601Y9596D01*
X6581Y9599D01*
D02*
G37*
G36*
X4046Y9599D02*
X4026Y9596D01*
X3996Y9584D01*
X3970Y9564D01*
X3950Y9537D01*
X3937Y9507D01*
X3936Y9498D01*
X3923D01*
X3922Y9506D01*
X3910Y9535D01*
X3891Y9560D01*
X3866Y9579D01*
X3836Y9591D01*
X3805Y9595D01*
X3774Y9591D01*
X3745Y9579D01*
X3719Y9560D01*
X3700Y9535D01*
X3688Y9506D01*
X3685Y9483D01*
Y9483D01*
X3684Y9478D01*
X3684D01*
X3684D01*
X3683D01*
X3673D01*
X3672D01*
X3672D01*
X3672D01*
X3671Y9483D01*
D01*
X3668Y9506D01*
X3656Y9535D01*
X3637Y9560D01*
X3612Y9579D01*
X3582Y9591D01*
X3551Y9595D01*
X3520Y9591D01*
X3491Y9579D01*
X3465Y9560D01*
X3446Y9535D01*
X3434Y9506D01*
X3431Y9483D01*
Y9483D01*
X3430Y9478D01*
X3430D01*
X3430D01*
X3429D01*
X3419D01*
X3418D01*
X3418D01*
X3418D01*
X3417Y9483D01*
D01*
X3414Y9506D01*
X3402Y9535D01*
X3383Y9560D01*
X3358Y9579D01*
X3328Y9591D01*
X3297Y9595D01*
X3266Y9591D01*
X3237Y9579D01*
X3211Y9560D01*
X3192Y9535D01*
X3180Y9506D01*
X3176Y9474D01*
X3180Y9443D01*
X3192Y9414D01*
X3211Y9389D01*
X3237Y9369D01*
X3266Y9357D01*
X3297Y9353D01*
X3328Y9357D01*
X3358Y9369D01*
X3383Y9389D01*
X3402Y9414D01*
X3414Y9443D01*
X3417Y9465D01*
Y9465D01*
X3418Y9471D01*
X3418D01*
X3418D01*
X3419D01*
X3429D01*
X3430D01*
X3430D01*
X3430D01*
X3431Y9465D01*
D01*
X3434Y9443D01*
X3446Y9414D01*
X3465Y9389D01*
X3491Y9369D01*
X3520Y9357D01*
X3551Y9353D01*
X3582Y9357D01*
X3612Y9369D01*
X3637Y9389D01*
X3656Y9414D01*
X3668Y9443D01*
X3671Y9465D01*
Y9465D01*
X3672Y9471D01*
X3672D01*
X3672D01*
X3673D01*
X3683D01*
X3684D01*
X3684D01*
X3684D01*
X3685Y9465D01*
D01*
X3688Y9443D01*
X3700Y9414D01*
X3719Y9389D01*
X3745Y9369D01*
X3774Y9357D01*
X3805Y9353D01*
X3836Y9357D01*
X3866Y9369D01*
X3891Y9389D01*
X3910Y9414D01*
X3922Y9443D01*
X3923Y9450D01*
X3936D01*
X3937Y9441D01*
X3950Y9411D01*
X3970Y9385D01*
X3996Y9365D01*
X4026Y9352D01*
X4046Y9349D01*
Y9474D01*
Y9599D01*
D02*
G37*
G36*
X6556Y9599D02*
X6536Y9596D01*
X6505Y9584D01*
X6479Y9564D01*
X6459Y9537D01*
X6446Y9507D01*
X6445Y9498D01*
X6432D01*
X6431Y9506D01*
X6419Y9535D01*
X6400Y9560D01*
X6375Y9579D01*
X6346Y9591D01*
X6315Y9595D01*
X6283Y9591D01*
X6254Y9579D01*
X6229Y9560D01*
X6210Y9535D01*
X6198Y9506D01*
X6195Y9483D01*
Y9483D01*
X6194Y9478D01*
X6194D01*
X6193D01*
X6193D01*
X6182D01*
X6182D01*
X6181D01*
X6181D01*
X6180Y9483D01*
D01*
X6177Y9506D01*
X6165Y9535D01*
X6146Y9560D01*
X6121Y9579D01*
X6092Y9591D01*
X6061Y9595D01*
X6029Y9591D01*
X6000Y9579D01*
X5975Y9560D01*
X5956Y9535D01*
X5944Y9506D01*
X5940Y9474D01*
X5944Y9443D01*
X5956Y9414D01*
X5975Y9389D01*
X6000Y9369D01*
X6029Y9357D01*
X6061Y9353D01*
X6092Y9357D01*
X6121Y9369D01*
X6146Y9389D01*
X6165Y9414D01*
X6177Y9443D01*
X6180Y9465D01*
Y9465D01*
X6181Y9471D01*
X6181D01*
X6182D01*
X6182D01*
X6193D01*
X6193D01*
X6194D01*
X6194D01*
X6195Y9465D01*
D01*
X6198Y9443D01*
X6210Y9414D01*
X6229Y9389D01*
X6254Y9369D01*
X6269Y9363D01*
Y9028D01*
X4359D01*
Y9363D01*
X4374Y9369D01*
X4399Y9389D01*
X4418Y9414D01*
X4430Y9443D01*
X4433Y9465D01*
Y9465D01*
X4434Y9471D01*
X4434D01*
X4434D01*
X4435D01*
X4445D01*
X4446D01*
X4446D01*
X4446D01*
X4447Y9465D01*
D01*
X4450Y9443D01*
X4462Y9414D01*
X4481Y9389D01*
X4507Y9369D01*
X4536Y9357D01*
X4567Y9353D01*
X4598Y9357D01*
X4628Y9369D01*
X4653Y9389D01*
X4672Y9414D01*
X4684Y9443D01*
X4687Y9465D01*
Y9465D01*
X4688Y9471D01*
X4688D01*
X4688D01*
X4689D01*
X4699D01*
X4700D01*
X4700D01*
X4700D01*
X4701Y9465D01*
D01*
X4704Y9443D01*
X4716Y9414D01*
X4735Y9389D01*
X4761Y9369D01*
X4790Y9357D01*
X4821Y9353D01*
X4852Y9357D01*
X4882Y9369D01*
X4907Y9389D01*
X4926Y9414D01*
X4938Y9443D01*
X4941Y9465D01*
Y9465D01*
X4942Y9471D01*
X4942D01*
X4942D01*
X4943D01*
X4953D01*
X4954D01*
X4954D01*
X4954D01*
X4955Y9465D01*
D01*
X4958Y9443D01*
X4970Y9414D01*
X4989Y9389D01*
X5015Y9369D01*
X5044Y9357D01*
X5075Y9353D01*
X5106Y9357D01*
X5136Y9369D01*
X5161Y9389D01*
X5180Y9414D01*
X5192Y9443D01*
X5196Y9474D01*
X5192Y9506D01*
X5180Y9535D01*
X5161Y9560D01*
X5136Y9579D01*
X5106Y9591D01*
X5075Y9595D01*
X5044Y9591D01*
X5015Y9579D01*
X4989Y9560D01*
X4970Y9535D01*
X4958Y9506D01*
X4955Y9483D01*
Y9483D01*
X4954Y9478D01*
X4954D01*
X4954D01*
X4953D01*
X4943D01*
X4942D01*
X4942D01*
X4942D01*
X4941Y9483D01*
D01*
X4938Y9506D01*
X4926Y9535D01*
X4907Y9560D01*
X4882Y9579D01*
X4852Y9591D01*
X4821Y9595D01*
X4790Y9591D01*
X4761Y9579D01*
X4735Y9560D01*
X4716Y9535D01*
X4704Y9506D01*
X4701Y9483D01*
Y9483D01*
X4700Y9478D01*
X4700D01*
X4700D01*
X4699D01*
X4689D01*
X4688D01*
X4688D01*
X4688D01*
X4687Y9483D01*
D01*
X4684Y9506D01*
X4672Y9535D01*
X4653Y9560D01*
X4628Y9579D01*
X4598Y9591D01*
X4567Y9595D01*
X4536Y9591D01*
X4507Y9579D01*
X4481Y9560D01*
X4462Y9535D01*
X4450Y9506D01*
X4447Y9483D01*
Y9483D01*
X4446Y9478D01*
X4446D01*
X4446D01*
X4445D01*
X4435D01*
X4434D01*
X4434D01*
X4434D01*
X4433Y9483D01*
D01*
X4430Y9506D01*
X4418Y9535D01*
X4399Y9560D01*
X4374Y9579D01*
X4344Y9591D01*
X4313Y9595D01*
X4282Y9591D01*
X4253Y9579D01*
X4227Y9560D01*
X4208Y9535D01*
X4196Y9506D01*
X4195Y9498D01*
X4182D01*
X4181Y9507D01*
X4169Y9537D01*
X4149Y9564D01*
X4122Y9584D01*
X4092Y9596D01*
X4072Y9599D01*
Y9474D01*
Y9349D01*
X4092Y9352D01*
X4122Y9365D01*
X4149Y9385D01*
X4169Y9411D01*
X4181Y9441D01*
X4182Y9450D01*
X4195D01*
X4196Y9443D01*
X4208Y9414D01*
X4227Y9389D01*
X4253Y9369D01*
X4267Y9363D01*
Y9028D01*
X3193D01*
X3183Y9042D01*
X3165Y9055D01*
X3145Y9064D01*
X3123Y9067D01*
X3101Y9064D01*
X3081Y9055D01*
X3064Y9042D01*
X3050Y9025D01*
X3042Y9004D01*
X3039Y8983D01*
X3042Y8961D01*
X3050Y8940D01*
X3064Y8923D01*
X3081Y8910D01*
X3101Y8901D01*
X3123Y8898D01*
X3145Y8901D01*
X3165Y8910D01*
X3183Y8923D01*
X3193Y8937D01*
X4633D01*
Y7474D01*
X4619Y7464D01*
X4606Y7446D01*
X4597Y7426D01*
X4594Y7404D01*
X4597Y7382D01*
X4606Y7362D01*
X4619Y7345D01*
X4637Y7331D01*
X4657Y7323D01*
X4679Y7320D01*
X4700Y7323D01*
X4721Y7331D01*
X4738Y7345D01*
X4752Y7362D01*
X4760Y7382D01*
X4763Y7404D01*
X4760Y7426D01*
X4752Y7446D01*
X4738Y7464D01*
X4725Y7474D01*
Y8937D01*
X6294D01*
X6660Y8571D01*
Y7395D01*
X6646Y7385D01*
X6633Y7367D01*
X6624Y7347D01*
X6621Y7325D01*
X6624Y7304D01*
X6633Y7283D01*
X6646Y7266D01*
X6663Y7252D01*
X6684Y7244D01*
X6706Y7241D01*
X6727Y7244D01*
X6748Y7252D01*
X6765Y7266D01*
X6779Y7283D01*
X6787Y7304D01*
X6790Y7325D01*
X6787Y7347D01*
X6779Y7367D01*
X6765Y7385D01*
X6751Y7395D01*
Y8590D01*
X6748Y8608D01*
X6738Y8623D01*
X6360Y9000D01*
Y9363D01*
X6375Y9369D01*
X6400Y9389D01*
X6419Y9414D01*
X6431Y9443D01*
X6432Y9450D01*
X6445D01*
X6446Y9441D01*
X6459Y9411D01*
X6479Y9385D01*
X6505Y9365D01*
X6536Y9352D01*
X6556Y9349D01*
Y9474D01*
Y9599D01*
D02*
G37*
G36*
X8491D02*
Y9474D01*
Y9349D01*
X8511Y9352D01*
X8542Y9365D01*
X8568Y9385D01*
X8588Y9411D01*
X8601Y9441D01*
X8602Y9450D01*
X8615D01*
X8616Y9443D01*
X8628Y9414D01*
X8647Y9389D01*
X8672Y9369D01*
X8701Y9357D01*
X8733Y9353D01*
X8764Y9357D01*
X8793Y9369D01*
X8818Y9389D01*
X8837Y9414D01*
X8849Y9443D01*
X8852Y9465D01*
Y9465D01*
X8853Y9471D01*
X8853D01*
X8854D01*
X8854D01*
X8865D01*
X8865D01*
X8866D01*
X8866D01*
X8867Y9465D01*
D01*
X8870Y9443D01*
X8882Y9414D01*
X8901Y9389D01*
X8926Y9369D01*
X8955Y9357D01*
X8987Y9353D01*
X9018Y9357D01*
X9047Y9369D01*
X9072Y9389D01*
X9091Y9414D01*
X9103Y9443D01*
X9108Y9474D01*
X9103Y9506D01*
X9091Y9535D01*
X9072Y9560D01*
X9047Y9579D01*
X9018Y9591D01*
X8987Y9595D01*
X8955Y9591D01*
X8926Y9579D01*
X8901Y9560D01*
X8882Y9535D01*
X8870Y9506D01*
X8867Y9483D01*
Y9483D01*
X8866Y9478D01*
X8866D01*
X8865D01*
X8865D01*
X8854D01*
X8854D01*
X8853D01*
X8853D01*
X8852Y9483D01*
D01*
X8849Y9506D01*
X8837Y9535D01*
X8818Y9560D01*
X8793Y9579D01*
X8764Y9591D01*
X8733Y9595D01*
X8701Y9591D01*
X8672Y9579D01*
X8647Y9560D01*
X8628Y9535D01*
X8616Y9506D01*
X8615Y9498D01*
X8602D01*
X8601Y9507D01*
X8588Y9537D01*
X8568Y9564D01*
X8542Y9584D01*
X8511Y9596D01*
X8491Y9599D01*
D02*
G37*
G36*
X8466D02*
X8446Y9596D01*
X8415Y9584D01*
X8389Y9564D01*
X8369Y9537D01*
X8356Y9507D01*
X8354Y9487D01*
X8466D01*
Y9599D01*
D02*
G37*
G36*
X2156Y8657D02*
X2131Y8654D01*
X2108Y8644D01*
X2088Y8629D01*
X2073Y8609D01*
X2063Y8586D01*
X2060Y8561D01*
X2063Y8537D01*
X2073Y8514D01*
X2088Y8494D01*
X2108Y8479D01*
X2131Y8469D01*
X2156Y8466D01*
X2180Y8469D01*
X2203Y8479D01*
X2223Y8494D01*
X2238Y8514D01*
X2248Y8537D01*
X2251Y8561D01*
X2248Y8586D01*
X2238Y8609D01*
X2223Y8629D01*
X2203Y8644D01*
X2180Y8654D01*
X2156Y8657D01*
D02*
G37*
G36*
X2409Y8149D02*
X2385Y8146D01*
X2362Y8136D01*
X2342Y8121D01*
X2327Y8101D01*
X2317Y8078D01*
X2314Y8054D01*
X2317Y8029D01*
X2327Y8006D01*
X2342Y7986D01*
X2362Y7971D01*
X2385Y7961D01*
X2409Y7958D01*
X2434Y7961D01*
X2457Y7971D01*
X2477Y7986D01*
X2492Y8006D01*
X2502Y8029D01*
X2505Y8054D01*
X2502Y8078D01*
X2492Y8101D01*
X2477Y8121D01*
X2457Y8136D01*
X2434Y8146D01*
X2409Y8149D01*
D02*
G37*
G36*
X11412Y8202D02*
X11387Y8199D01*
X11364Y8189D01*
X11344Y8174D01*
X11329Y8154D01*
X11319Y8131D01*
X11316Y8106D01*
X11319Y8081D01*
X11329Y8058D01*
X11344Y8038D01*
X11364Y8023D01*
X11387Y8014D01*
X11412Y8010D01*
X11437Y8014D01*
X11460Y8023D01*
X11480Y8038D01*
X11495Y8058D01*
X11504Y8081D01*
X11508Y8106D01*
X11504Y8131D01*
X11495Y8154D01*
X11480Y8174D01*
X11460Y8189D01*
X11437Y8199D01*
X11412Y8202D01*
D02*
G37*
G36*
X4874Y7886D02*
Y7811D01*
X4950D01*
X4948Y7821D01*
X4939Y7843D01*
X4925Y7861D01*
X4906Y7875D01*
X4885Y7884D01*
X4874Y7886D01*
D02*
G37*
G36*
X2156Y8149D02*
X2131Y8146D01*
X2108Y8136D01*
X2088Y8121D01*
X2073Y8101D01*
X2063Y8078D01*
X2060Y8054D01*
X2063Y8029D01*
X2073Y8006D01*
X2088Y7986D01*
X2108Y7971D01*
X2131Y7961D01*
X2156Y7958D01*
X2180Y7961D01*
X2203Y7971D01*
X2223Y7986D01*
X2238Y8006D01*
X2248Y8029D01*
X2251Y8054D01*
X2248Y8078D01*
X2238Y8101D01*
X2223Y8121D01*
X2203Y8136D01*
X2180Y8146D01*
X2156Y8149D01*
D02*
G37*
G36*
X11666Y8202D02*
X11641Y8199D01*
X11618Y8189D01*
X11598Y8174D01*
X11583Y8154D01*
X11573Y8131D01*
X11570Y8106D01*
X11573Y8081D01*
X11583Y8058D01*
X11598Y8038D01*
X11618Y8023D01*
X11641Y8014D01*
X11666Y8010D01*
X11691Y8014D01*
X11714Y8023D01*
X11734Y8038D01*
X11749Y8058D01*
X11758Y8081D01*
X11762Y8106D01*
X11758Y8131D01*
X11749Y8154D01*
X11734Y8174D01*
X11714Y8189D01*
X11691Y8199D01*
X11666Y8202D01*
D02*
G37*
G36*
X11412Y8456D02*
X11387Y8453D01*
X11364Y8443D01*
X11344Y8428D01*
X11329Y8408D01*
X11319Y8385D01*
X11316Y8360D01*
X11319Y8335D01*
X11329Y8312D01*
X11344Y8292D01*
X11364Y8277D01*
X11387Y8268D01*
X11412Y8264D01*
X11437Y8268D01*
X11460Y8277D01*
X11480Y8292D01*
X11495Y8312D01*
X11504Y8335D01*
X11508Y8360D01*
X11504Y8385D01*
X11495Y8408D01*
X11480Y8428D01*
X11460Y8443D01*
X11437Y8453D01*
X11412Y8456D01*
D02*
G37*
G36*
X11666D02*
X11641Y8453D01*
X11618Y8443D01*
X11598Y8428D01*
X11583Y8408D01*
X11573Y8385D01*
X11570Y8360D01*
X11573Y8335D01*
X11583Y8312D01*
X11598Y8292D01*
X11618Y8277D01*
X11641Y8268D01*
X11666Y8264D01*
X11691Y8268D01*
X11714Y8277D01*
X11734Y8292D01*
X11749Y8312D01*
X11758Y8335D01*
X11762Y8360D01*
X11758Y8385D01*
X11749Y8408D01*
X11734Y8428D01*
X11714Y8443D01*
X11691Y8453D01*
X11666Y8456D01*
D02*
G37*
G36*
X2156Y8403D02*
X2131Y8400D01*
X2108Y8390D01*
X2088Y8375D01*
X2073Y8355D01*
X2063Y8332D01*
X2060Y8307D01*
X2063Y8283D01*
X2073Y8260D01*
X2088Y8240D01*
X2108Y8225D01*
X2131Y8215D01*
X2156Y8212D01*
X2180Y8215D01*
X2203Y8225D01*
X2223Y8240D01*
X2238Y8260D01*
X2248Y8283D01*
X2251Y8307D01*
X2248Y8332D01*
X2238Y8355D01*
X2223Y8375D01*
X2203Y8390D01*
X2180Y8400D01*
X2156Y8403D01*
D02*
G37*
G36*
X2409D02*
X2385Y8400D01*
X2362Y8390D01*
X2342Y8375D01*
X2327Y8355D01*
X2317Y8332D01*
X2314Y8307D01*
X2317Y8283D01*
X2327Y8260D01*
X2342Y8240D01*
X2362Y8225D01*
X2385Y8215D01*
X2409Y8212D01*
X2434Y8215D01*
X2457Y8225D01*
X2477Y8240D01*
X2492Y8260D01*
X2502Y8283D01*
X2505Y8307D01*
X2502Y8332D01*
X2492Y8355D01*
X2477Y8375D01*
X2457Y8390D01*
X2434Y8400D01*
X2409Y8403D01*
D02*
G37*
G36*
Y7133D02*
X2385Y7130D01*
X2362Y7120D01*
X2342Y7105D01*
X2327Y7085D01*
X2317Y7062D01*
X2314Y7038D01*
X2317Y7013D01*
X2327Y6990D01*
X2342Y6970D01*
X2362Y6955D01*
X2385Y6945D01*
X2409Y6942D01*
X2434Y6945D01*
X2457Y6955D01*
X2477Y6970D01*
X2492Y6990D01*
X2502Y7013D01*
X2505Y7038D01*
X2502Y7062D01*
X2492Y7085D01*
X2477Y7105D01*
X2457Y7120D01*
X2434Y7130D01*
X2409Y7133D01*
D02*
G37*
G36*
X6062Y7074D02*
X6041Y7071D01*
X6020Y7063D01*
X6003Y7050D01*
X5990Y7032D01*
X5981Y7012D01*
X5978Y6990D01*
X5981Y6968D01*
X5990Y6948D01*
X6003Y6930D01*
X6017Y6920D01*
Y6362D01*
X5603Y5947D01*
X5593Y5933D01*
X5589Y5915D01*
Y5723D01*
X5585Y5720D01*
X5572Y5702D01*
X5563Y5682D01*
X5561Y5660D01*
X5563Y5638D01*
X5572Y5618D01*
X5585Y5600D01*
X5603Y5587D01*
X5623Y5579D01*
X5645Y5576D01*
X5667Y5579D01*
X5687Y5587D01*
X5704Y5600D01*
X5718Y5618D01*
X5726Y5638D01*
X5729Y5660D01*
X5728Y5664D01*
X5740Y5671D01*
X5745Y5667D01*
X5767Y5658D01*
X5777Y5657D01*
Y5745D01*
Y5833D01*
X5767Y5832D01*
X5745Y5823D01*
X5727Y5808D01*
X5712Y5790D01*
X5703Y5768D01*
X5700Y5745D01*
X5701Y5741D01*
X5690Y5734D01*
X5681Y5739D01*
Y5896D01*
X6095Y6310D01*
X6105Y6325D01*
X6108Y6342D01*
Y6920D01*
X6122Y6930D01*
X6135Y6948D01*
X6144Y6968D01*
X6147Y6990D01*
X6144Y7012D01*
X6135Y7032D01*
X6122Y7050D01*
X6105Y7063D01*
X6084Y7071D01*
X6062Y7074D01*
D02*
G37*
G36*
X5878Y5732D02*
X5803D01*
Y5657D01*
X5813Y5658D01*
X5835Y5667D01*
X5853Y5682D01*
X5868Y5700D01*
X5877Y5722D01*
X5878Y5732D01*
D02*
G37*
G36*
X11412Y5662D02*
X11387Y5659D01*
X11364Y5649D01*
X11344Y5634D01*
X11329Y5614D01*
X11319Y5591D01*
X11316Y5566D01*
X11319Y5541D01*
X11329Y5518D01*
X11344Y5498D01*
X11364Y5483D01*
X11387Y5474D01*
X11412Y5470D01*
X11437Y5474D01*
X11460Y5483D01*
X11480Y5498D01*
X11495Y5518D01*
X11504Y5541D01*
X11508Y5566D01*
X11504Y5591D01*
X11495Y5614D01*
X11480Y5634D01*
X11460Y5649D01*
X11437Y5659D01*
X11412Y5662D01*
D02*
G37*
G36*
X11666D02*
X11641Y5659D01*
X11618Y5649D01*
X11598Y5634D01*
X11583Y5614D01*
X11573Y5591D01*
X11570Y5566D01*
X11573Y5541D01*
X11583Y5518D01*
X11598Y5498D01*
X11618Y5483D01*
X11641Y5474D01*
X11666Y5470D01*
X11691Y5474D01*
X11714Y5483D01*
X11734Y5498D01*
X11749Y5518D01*
X11758Y5541D01*
X11762Y5566D01*
X11758Y5591D01*
X11749Y5614D01*
X11734Y5634D01*
X11714Y5649D01*
X11691Y5659D01*
X11666Y5662D01*
D02*
G37*
G36*
X2753Y5902D02*
X2728Y5899D01*
X2705Y5889D01*
X2685Y5874D01*
X2670Y5854D01*
X2660Y5831D01*
X2657Y5806D01*
X2660Y5782D01*
X2670Y5759D01*
X2685Y5739D01*
X2705Y5724D01*
X2728Y5714D01*
X2753Y5711D01*
X2778Y5714D01*
X2801Y5724D01*
X2821Y5739D01*
X2836Y5759D01*
X2846Y5782D01*
X2849Y5806D01*
X2846Y5831D01*
X2836Y5854D01*
X2821Y5874D01*
X2801Y5889D01*
X2778Y5899D01*
X2753Y5902D01*
D02*
G37*
G36*
X11666Y5916D02*
X11641Y5913D01*
X11618Y5903D01*
X11598Y5888D01*
X11583Y5868D01*
X11573Y5845D01*
X11570Y5820D01*
X11573Y5795D01*
X11583Y5772D01*
X11598Y5752D01*
X11618Y5737D01*
X11641Y5728D01*
X11666Y5724D01*
X11691Y5728D01*
X11714Y5737D01*
X11734Y5752D01*
X11749Y5772D01*
X11758Y5795D01*
X11762Y5820D01*
X11758Y5845D01*
X11749Y5868D01*
X11734Y5888D01*
X11714Y5903D01*
X11691Y5913D01*
X11666Y5916D01*
D02*
G37*
G36*
X5803Y5833D02*
Y5758D01*
X5878D01*
X5877Y5768D01*
X5868Y5790D01*
X5853Y5808D01*
X5835Y5823D01*
X5813Y5832D01*
X5803Y5833D01*
D02*
G37*
G36*
X3007Y5902D02*
X2982Y5899D01*
X2959Y5889D01*
X2939Y5874D01*
X2924Y5854D01*
X2914Y5831D01*
X2911Y5806D01*
X2914Y5782D01*
X2924Y5759D01*
X2939Y5739D01*
X2959Y5724D01*
X2982Y5714D01*
X3007Y5711D01*
X3032Y5714D01*
X3055Y5724D01*
X3075Y5739D01*
X3090Y5759D01*
X3100Y5782D01*
X3103Y5806D01*
X3100Y5831D01*
X3090Y5854D01*
X3075Y5874D01*
X3055Y5889D01*
X3032Y5899D01*
X3007Y5902D01*
D02*
G37*
G36*
X11412Y5916D02*
X11387Y5913D01*
X11364Y5903D01*
X11344Y5888D01*
X11329Y5868D01*
X11319Y5845D01*
X11316Y5820D01*
X11319Y5795D01*
X11329Y5772D01*
X11344Y5752D01*
X11364Y5737D01*
X11387Y5728D01*
X11412Y5724D01*
X11437Y5728D01*
X11460Y5737D01*
X11480Y5752D01*
X11495Y5772D01*
X11504Y5795D01*
X11508Y5820D01*
X11504Y5845D01*
X11495Y5868D01*
X11480Y5888D01*
X11460Y5903D01*
X11437Y5913D01*
X11412Y5916D01*
D02*
G37*
G36*
X3007Y5648D02*
X2982Y5645D01*
X2959Y5635D01*
X2939Y5620D01*
X2924Y5600D01*
X2914Y5577D01*
X2911Y5553D01*
X2914Y5528D01*
X2924Y5505D01*
X2939Y5485D01*
X2959Y5470D01*
X2982Y5460D01*
X3007Y5457D01*
X3032Y5460D01*
X3055Y5470D01*
X3075Y5485D01*
X3090Y5505D01*
X3100Y5528D01*
X3103Y5553D01*
X3100Y5577D01*
X3090Y5600D01*
X3075Y5620D01*
X3055Y5635D01*
X3032Y5645D01*
X3007Y5648D01*
D02*
G37*
G36*
X11412Y5154D02*
X11387Y5151D01*
X11364Y5141D01*
X11344Y5126D01*
X11329Y5106D01*
X11319Y5083D01*
X11316Y5058D01*
X11319Y5033D01*
X11329Y5010D01*
X11344Y4990D01*
X11364Y4975D01*
X11387Y4966D01*
X11412Y4962D01*
X11437Y4966D01*
X11460Y4975D01*
X11480Y4990D01*
X11495Y5010D01*
X11504Y5033D01*
X11508Y5058D01*
X11504Y5083D01*
X11495Y5106D01*
X11480Y5126D01*
X11460Y5141D01*
X11437Y5151D01*
X11412Y5154D01*
D02*
G37*
G36*
X11666D02*
X11641Y5151D01*
X11618Y5141D01*
X11598Y5126D01*
X11583Y5106D01*
X11573Y5083D01*
X11570Y5058D01*
X11573Y5033D01*
X11583Y5010D01*
X11598Y4990D01*
X11618Y4975D01*
X11641Y4966D01*
X11666Y4962D01*
X11691Y4966D01*
X11714Y4975D01*
X11734Y4990D01*
X11749Y5010D01*
X11758Y5033D01*
X11762Y5058D01*
X11758Y5083D01*
X11749Y5106D01*
X11734Y5126D01*
X11714Y5141D01*
X11691Y5151D01*
X11666Y5154D01*
D02*
G37*
G36*
X2753Y5140D02*
X2728Y5137D01*
X2705Y5127D01*
X2685Y5112D01*
X2670Y5092D01*
X2660Y5069D01*
X2657Y5044D01*
X2660Y5020D01*
X2670Y4997D01*
X2685Y4977D01*
X2705Y4962D01*
X2728Y4952D01*
X2753Y4949D01*
X2778Y4952D01*
X2801Y4962D01*
X2821Y4977D01*
X2836Y4997D01*
X2846Y5020D01*
X2849Y5044D01*
X2846Y5069D01*
X2836Y5092D01*
X2821Y5112D01*
X2801Y5127D01*
X2778Y5137D01*
X2753Y5140D01*
D02*
G37*
G36*
X3007D02*
X2982Y5137D01*
X2959Y5127D01*
X2939Y5112D01*
X2924Y5092D01*
X2914Y5069D01*
X2911Y5044D01*
X2914Y5020D01*
X2924Y4997D01*
X2939Y4977D01*
X2959Y4962D01*
X2982Y4952D01*
X3007Y4949D01*
X3032Y4952D01*
X3055Y4962D01*
X3075Y4977D01*
X3090Y4997D01*
X3100Y5020D01*
X3103Y5044D01*
X3100Y5069D01*
X3090Y5092D01*
X3075Y5112D01*
X3055Y5127D01*
X3032Y5137D01*
X3007Y5140D01*
D02*
G37*
G36*
X2753Y5394D02*
X2728Y5391D01*
X2705Y5381D01*
X2685Y5366D01*
X2670Y5346D01*
X2660Y5323D01*
X2657Y5299D01*
X2660Y5274D01*
X2670Y5251D01*
X2685Y5231D01*
X2705Y5216D01*
X2728Y5206D01*
X2753Y5203D01*
X2778Y5206D01*
X2801Y5216D01*
X2821Y5231D01*
X2836Y5251D01*
X2846Y5274D01*
X2849Y5299D01*
X2846Y5323D01*
X2836Y5346D01*
X2821Y5366D01*
X2801Y5381D01*
X2778Y5391D01*
X2753Y5394D01*
D02*
G37*
G36*
X11666Y5408D02*
X11641Y5405D01*
X11618Y5395D01*
X11598Y5380D01*
X11583Y5360D01*
X11573Y5337D01*
X11570Y5312D01*
X11573Y5287D01*
X11583Y5264D01*
X11598Y5244D01*
X11618Y5229D01*
X11641Y5220D01*
X11666Y5216D01*
X11691Y5220D01*
X11714Y5229D01*
X11734Y5244D01*
X11749Y5264D01*
X11758Y5287D01*
X11762Y5312D01*
X11758Y5337D01*
X11749Y5360D01*
X11734Y5380D01*
X11714Y5395D01*
X11691Y5405D01*
X11666Y5408D01*
D02*
G37*
G36*
X2753Y5648D02*
X2728Y5645D01*
X2705Y5635D01*
X2685Y5620D01*
X2670Y5600D01*
X2660Y5577D01*
X2657Y5553D01*
X2660Y5528D01*
X2670Y5505D01*
X2685Y5485D01*
X2705Y5470D01*
X2728Y5460D01*
X2753Y5457D01*
X2778Y5460D01*
X2801Y5470D01*
X2821Y5485D01*
X2836Y5505D01*
X2846Y5528D01*
X2849Y5553D01*
X2846Y5577D01*
X2836Y5600D01*
X2821Y5620D01*
X2801Y5635D01*
X2778Y5645D01*
X2753Y5648D01*
D02*
G37*
G36*
X3007Y5394D02*
X2982Y5391D01*
X2959Y5381D01*
X2939Y5366D01*
X2924Y5346D01*
X2914Y5323D01*
X2911Y5299D01*
X2914Y5274D01*
X2924Y5251D01*
X2939Y5231D01*
X2959Y5216D01*
X2982Y5206D01*
X3007Y5203D01*
X3032Y5206D01*
X3055Y5216D01*
X3075Y5231D01*
X3090Y5251D01*
X3100Y5274D01*
X3103Y5299D01*
X3100Y5323D01*
X3090Y5346D01*
X3075Y5366D01*
X3055Y5381D01*
X3032Y5391D01*
X3007Y5394D01*
D02*
G37*
G36*
X11412Y5408D02*
X11387Y5405D01*
X11364Y5395D01*
X11344Y5380D01*
X11329Y5360D01*
X11319Y5337D01*
X11316Y5312D01*
X11319Y5287D01*
X11329Y5264D01*
X11344Y5244D01*
X11364Y5229D01*
X11387Y5220D01*
X11412Y5216D01*
X11437Y5220D01*
X11460Y5229D01*
X11480Y5244D01*
X11495Y5264D01*
X11504Y5287D01*
X11508Y5312D01*
X11504Y5337D01*
X11495Y5360D01*
X11480Y5380D01*
X11460Y5395D01*
X11437Y5405D01*
X11412Y5408D01*
D02*
G37*
G36*
X11666Y6678D02*
X11641Y6675D01*
X11618Y6665D01*
X11598Y6650D01*
X11583Y6630D01*
X11573Y6607D01*
X11570Y6582D01*
X11573Y6557D01*
X11583Y6534D01*
X11598Y6514D01*
X11618Y6499D01*
X11641Y6490D01*
X11666Y6486D01*
X11691Y6490D01*
X11714Y6499D01*
X11734Y6514D01*
X11749Y6534D01*
X11758Y6557D01*
X11762Y6582D01*
X11758Y6607D01*
X11749Y6630D01*
X11734Y6650D01*
X11714Y6665D01*
X11691Y6675D01*
X11666Y6678D01*
D02*
G37*
G36*
X5535Y8611D02*
X5513Y8608D01*
X5493Y8600D01*
X5475Y8586D01*
X5462Y8569D01*
X5453Y8549D01*
X5450Y8527D01*
X5453Y8505D01*
X5462Y8485D01*
X5475Y8467D01*
X5493Y8454D01*
X5513Y8445D01*
X5535Y8443D01*
X5556Y8445D01*
X5563Y8448D01*
X5867Y8145D01*
Y6804D01*
X5858Y6800D01*
X5840Y6787D01*
X5827Y6770D01*
X5819Y6749D01*
X5816Y6728D01*
X5819Y6706D01*
X5827Y6685D01*
X5840Y6668D01*
X5858Y6655D01*
X5878Y6646D01*
X5900Y6643D01*
X5922Y6646D01*
X5942Y6655D01*
X5960Y6668D01*
X5973Y6685D01*
X5981Y6706D01*
X5984Y6728D01*
X5981Y6749D01*
X5973Y6770D01*
X5960Y6787D01*
X5942Y6800D01*
X5933Y6804D01*
Y8159D01*
X5931Y8172D01*
X5924Y8182D01*
X5612Y8494D01*
X5616Y8505D01*
X5619Y8527D01*
X5616Y8549D01*
X5608Y8569D01*
X5594Y8586D01*
X5577Y8600D01*
X5556Y8608D01*
X5535Y8611D01*
D02*
G37*
G36*
X11666Y6424D02*
X11641Y6421D01*
X11618Y6411D01*
X11598Y6396D01*
X11583Y6376D01*
X11573Y6353D01*
X11570Y6328D01*
X11573Y6303D01*
X11583Y6280D01*
X11598Y6260D01*
X11618Y6245D01*
X11641Y6236D01*
X11666Y6232D01*
X11691Y6236D01*
X11714Y6245D01*
X11734Y6260D01*
X11749Y6280D01*
X11758Y6303D01*
X11762Y6328D01*
X11758Y6353D01*
X11749Y6376D01*
X11734Y6396D01*
X11714Y6411D01*
X11691Y6421D01*
X11666Y6424D01*
D02*
G37*
G36*
X11412Y6678D02*
X11387Y6675D01*
X11364Y6665D01*
X11344Y6650D01*
X11329Y6630D01*
X11319Y6607D01*
X11316Y6582D01*
X11319Y6557D01*
X11329Y6534D01*
X11344Y6514D01*
X11364Y6499D01*
X11387Y6490D01*
X11412Y6486D01*
X11437Y6490D01*
X11460Y6499D01*
X11480Y6514D01*
X11495Y6534D01*
X11504Y6557D01*
X11508Y6582D01*
X11504Y6607D01*
X11495Y6630D01*
X11480Y6650D01*
X11460Y6665D01*
X11437Y6675D01*
X11412Y6678D01*
D02*
G37*
G36*
Y6932D02*
X11387Y6929D01*
X11364Y6919D01*
X11344Y6904D01*
X11329Y6884D01*
X11319Y6861D01*
X11316Y6836D01*
X11319Y6811D01*
X11329Y6788D01*
X11344Y6768D01*
X11364Y6753D01*
X11387Y6744D01*
X11412Y6740D01*
X11437Y6744D01*
X11460Y6753D01*
X11480Y6768D01*
X11495Y6788D01*
X11504Y6811D01*
X11508Y6836D01*
X11504Y6861D01*
X11495Y6884D01*
X11480Y6904D01*
X11460Y6919D01*
X11437Y6929D01*
X11412Y6932D01*
D02*
G37*
G36*
X6715Y6960D02*
X6640D01*
Y6884D01*
X6650Y6886D01*
X6672Y6895D01*
X6690Y6909D01*
X6705Y6927D01*
X6713Y6949D01*
X6715Y6960D01*
D02*
G37*
G36*
X2156Y7133D02*
X2131Y7130D01*
X2108Y7120D01*
X2088Y7105D01*
X2073Y7085D01*
X2063Y7062D01*
X2060Y7038D01*
X2063Y7013D01*
X2073Y6990D01*
X2088Y6970D01*
X2108Y6955D01*
X2131Y6945D01*
X2156Y6942D01*
X2180Y6945D01*
X2203Y6955D01*
X2223Y6970D01*
X2238Y6990D01*
X2248Y7013D01*
X2251Y7038D01*
X2248Y7062D01*
X2238Y7085D01*
X2223Y7105D01*
X2203Y7120D01*
X2180Y7130D01*
X2156Y7133D01*
D02*
G37*
G36*
X11666Y6932D02*
X11641Y6929D01*
X11618Y6919D01*
X11598Y6904D01*
X11583Y6884D01*
X11573Y6861D01*
X11570Y6836D01*
X11573Y6811D01*
X11583Y6788D01*
X11598Y6768D01*
X11618Y6753D01*
X11641Y6744D01*
X11666Y6740D01*
X11691Y6744D01*
X11714Y6753D01*
X11734Y6768D01*
X11749Y6788D01*
X11758Y6811D01*
X11762Y6836D01*
X11758Y6861D01*
X11749Y6884D01*
X11734Y6904D01*
X11714Y6919D01*
X11691Y6929D01*
X11666Y6932D01*
D02*
G37*
G36*
X6614Y6960D02*
X6539D01*
X6540Y6949D01*
X6549Y6927D01*
X6563Y6909D01*
X6582Y6895D01*
X6604Y6886D01*
X6614Y6884D01*
Y6960D01*
D02*
G37*
G36*
X11412Y6424D02*
X11387Y6421D01*
X11364Y6411D01*
X11344Y6396D01*
X11329Y6376D01*
X11319Y6353D01*
X11316Y6328D01*
X11319Y6303D01*
X11329Y6280D01*
X11344Y6260D01*
X11364Y6245D01*
X11387Y6236D01*
X11412Y6232D01*
X11437Y6236D01*
X11460Y6245D01*
X11480Y6260D01*
X11495Y6280D01*
X11504Y6303D01*
X11508Y6328D01*
X11504Y6353D01*
X11495Y6376D01*
X11480Y6396D01*
X11460Y6411D01*
X11437Y6421D01*
X11412Y6424D01*
D02*
G37*
G36*
X6632Y6027D02*
X6621Y6025D01*
X6600Y6016D01*
X6581Y6002D01*
X6567Y5984D01*
X6558Y5962D01*
X6556Y5951D01*
X6632D01*
Y6027D01*
D02*
G37*
G36*
X6657D02*
Y5951D01*
X6732D01*
X6731Y5962D01*
X6722Y5984D01*
X6708Y6002D01*
X6689Y6016D01*
X6668Y6025D01*
X6657Y6027D01*
D02*
G37*
G36*
X6632Y5926D02*
X6556D01*
X6558Y5915D01*
X6567Y5894D01*
X6581Y5875D01*
X6600Y5861D01*
X6621Y5852D01*
X6632Y5851D01*
Y5926D01*
D02*
G37*
G36*
X6732D02*
X6657D01*
Y5851D01*
X6668Y5852D01*
X6689Y5861D01*
X6708Y5875D01*
X6722Y5894D01*
X6731Y5915D01*
X6732Y5926D01*
D02*
G37*
G36*
X2753Y6156D02*
X2728Y6153D01*
X2705Y6143D01*
X2685Y6128D01*
X2670Y6108D01*
X2660Y6085D01*
X2657Y6060D01*
X2660Y6036D01*
X2670Y6013D01*
X2685Y5993D01*
X2705Y5978D01*
X2728Y5968D01*
X2753Y5965D01*
X2778Y5968D01*
X2801Y5978D01*
X2821Y5993D01*
X2836Y6013D01*
X2846Y6036D01*
X2849Y6060D01*
X2846Y6085D01*
X2836Y6108D01*
X2821Y6128D01*
X2801Y6143D01*
X2778Y6153D01*
X2753Y6156D01*
D02*
G37*
G36*
X11666Y6170D02*
X11641Y6167D01*
X11618Y6157D01*
X11598Y6142D01*
X11583Y6122D01*
X11573Y6099D01*
X11570Y6074D01*
X11573Y6049D01*
X11583Y6026D01*
X11598Y6006D01*
X11618Y5991D01*
X11641Y5982D01*
X11666Y5978D01*
X11691Y5982D01*
X11714Y5991D01*
X11734Y6006D01*
X11749Y6026D01*
X11758Y6049D01*
X11762Y6074D01*
X11758Y6099D01*
X11749Y6122D01*
X11734Y6142D01*
X11714Y6157D01*
X11691Y6167D01*
X11666Y6170D01*
D02*
G37*
G36*
X3542Y8804D02*
X3521Y8801D01*
X3500Y8793D01*
X3483Y8780D01*
X3470Y8762D01*
X3461Y8742D01*
X3458Y8720D01*
X3461Y8698D01*
X3470Y8678D01*
X3483Y8660D01*
X3500Y8647D01*
X3509Y8643D01*
Y7557D01*
X3512Y7545D01*
X3519Y7534D01*
X4986Y6066D01*
X4997Y6059D01*
X5010Y6057D01*
X5046D01*
X5050Y6048D01*
X5063Y6030D01*
X5080Y6017D01*
X5101Y6009D01*
X5122Y6006D01*
X5144Y6009D01*
X5165Y6017D01*
X5182Y6030D01*
X5195Y6048D01*
X5204Y6068D01*
X5207Y6090D01*
X5204Y6112D01*
X5195Y6132D01*
X5182Y6150D01*
X5165Y6163D01*
X5144Y6171D01*
X5122Y6174D01*
X5101Y6171D01*
X5080Y6163D01*
X5063Y6150D01*
X5050Y6132D01*
X5046Y6123D01*
X5024D01*
X3576Y7571D01*
Y8643D01*
X3585Y8647D01*
X3602Y8660D01*
X3615Y8678D01*
X3624Y8698D01*
X3627Y8720D01*
X3624Y8742D01*
X3615Y8762D01*
X3602Y8780D01*
X3585Y8793D01*
X3564Y8801D01*
X3542Y8804D01*
D02*
G37*
G36*
X3007Y6156D02*
X2982Y6153D01*
X2959Y6143D01*
X2939Y6128D01*
X2924Y6108D01*
X2914Y6085D01*
X2911Y6060D01*
X2914Y6036D01*
X2924Y6013D01*
X2939Y5993D01*
X2959Y5978D01*
X2982Y5968D01*
X3007Y5965D01*
X3032Y5968D01*
X3055Y5978D01*
X3075Y5993D01*
X3090Y6013D01*
X3100Y6036D01*
X3103Y6060D01*
X3100Y6085D01*
X3090Y6108D01*
X3075Y6128D01*
X3055Y6143D01*
X3032Y6153D01*
X3007Y6156D01*
D02*
G37*
G36*
X11412Y6170D02*
X11387Y6167D01*
X11364Y6157D01*
X11344Y6142D01*
X11329Y6122D01*
X11319Y6099D01*
X11316Y6074D01*
X11319Y6049D01*
X11329Y6026D01*
X11344Y6006D01*
X11364Y5991D01*
X11387Y5982D01*
X11412Y5978D01*
X11437Y5982D01*
X11460Y5991D01*
X11480Y6006D01*
X11495Y6026D01*
X11504Y6049D01*
X11508Y6074D01*
X11504Y6099D01*
X11495Y6122D01*
X11480Y6142D01*
X11460Y6157D01*
X11437Y6167D01*
X11412Y6170D01*
D02*
G37*
%LPD*%
D18*
X1675Y3142D02*
X1875Y2942D01*
X1675Y3858D02*
X1835Y4017D01*
X1675Y3142D02*
Y3858D01*
X1835Y4017D02*
X3215D01*
X3570Y4372D01*
X3870D01*
X3872Y4375D01*
X4580D01*
X5010Y6090D02*
X5122D01*
X3542Y7557D02*
X5010Y6090D01*
X3542Y7557D02*
Y8720D01*
X12598Y1942D02*
Y2138D01*
X12563Y3566D02*
X12568D01*
X4313Y8983D02*
X4313Y8983D01*
X12576Y1920D02*
X12598Y1942D01*
X9622Y1920D02*
X12576D01*
X9037Y2504D02*
Y2553D01*
Y2504D02*
X9622Y1920D01*
X3096Y2591D02*
X3325Y2362D01*
Y2210D02*
Y2362D01*
X5900Y6728D02*
Y8159D01*
X5535Y8524D02*
X5900Y8159D01*
X-16Y10545D02*
X6610D01*
X7757D02*
X14384D01*
X-16D02*
X136Y10596D01*
X-16Y10545D02*
X136Y10494D01*
X14231Y10596D02*
X14384Y10545D01*
X14231Y10494D02*
X14384Y10545D01*
X-16Y10520D02*
Y10570D01*
X14384Y10520D02*
Y10570D01*
X-663Y10011D02*
X-662Y5585D01*
X-662Y4438D02*
X-662Y11D01*
X-663Y10011D02*
X-612Y9859D01*
X-713D02*
X-663Y10011D01*
X-662Y11D02*
X-612Y164D01*
X-713D02*
X-662Y11D01*
X-688Y10011D02*
X-637D01*
X-688Y11D02*
X-637D01*
D19*
X13070Y3445D02*
X13274Y3241D01*
X10332Y3445D02*
X13070D01*
D20*
X6375Y3640D02*
X10332D01*
X6212Y3803D02*
X6375Y3640D01*
X3545Y3933D02*
X3674Y3803D01*
X6212D01*
X4945Y5958D02*
X5140Y5762D01*
Y4526D02*
Y5762D01*
Y4526D02*
X5360Y4306D01*
X0Y10000D02*
X0Y0D01*
X0Y10000D02*
X14400D01*
Y0D02*
Y10000D01*
X0Y0D02*
X14400Y0D01*
D21*
X12309Y3820D02*
X12563Y3566D01*
X6910Y3820D02*
X12309D01*
X6905Y1876D02*
X7144Y1638D01*
X7175D01*
X6680Y1225D02*
X6880Y1025D01*
X6925D01*
Y1282D01*
X6680Y932D02*
Y1225D01*
Y932D02*
X7125D01*
Y1415D01*
X6905Y1638D02*
Y1876D01*
X7175Y1638D02*
Y1958D01*
X6905Y1635D02*
Y1638D01*
Y1635D02*
X7125Y1415D01*
X6925Y1282D02*
Y1293D01*
X6693Y1525D02*
X6925Y1293D01*
X6688Y1530D02*
X6693Y1525D01*
X6688Y1530D02*
Y1955D01*
X6690Y1958D01*
X7175D01*
X7750Y1115D02*
Y1157D01*
X8320D01*
Y1307D01*
X7750Y877D02*
Y1115D01*
X7528Y877D02*
X7750D01*
X7462Y1935D02*
X8072Y1325D01*
X7565D02*
X8072D01*
X7528Y1288D02*
X7565Y1325D01*
X7693Y1935D02*
X8320Y1307D01*
X7462Y1935D02*
X7693D01*
X7528Y877D02*
Y1188D01*
Y1288D01*
D22*
X3064Y3706D02*
X3931D01*
X3064D02*
X3193Y3630D01*
X2949Y1526D02*
X2957Y1534D01*
X4679Y8983D02*
X6315D01*
Y9378D01*
X6706Y7325D02*
Y8590D01*
X6313Y8983D02*
X6706Y8590D01*
X4679Y7404D02*
Y8983D01*
X4313D02*
X4679D01*
X3123D02*
X4313D01*
X4313Y8983D02*
Y9474D01*
X2957Y3711D02*
X3064Y3706D01*
X2957Y1534D02*
Y3711D01*
X1793Y3698D02*
Y3706D01*
Y3711D02*
X2957D01*
X6062Y6342D02*
Y6990D01*
X5635Y5915D02*
X6062Y6342D01*
X5635Y5670D02*
Y5915D01*
Y5670D02*
X5645Y5660D01*
D23*
X9808Y3075D02*
G03*
X9808Y3075I-50J0D01*
G01*
X13006Y2960D02*
G03*
X13006Y2960I-50J0D01*
G01*
X1741Y3448D02*
G03*
X1741Y3448I-50J0D01*
G01*
X5589Y7089D02*
G03*
X5589Y7089I-50J0D01*
G01*
X3532Y3499D02*
G03*
X3532Y3499I-50J0D01*
G01*
X9668Y2185D02*
X10118D01*
X9668Y3165D02*
X10118D01*
Y2185D02*
Y3165D01*
X9668Y2185D02*
Y3165D01*
X12866Y2070D02*
X13316D01*
X12866Y3050D02*
X13316D01*
Y2070D02*
Y3050D01*
X12866Y2070D02*
Y3050D01*
X3760Y4103D02*
X3980D01*
X3760Y3967D02*
X3980D01*
Y4103D01*
X3760Y3967D02*
Y4103D01*
X5317Y7639D02*
X5412D01*
X5317Y7814D02*
X5412D01*
X5317Y7639D02*
Y7814D01*
X5412Y7639D02*
Y7814D01*
X5940Y5177D02*
Y5272D01*
X5765Y5177D02*
Y5272D01*
Y5177D02*
X5940D01*
X5765Y5272D02*
X5940D01*
X6904Y6107D02*
X6999D01*
X6904Y5932D02*
X6999D01*
Y6107D01*
X6904Y5932D02*
Y6107D01*
X5071Y7812D02*
X5166D01*
X5071Y7637D02*
X5166D01*
Y7812D01*
X5071Y7637D02*
Y7812D01*
X6879Y6953D02*
X6974D01*
X6879Y7128D02*
X6974D01*
X6879Y6953D02*
Y7128D01*
X6974Y6953D02*
Y7128D01*
X2861Y9216D02*
Y9311D01*
X3036Y9216D02*
Y9311D01*
X2861D02*
X3036D01*
X2861Y9216D02*
X3036D01*
X5091Y7357D02*
Y7452D01*
X4916Y7357D02*
Y7452D01*
Y7357D02*
X5091D01*
X4916Y7452D02*
X5091D01*
X1601Y2558D02*
X2051D01*
X1601Y3538D02*
X2051D01*
Y2558D02*
Y3538D01*
X1601Y2558D02*
Y3538D01*
X11240Y2967D02*
Y3188D01*
X11375Y2967D02*
Y3188D01*
X11240D02*
X11375D01*
X11240Y2967D02*
X11375D01*
X1252Y1727D02*
X1427D01*
X1252Y1823D02*
X1427D01*
Y1727D02*
Y1823D01*
X1252Y1727D02*
Y1823D01*
X5449Y5389D02*
X6209D01*
X5449Y7179D02*
X6209D01*
Y5389D02*
Y7179D01*
X5449Y5389D02*
Y7179D01*
X1461Y1348D02*
X2131D01*
X1461Y978D02*
X2131D01*
Y1348D01*
X1461Y978D02*
Y1348D01*
X2352Y1127D02*
Y1223D01*
X2527Y1127D02*
Y1223D01*
X2352D02*
X2527D01*
X2352Y1127D02*
X2527D01*
X3392Y2609D02*
X3842D01*
X3392Y3589D02*
X3842D01*
Y2609D02*
Y3589D01*
X3392Y2609D02*
Y3589D01*
X9893Y2625D02*
Y2725D01*
X9843Y2675D02*
X9943D01*
X13091Y2510D02*
Y2610D01*
X13041Y2560D02*
X13141D01*
X3870Y3985D02*
Y4085D01*
X3820Y4035D02*
X3920D01*
X5364Y7679D02*
Y7774D01*
X5317Y7727D02*
X5412D01*
X5805Y5225D02*
X5900D01*
X5852Y5177D02*
Y5272D01*
X6952Y5972D02*
Y6067D01*
X6904Y6020D02*
X6999D01*
X5118Y7677D02*
Y7772D01*
X5071Y7724D02*
X5166D01*
X6927Y6993D02*
Y7088D01*
X6879Y7041D02*
X6974D01*
X2901Y9263D02*
X2996D01*
X2949Y9216D02*
Y9311D01*
X4956Y7404D02*
X5051D01*
X5004Y7357D02*
Y7452D01*
X1826Y2998D02*
Y3098D01*
X1776Y3048D02*
X1876D01*
X11257Y3077D02*
X11357D01*
X11307Y3027D02*
Y3127D01*
X1340Y1727D02*
Y1823D01*
X1293Y1775D02*
X1388D01*
X5829Y6234D02*
Y6334D01*
X5779Y6284D02*
X5879D01*
X1796Y1113D02*
Y1213D01*
X1746Y1163D02*
X1846D01*
X2392Y1175D02*
X2488D01*
X2440Y1127D02*
Y1223D01*
X3617Y3049D02*
Y3149D01*
X3567Y3099D02*
X3667D01*
D24*
X9506Y2160D02*
X10281D01*
X9506Y3190D02*
X10281D01*
Y2160D02*
Y3190D01*
X9506Y2160D02*
Y3190D01*
X12704Y2045D02*
X13479D01*
X12704Y3075D02*
X13479D01*
Y2045D02*
Y3075D01*
X12704Y2045D02*
Y3075D01*
X3735Y4208D02*
X4005D01*
X3735Y3862D02*
X4005D01*
Y4208D01*
X3735Y3862D02*
Y4208D01*
X5289Y7592D02*
X5439D01*
X5289Y7862D02*
X5439D01*
X5289Y7592D02*
Y7862D01*
X5439Y7592D02*
Y7862D01*
X5987Y5150D02*
Y5300D01*
X5717Y5150D02*
Y5300D01*
Y5150D02*
X5987D01*
X5717Y5300D02*
X5987D01*
X6877Y6155D02*
X7027D01*
X6877Y5885D02*
X7027D01*
Y6155D01*
X6877Y5885D02*
Y6155D01*
X5043Y7859D02*
X5193D01*
X5043Y7589D02*
X5193D01*
Y7859D01*
X5043Y7589D02*
Y7859D01*
X6852Y6906D02*
X7002D01*
X6852Y7176D02*
X7002D01*
X6852Y6906D02*
Y7176D01*
X7002Y6906D02*
Y7176D01*
X2814Y9188D02*
Y9338D01*
X3084Y9188D02*
Y9338D01*
X2814D02*
X3084D01*
X2814Y9188D02*
X3084D01*
X5139Y7329D02*
Y7479D01*
X4869Y7329D02*
Y7479D01*
Y7329D02*
X5139D01*
X4869Y7479D02*
X5139D01*
X1439Y2533D02*
X2214D01*
X1439Y3563D02*
X2214D01*
Y2533D02*
Y3563D01*
X1439Y2533D02*
Y3563D01*
X11135Y2942D02*
Y3212D01*
X11480Y2942D02*
Y3212D01*
X11135D02*
X11480D01*
X11135Y2942D02*
X11480D01*
X1205Y1700D02*
X1475D01*
X1205Y1850D02*
X1475D01*
Y1700D02*
Y1850D01*
X1205Y1700D02*
Y1850D01*
X5237Y5364D02*
X6422D01*
X5237Y7204D02*
X6422D01*
Y5364D02*
Y7204D01*
X5237Y5364D02*
Y7204D01*
X1436Y1598D02*
X2156D01*
X1436Y728D02*
X2156D01*
Y1598D01*
X1436Y728D02*
Y1598D01*
X2305Y1100D02*
Y1250D01*
X2575Y1100D02*
Y1250D01*
X2305D02*
X2575D01*
X2305Y1100D02*
X2575D01*
X3229Y2584D02*
X4004D01*
X3229Y3614D02*
X4004D01*
Y2584D02*
Y3614D01*
X3229Y2584D02*
Y3614D01*
D25*
X6635Y10454D02*
X6686D01*
X6661D01*
Y10606D01*
X6635Y10581D01*
X6838Y10454D02*
Y10606D01*
X6762Y10530D01*
X6864D01*
X6991Y10454D02*
Y10606D01*
X6914Y10530D01*
X7016D01*
X7270Y10454D02*
X7219Y10504D01*
Y10555D01*
X7270Y10606D01*
X7346Y10454D02*
Y10555D01*
X7372D01*
X7397Y10530D01*
Y10454D01*
Y10530D01*
X7422Y10555D01*
X7448Y10530D01*
Y10454D01*
X7498D02*
Y10555D01*
X7524D01*
X7549Y10530D01*
Y10454D01*
Y10530D01*
X7575Y10555D01*
X7600Y10530D01*
Y10454D01*
X7651D02*
X7702Y10504D01*
Y10555D01*
X7651Y10606D01*
X-754Y5560D02*
Y5509D01*
Y5534D01*
X-602D01*
X-627Y5560D01*
Y5433D02*
X-602Y5407D01*
Y5357D01*
X-627Y5331D01*
X-729D01*
X-754Y5357D01*
Y5407D01*
X-729Y5433D01*
X-627D01*
Y5281D02*
X-602Y5255D01*
Y5204D01*
X-627Y5179D01*
X-729D01*
X-754Y5204D01*
Y5255D01*
X-729Y5281D01*
X-627D01*
X-754Y4925D02*
X-703Y4976D01*
X-652D01*
X-602Y4925D01*
X-754Y4849D02*
X-652D01*
Y4823D01*
X-678Y4798D01*
X-754D01*
X-678D01*
X-652Y4773D01*
X-678Y4747D01*
X-754D01*
Y4697D02*
X-652D01*
Y4671D01*
X-678Y4646D01*
X-754D01*
X-678D01*
X-652Y4620D01*
X-678Y4595D01*
X-754D01*
Y4544D02*
X-703Y4493D01*
X-652D01*
X-602Y4544D01*
D26*
X10332Y3445D02*
D03*
Y3648D02*
D03*
Y3851D02*
D03*
X7572Y4155D02*
D03*
Y4805D02*
D03*
X2156Y7038D02*
D03*
Y7292D02*
D03*
Y7546D02*
D03*
Y7800D02*
D03*
Y8054D02*
D03*
Y8307D02*
D03*
Y8561D02*
D03*
Y8815D02*
D03*
X2409Y7038D02*
D03*
Y7292D02*
D03*
Y7546D02*
D03*
Y7800D02*
D03*
Y8054D02*
D03*
Y8307D02*
D03*
Y8561D02*
D03*
Y8815D02*
D03*
X2753Y4283D02*
D03*
Y4537D02*
D03*
Y4790D02*
D03*
Y5044D02*
D03*
Y5299D02*
D03*
Y5553D02*
D03*
Y5806D02*
D03*
Y6060D02*
D03*
X3007Y4283D02*
D03*
Y4537D02*
D03*
Y4790D02*
D03*
Y5044D02*
D03*
Y5299D02*
D03*
Y5553D02*
D03*
Y5806D02*
D03*
Y6060D02*
D03*
X11666Y5820D02*
D03*
Y6328D02*
D03*
Y6836D02*
D03*
Y4804D02*
D03*
Y8106D02*
D03*
X11412Y8360D02*
D03*
X11666Y4550D02*
D03*
Y7344D02*
D03*
X11412Y6836D02*
D03*
Y7090D02*
D03*
Y7852D02*
D03*
Y5820D02*
D03*
Y5566D02*
D03*
Y4296D02*
D03*
X11666D02*
D03*
Y7598D02*
D03*
X11412Y5058D02*
D03*
Y8106D02*
D03*
X11666Y8360D02*
D03*
Y5058D02*
D03*
X11412Y6074D02*
D03*
Y4550D02*
D03*
X11666Y7852D02*
D03*
Y6074D02*
D03*
X11412Y5312D02*
D03*
X11666Y7090D02*
D03*
Y6582D02*
D03*
X11412D02*
D03*
Y4804D02*
D03*
Y7598D02*
D03*
Y6328D02*
D03*
X11666Y5312D02*
D03*
Y5566D02*
D03*
X11412Y7344D02*
D03*
D27*
X4534Y1102D02*
D03*
X4054Y777D02*
D03*
Y1402D02*
D03*
D28*
X6061Y9474D02*
D03*
X6315D02*
D03*
X6569D02*
D03*
X6823D02*
D03*
X7077D02*
D03*
X7331D02*
D03*
X3297Y9474D02*
D03*
X3551D02*
D03*
X3805D02*
D03*
X4059D02*
D03*
X4313D02*
D03*
X4567D02*
D03*
X4821D02*
D03*
X5075D02*
D03*
X8987Y9474D02*
D03*
X8733D02*
D03*
X8479D02*
D03*
X5360Y4052D02*
D03*
Y4306D02*
D03*
Y4560D02*
D03*
D29*
X13270Y3228D02*
D03*
X11103Y3778D02*
D03*
X9572Y3815D02*
D03*
X6910Y3820D02*
D03*
X3545Y3933D02*
D03*
X1875Y2950D02*
D03*
X1770Y2720D02*
D03*
X11193Y2830D02*
D03*
X3933Y3705D02*
D03*
X3870Y4372D02*
D03*
X3645Y4135D02*
D03*
X4580Y4375D02*
D03*
X3719Y3454D02*
D03*
X4945Y5958D02*
D03*
X5122Y6090D02*
D03*
X3542Y8720D02*
D03*
X2946Y1491D02*
D03*
X12515Y2319D02*
D03*
X5535Y8527D02*
D03*
X12598Y2138D02*
D03*
X9037Y2553D02*
D03*
X9312Y2403D02*
D03*
X12563Y3566D02*
D03*
X13162Y2936D02*
D03*
X1895Y3343D02*
D03*
X6706Y7325D02*
D03*
X4679Y7404D02*
D03*
X3123Y8983D02*
D03*
X3190Y3627D02*
D03*
X6627Y6972D02*
D03*
X6644Y5939D02*
D03*
X9972Y3053D02*
D03*
X3325Y2210D02*
D03*
X3096Y2591D02*
D03*
X3124Y2806D02*
D03*
X1793Y3706D02*
D03*
X4862Y7798D02*
D03*
X1795Y1155D02*
D03*
X982Y1770D02*
D03*
X5900Y6728D02*
D03*
X5790Y5745D02*
D03*
X5645Y5660D02*
D03*
X6062Y6990D02*
D03*
D30*
X13935Y400D02*
D03*
Y9600D02*
D03*
X535Y400D02*
D03*
Y9600D02*
D03*
M02*
