%FSLAX42Y42*%
%MOMM*%
G71*
G01*
G75*
%ADD10O,1.40X0.45*%
%ADD11R,0.40X0.80*%
%ADD12R,1.00X0.90*%
%ADD13R,0.90X1.00*%
%ADD14R,0.80X0.40*%
%ADD15O,1.90X0.60*%
%ADD16R,0.90X2.25*%
%ADD17R,3.25X2.25*%
%ADD18C,0.25*%
%ADD19C,0.40*%
%ADD20C,0.30*%
%ADD21C,0.80*%
%ADD22C,0.50*%
%ADD23C,0.10*%
%ADD24C,0.05*%
%ADD25C,0.15*%
%ADD26C,1.50*%
%ADD27C,5.00*%
%ADD28C,2.00*%
%ADD29C,1.27*%
%ADD30C,6.00*%
%ADD31C,0.60*%
%ADD32C,0.25*%
%ADD33C,0.20*%
D18*
X3574Y1806D02*
X4879D01*
X3574Y28D02*
X4879D01*
X3574D02*
Y1806D01*
X4879Y28D02*
Y1806D01*
X5911Y9164D02*
X7485D01*
Y9784D01*
X5911Y9164D02*
Y9784D01*
X7485D01*
X3147Y9164D02*
X5225D01*
X3147Y9784D02*
X5225D01*
Y9164D02*
Y9784D01*
X3147Y9164D02*
Y9784D01*
X8263Y9164D02*
X9177D01*
Y9784D01*
X8263Y9164D02*
Y9784D01*
X9177D01*
X5050Y3836D02*
Y4751D01*
Y3836D02*
X5670D01*
X5050Y4751D02*
X5670D01*
Y3836D02*
Y4751D01*
X1819Y6638D02*
X2746D01*
X1819Y9238D02*
X2746D01*
X1819Y6638D02*
Y9238D01*
X2746Y6638D02*
Y9238D01*
X2417Y3883D02*
X3344D01*
X2417Y6482D02*
X3344D01*
X2417Y3883D02*
Y6482D01*
X3344Y3883D02*
Y6482D01*
X11996Y3947D02*
Y8747D01*
X11069Y3947D02*
Y8747D01*
X11996D01*
X11069Y3947D02*
X11996D01*
X9945Y2040D02*
Y1913D01*
X9970Y1888D01*
X10021D01*
X10047Y1913D01*
Y2040D01*
X10199D02*
X10148Y2014D01*
X10097Y1964D01*
Y1913D01*
X10123Y1888D01*
X10174D01*
X10199Y1913D01*
Y1938D01*
X10174Y1964D01*
X10097D01*
X13435Y1957D02*
Y1830D01*
X13460Y1805D01*
X13511D01*
X13537Y1830D01*
Y1957D01*
X13587D02*
X13689D01*
Y1932D01*
X13587Y1830D01*
Y1805D01*
X10240Y4195D02*
Y4068D01*
X10265Y4042D01*
X10316D01*
X10342Y4068D01*
Y4195D01*
X10392Y4042D02*
X10443D01*
X10418D01*
Y4195D01*
X10392Y4169D01*
X3483Y4477D02*
Y4350D01*
X3508Y4325D01*
X3559D01*
X3584Y4350D01*
Y4477D01*
X3635Y4452D02*
X3660Y4477D01*
X3711D01*
X3736Y4452D01*
Y4427D01*
X3711Y4401D01*
X3736Y4376D01*
Y4350D01*
X3711Y4325D01*
X3660D01*
X3635Y4350D01*
Y4376D01*
X3660Y4401D01*
X3635Y4427D01*
Y4452D01*
X3660Y4401D02*
X3711D01*
X4009Y2030D02*
X3958D01*
X3984D01*
Y1903D01*
X3958Y1877D01*
X3933D01*
X3908Y1903D01*
X4060Y2030D02*
X4161D01*
Y2004D01*
X4060Y1903D01*
Y1877D01*
X1087Y1219D02*
Y1092D01*
X1113Y1067D01*
X1163D01*
X1189Y1092D01*
Y1219D01*
X1341Y1067D02*
X1239D01*
X1341Y1168D01*
Y1194D01*
X1316Y1219D01*
X1265D01*
X1239Y1194D01*
X11640Y2982D02*
Y2855D01*
X11665Y2830D01*
X11716D01*
X11742Y2855D01*
Y2982D01*
X11792Y2855D02*
X11818Y2830D01*
X11869D01*
X11894Y2855D01*
Y2957D01*
X11869Y2982D01*
X11818D01*
X11792Y2957D01*
Y2932D01*
X11818Y2906D01*
X11894D01*
X7397Y5328D02*
Y5201D01*
X7423Y5176D01*
X7473D01*
X7499Y5201D01*
Y5328D01*
X7550Y5176D02*
X7600D01*
X7575D01*
Y5328D01*
X7550Y5303D01*
X7677D02*
X7702Y5328D01*
X7753D01*
X7778Y5303D01*
Y5201D01*
X7753Y5176D01*
X7702D01*
X7677Y5201D01*
Y5303D01*
X1715Y2464D02*
Y2337D01*
X1740Y2311D01*
X1791D01*
X1816Y2337D01*
Y2464D01*
X1968D02*
X1867D01*
Y2388D01*
X1918Y2413D01*
X1943D01*
X1968Y2388D01*
Y2337D01*
X1943Y2311D01*
X1892D01*
X1867Y2337D01*
X3495Y3817D02*
Y3690D01*
X3520Y3665D01*
X3571D01*
X3597Y3690D01*
Y3817D01*
X3724Y3665D02*
Y3817D01*
X3647Y3741D01*
X3749D01*
X5702Y7417D02*
Y7290D01*
X5728Y7264D01*
X5778D01*
X5804Y7290D01*
Y7417D01*
X5855Y7391D02*
X5880Y7417D01*
X5931D01*
X5956Y7391D01*
Y7366D01*
X5931Y7341D01*
X5905D01*
X5931D01*
X5956Y7315D01*
Y7290D01*
X5931Y7264D01*
X5880D01*
X5855Y7290D01*
X4892Y7148D02*
Y7300D01*
X4968D01*
X4994Y7275D01*
Y7224D01*
X4968Y7198D01*
X4892D01*
X4943D02*
X4994Y7148D01*
X5044Y7275D02*
X5070Y7300D01*
X5121D01*
X5146Y7275D01*
Y7249D01*
X5121Y7224D01*
X5095D01*
X5121D01*
X5146Y7198D01*
Y7173D01*
X5121Y7148D01*
X5070D01*
X5044Y7173D01*
X8014Y9779D02*
X7963D01*
X7988D01*
Y9652D01*
X7963Y9627D01*
X7937D01*
X7912Y9652D01*
X8064Y9754D02*
X8090Y9779D01*
X8141D01*
X8166Y9754D01*
Y9728D01*
X8141Y9703D01*
X8115D01*
X8141D01*
X8166Y9677D01*
Y9652D01*
X8141Y9627D01*
X8090D01*
X8064Y9652D01*
X2740Y9378D02*
Y9530D01*
X2816D01*
X2842Y9504D01*
Y9454D01*
X2816Y9428D01*
X2740D01*
X2791D02*
X2842Y9378D01*
X2994D02*
X2892D01*
X2994Y9479D01*
Y9504D01*
X2969Y9530D01*
X2918D01*
X2892Y9504D01*
X6975Y7381D02*
X6949Y7407D01*
X6899D01*
X6873Y7381D01*
Y7280D01*
X6899Y7254D01*
X6949D01*
X6975Y7280D01*
X7026Y7254D02*
X7076D01*
X7051D01*
Y7407D01*
X7026Y7381D01*
X5052Y8029D02*
X5027Y8054D01*
X4976D01*
X4950Y8029D01*
Y7927D01*
X4976Y7902D01*
X5027D01*
X5052Y7927D01*
X5204Y7902D02*
X5103D01*
X5204Y8004D01*
Y8029D01*
X5179Y8054D01*
X5128D01*
X5103Y8029D01*
X6939Y6329D02*
X6914Y6355D01*
X6863D01*
X6838Y6329D01*
Y6228D01*
X6863Y6203D01*
X6914D01*
X6939Y6228D01*
X6990Y6329D02*
X7015Y6355D01*
X7066D01*
X7091Y6329D01*
Y6304D01*
X7066Y6279D01*
X7041D01*
X7066D01*
X7091Y6253D01*
Y6228D01*
X7066Y6203D01*
X7015D01*
X6990Y6228D01*
X6094Y5044D02*
X6069Y5070D01*
X6018D01*
X5992Y5044D01*
Y4943D01*
X6018Y4917D01*
X6069D01*
X6094Y4943D01*
X6221Y4917D02*
Y5070D01*
X6145Y4994D01*
X6246D01*
X5733Y9769D02*
X5682D01*
X5707D01*
Y9642D01*
X5682Y9616D01*
X5657D01*
X5631Y9642D01*
X5784Y9616D02*
X5834D01*
X5809D01*
Y9769D01*
X5784Y9743D01*
X5370Y7899D02*
Y8052D01*
X5446D01*
X5471Y8026D01*
Y7976D01*
X5446Y7950D01*
X5370D01*
X5420D02*
X5471Y7899D01*
X5522D02*
X5573D01*
X5547D01*
Y8052D01*
X5522Y8026D01*
X2918Y9756D02*
X2868D01*
X2893D01*
Y9629D01*
X2868Y9604D01*
X2842D01*
X2817Y9629D01*
X3071Y9604D02*
X2969D01*
X3071Y9705D01*
Y9731D01*
X3045Y9756D01*
X2995D01*
X2969Y9731D01*
X1289Y1627D02*
X1264Y1652D01*
X1213D01*
X1188Y1627D01*
Y1525D01*
X1213Y1500D01*
X1264D01*
X1289Y1525D01*
X1340D02*
X1365Y1500D01*
X1416D01*
X1441Y1525D01*
Y1627D01*
X1416Y1652D01*
X1365D01*
X1340Y1627D01*
Y1602D01*
X1365Y1576D01*
X1441D01*
X2624Y1012D02*
X2599Y1037D01*
X2548D01*
X2523Y1012D01*
Y910D01*
X2548Y885D01*
X2599D01*
X2624Y910D01*
X2675Y885D02*
X2726D01*
X2700D01*
Y1037D01*
X2675Y1012D01*
X2802Y885D02*
X2853D01*
X2827D01*
Y1037D01*
X2802Y1012D01*
X5149Y4967D02*
X5098D01*
X5124D01*
Y4840D01*
X5098Y4815D01*
X5073D01*
X5047Y4840D01*
X5200Y4942D02*
X5225Y4967D01*
X5276D01*
X5301Y4942D01*
Y4917D01*
X5276Y4891D01*
X5301Y4866D01*
Y4840D01*
X5276Y4815D01*
X5225D01*
X5200Y4840D01*
Y4866D01*
X5225Y4891D01*
X5200Y4917D01*
Y4942D01*
X5225Y4891D02*
X5276D01*
X11192Y9030D02*
X11141D01*
X11166D01*
Y8903D01*
X11141Y8878D01*
X11115D01*
X11090Y8903D01*
X11319Y8878D02*
Y9030D01*
X11242Y8954D01*
X11344D01*
X2132Y6487D02*
X2081D01*
X2106D01*
Y6360D01*
X2081Y6335D01*
X2055D01*
X2030Y6360D01*
X2284Y6487D02*
X2182D01*
Y6411D01*
X2233Y6437D01*
X2259D01*
X2284Y6411D01*
Y6360D01*
X2259Y6335D01*
X2208D01*
X2182Y6360D01*
X1527Y9230D02*
X1476D01*
X1501D01*
Y9103D01*
X1476Y9078D01*
X1450D01*
X1425Y9103D01*
X1679Y9230D02*
X1628Y9204D01*
X1577Y9154D01*
Y9103D01*
X1603Y9078D01*
X1654D01*
X1679Y9103D01*
Y9128D01*
X1654Y9154D01*
X1577D01*
X4290Y1875D02*
Y2027D01*
X4366D01*
X4392Y2002D01*
Y1951D01*
X4366Y1926D01*
X4290D01*
X4442Y2027D02*
Y1875D01*
X4493Y1926D01*
X4544Y1875D01*
Y2027D01*
X4595D02*
Y1875D01*
X4671D01*
X4696Y1900D01*
Y2002D01*
X4671Y2027D01*
X4595D01*
X657Y9007D02*
X759Y8855D01*
Y9007D02*
X657Y8855D01*
X911D02*
X810D01*
X911Y8957D01*
Y8982D01*
X886Y9007D01*
X835D01*
X810Y8982D01*
X1115Y8855D02*
Y8957D01*
X1165Y9007D01*
X1216Y8957D01*
Y8855D01*
Y8931D01*
X1115D01*
X1267Y8957D02*
X1368Y8855D01*
X1318Y8906D01*
X1368Y8957D01*
X1267Y8855D01*
X1419D02*
X1470D01*
X1445D01*
Y8957D01*
X1419D01*
X1546Y8855D02*
X1622D01*
X1648Y8880D01*
X1622Y8906D01*
X1572D01*
X1546Y8931D01*
X1572Y8957D01*
X1648D01*
X1323Y6252D02*
X1424Y6100D01*
Y6252D02*
X1323Y6100D01*
X1475D02*
X1526D01*
X1500D01*
Y6252D01*
X1475Y6227D01*
X1754Y6100D02*
Y6202D01*
X1805Y6252D01*
X1856Y6202D01*
Y6100D01*
Y6176D01*
X1754D01*
X1907Y6202D02*
X2008Y6100D01*
X1957Y6151D01*
X2008Y6202D01*
X1907Y6100D01*
X2059D02*
X2110D01*
X2084D01*
Y6202D01*
X2059D01*
X2186Y6100D02*
X2262D01*
X2287Y6125D01*
X2262Y6151D01*
X2211D01*
X2186Y6176D01*
X2211Y6202D01*
X2287D01*
X11090Y9267D02*
Y9242D01*
X11141Y9191D01*
X11192Y9242D01*
Y9267D01*
X11141Y9191D02*
Y9115D01*
X11395D02*
Y9217D01*
X11445Y9267D01*
X11496Y9217D01*
Y9115D01*
Y9191D01*
X11395D01*
X11547Y9217D02*
X11649Y9115D01*
X11598Y9166D01*
X11649Y9217D01*
X11547Y9115D01*
X11699D02*
X11750D01*
X11725D01*
Y9217D01*
X11699D01*
X11826Y9115D02*
X11903D01*
X11928Y9140D01*
X11903Y9166D01*
X11852D01*
X11826Y9191D01*
X11852Y9217D01*
X11928D01*
X7661Y4937D02*
X7763D01*
X7712Y4988D02*
Y4886D01*
X6374Y712D02*
Y212D01*
X6398Y712D02*
Y212D01*
X6303Y712D02*
X6541D01*
X6612Y689D01*
X6660Y641D01*
X6683Y593D01*
X6707Y522D01*
Y403D01*
X6683Y332D01*
X6660Y284D01*
X6612Y236D01*
X6541Y212D01*
X6303D01*
X6541Y712D02*
X6588Y689D01*
X6636Y641D01*
X6660Y593D01*
X6683Y522D01*
Y403D01*
X6660Y332D01*
X6636Y284D01*
X6588Y236D01*
X6541Y212D01*
X6917Y546D02*
X6845Y522D01*
X6798Y474D01*
X6774Y403D01*
Y355D01*
X6798Y284D01*
X6845Y236D01*
X6917Y212D01*
X6964D01*
X7036Y236D01*
X7083Y284D01*
X7107Y355D01*
Y403D01*
X7083Y474D01*
X7036Y522D01*
X6964Y546D01*
X6917D01*
X6869Y522D01*
X6821Y474D01*
X6798Y403D01*
Y355D01*
X6821Y284D01*
X6869Y236D01*
X6917Y212D01*
X6964D02*
X7012Y236D01*
X7059Y284D01*
X7083Y355D01*
Y403D01*
X7059Y474D01*
X7012Y522D01*
X6964Y546D01*
X7324Y212D02*
X7300Y236D01*
X7276Y308D01*
Y712D01*
X7252D01*
Y308D01*
X7276Y236D01*
X7324Y212D01*
X7371D01*
X7419Y236D01*
X7443Y284D01*
X7181Y546D02*
X7371D01*
X8045Y712D02*
Y212D01*
X8069Y712D02*
X8212Y284D01*
X8045Y712D02*
X8212Y212D01*
X8378Y712D02*
X8212Y212D01*
X8378Y712D02*
Y212D01*
X8402Y712D02*
Y212D01*
X7974Y712D02*
X8069D01*
X8378D02*
X8473D01*
X7974Y212D02*
X8116D01*
X8307D02*
X8473D01*
X8578Y498D02*
Y474D01*
X8554D01*
Y498D01*
X8578Y522D01*
X8626Y546D01*
X8721D01*
X8769Y522D01*
X8792Y498D01*
X8816Y451D01*
Y284D01*
X8840Y236D01*
X8864Y212D01*
X8792Y498D02*
Y284D01*
X8816Y236D01*
X8864Y212D01*
X8888D01*
X8792Y451D02*
X8769Y427D01*
X8626Y403D01*
X8554Y379D01*
X8531Y332D01*
Y284D01*
X8554Y236D01*
X8626Y212D01*
X8697D01*
X8745Y236D01*
X8792Y284D01*
X8626Y403D02*
X8578Y379D01*
X8554Y332D01*
Y284D01*
X8578Y236D01*
X8626Y212D01*
X9245Y474D02*
X9221Y451D01*
X9245Y427D01*
X9269Y451D01*
Y474D01*
X9221Y522D01*
X9173Y546D01*
X9102D01*
X9030Y522D01*
X8983Y474D01*
X8959Y403D01*
Y355D01*
X8983Y284D01*
X9030Y236D01*
X9102Y212D01*
X9150D01*
X9221Y236D01*
X9269Y284D01*
X9102Y546D02*
X9054Y522D01*
X9007Y474D01*
X8983Y403D01*
Y355D01*
X9007Y284D01*
X9054Y236D01*
X9102Y212D01*
X9416Y712D02*
Y212D01*
X9440Y712D02*
Y212D01*
Y474D02*
X9488Y522D01*
X9559Y546D01*
X9607D01*
X9678Y522D01*
X9702Y474D01*
Y212D01*
X9607Y546D02*
X9654Y522D01*
X9678Y474D01*
Y212D01*
X9345Y712D02*
X9440D01*
X9345Y212D02*
X9511D01*
X9607D02*
X9773D01*
X9909Y712D02*
X9885Y689D01*
X9909Y665D01*
X9933Y689D01*
X9909Y712D01*
Y546D02*
Y212D01*
X9933Y546D02*
Y212D01*
X9837Y546D02*
X9933D01*
X9837Y212D02*
X10004D01*
X10166Y546D02*
Y212D01*
X10190Y546D02*
Y212D01*
Y474D02*
X10237Y522D01*
X10309Y546D01*
X10356D01*
X10428Y522D01*
X10452Y474D01*
Y212D01*
X10356Y546D02*
X10404Y522D01*
X10428Y474D01*
Y212D01*
X10095Y546D02*
X10190D01*
X10095Y212D02*
X10261D01*
X10356D02*
X10523D01*
X10611Y403D02*
X10897D01*
Y451D01*
X10873Y498D01*
X10849Y522D01*
X10802Y546D01*
X10730D01*
X10659Y522D01*
X10611Y474D01*
X10587Y403D01*
Y355D01*
X10611Y284D01*
X10659Y236D01*
X10730Y212D01*
X10778D01*
X10849Y236D01*
X10897Y284D01*
X10873Y403D02*
Y474D01*
X10849Y522D01*
X10730Y546D02*
X10683Y522D01*
X10635Y474D01*
X10611Y403D01*
Y355D01*
X10635Y284D01*
X10683Y236D01*
X10730Y212D01*
X11470Y712D02*
X11637Y212D01*
X11494Y712D02*
X11637Y284D01*
X11804Y712D02*
X11637Y212D01*
X11423Y712D02*
X11566D01*
X11708D02*
X11851D01*
X11916Y617D02*
X11963Y641D01*
X12035Y712D01*
Y212D01*
X12011Y689D02*
Y212D01*
X11916D02*
X12130D01*
X12239Y260D02*
X12216Y236D01*
X12239Y212D01*
X12263Y236D01*
X12239Y260D01*
X12389Y617D02*
X12413Y593D01*
X12389Y570D01*
X12365Y593D01*
Y617D01*
X12389Y665D01*
X12413Y689D01*
X12485Y712D01*
X12580D01*
X12651Y689D01*
X12675Y641D01*
Y570D01*
X12651Y522D01*
X12580Y498D01*
X12508D01*
X12580Y712D02*
X12627Y689D01*
X12651Y641D01*
Y570D01*
X12627Y522D01*
X12580Y498D01*
X12627Y474D01*
X12675Y427D01*
X12699Y379D01*
Y308D01*
X12675Y260D01*
X12651Y236D01*
X12580Y212D01*
X12485D01*
X12413Y236D01*
X12389Y260D01*
X12365Y308D01*
Y332D01*
X12389Y355D01*
X12413Y332D01*
X12389Y308D01*
X12651Y451D02*
X12675Y379D01*
Y308D01*
X12651Y260D01*
X12627Y236D01*
X12580Y212D01*
X12796Y260D02*
X12773Y236D01*
X12796Y212D01*
X12820Y236D01*
X12796Y260D01*
X12923Y617D02*
X12970Y641D01*
X13042Y712D01*
Y212D01*
X13018Y689D02*
Y212D01*
X12923D02*
X13137D01*
X13460Y665D02*
Y212D01*
X13603Y355D02*
X13222D01*
X13484Y712D01*
Y212D01*
X13389D02*
X13556D01*
X-16Y10545D02*
X6610D01*
X7757D02*
X14384D01*
X-16D02*
X136Y10596D01*
X-16Y10545D02*
X136Y10494D01*
X14231Y10596D02*
X14384Y10545D01*
X14231Y10494D02*
X14384Y10545D01*
X-16Y10520D02*
Y10570D01*
X14384Y10520D02*
Y10570D01*
X-663Y10011D02*
X-662Y5585D01*
X-662Y4438D02*
X-662Y11D01*
X-663Y10011D02*
X-612Y9859D01*
X-713D02*
X-663Y10011D01*
X-662Y11D02*
X-612Y164D01*
X-713D02*
X-662Y11D01*
X-688Y10011D02*
X-637D01*
X-688Y11D02*
X-637D01*
D20*
X0Y10000D02*
X0Y0D01*
X0Y10000D02*
X14400D01*
Y0D02*
Y10000D01*
X0Y0D02*
X14400Y0D01*
D22*
X8172Y4480D02*
G03*
X8172Y4480I-600J0D01*
G01*
D23*
X9808Y3075D02*
G03*
X9808Y3075I-50J0D01*
G01*
X13006Y2960D02*
G03*
X13006Y2960I-50J0D01*
G01*
X1741Y3448D02*
G03*
X1741Y3448I-50J0D01*
G01*
X5589Y7089D02*
G03*
X5589Y7089I-50J0D01*
G01*
X3532Y3499D02*
G03*
X3532Y3499I-50J0D01*
G01*
X9668Y2185D02*
X10118D01*
X9668Y3165D02*
X10118D01*
Y2185D02*
Y3165D01*
X9668Y2185D02*
Y3165D01*
X12866Y2070D02*
X13316D01*
X12866Y3050D02*
X13316D01*
Y2070D02*
Y3050D01*
X12866Y2070D02*
Y3050D01*
X3760Y4103D02*
X3980D01*
X3760Y3967D02*
X3980D01*
Y4103D01*
X3760Y3967D02*
Y4103D01*
X5317Y7639D02*
X5412D01*
X5317Y7814D02*
X5412D01*
X5317Y7639D02*
Y7814D01*
X5412Y7639D02*
Y7814D01*
X5940Y5177D02*
Y5272D01*
X5765Y5177D02*
Y5272D01*
Y5177D02*
X5940D01*
X5765Y5272D02*
X5940D01*
X6904Y6107D02*
X6999D01*
X6904Y5932D02*
X6999D01*
Y6107D01*
X6904Y5932D02*
Y6107D01*
X5071Y7812D02*
X5166D01*
X5071Y7637D02*
X5166D01*
Y7812D01*
X5071Y7637D02*
Y7812D01*
X6879Y6953D02*
X6974D01*
X6879Y7128D02*
X6974D01*
X6879Y6953D02*
Y7128D01*
X6974Y6953D02*
Y7128D01*
X2861Y9216D02*
Y9311D01*
X3036Y9216D02*
Y9311D01*
X2861D02*
X3036D01*
X2861Y9216D02*
X3036D01*
X5091Y7357D02*
Y7452D01*
X4916Y7357D02*
Y7452D01*
Y7357D02*
X5091D01*
X4916Y7452D02*
X5091D01*
X1601Y2558D02*
X2051D01*
X1601Y3538D02*
X2051D01*
Y2558D02*
Y3538D01*
X1601Y2558D02*
Y3538D01*
X11240Y2967D02*
Y3188D01*
X11375Y2967D02*
Y3188D01*
X11240D02*
X11375D01*
X11240Y2967D02*
X11375D01*
X1252Y1727D02*
X1427D01*
X1252Y1823D02*
X1427D01*
Y1727D02*
Y1823D01*
X1252Y1727D02*
Y1823D01*
X5449Y5389D02*
X6209D01*
X5449Y7179D02*
X6209D01*
Y5389D02*
Y7179D01*
X5449Y5389D02*
Y7179D01*
X1461Y1348D02*
X2131D01*
X1461Y978D02*
X2131D01*
Y1348D01*
X1461Y978D02*
Y1348D01*
X2352Y1127D02*
Y1223D01*
X2527Y1127D02*
Y1223D01*
X2352D02*
X2527D01*
X2352Y1127D02*
X2527D01*
X3392Y2609D02*
X3842D01*
X3392Y3589D02*
X3842D01*
Y2609D02*
Y3589D01*
X3392Y2609D02*
Y3589D01*
X9893Y2625D02*
Y2725D01*
X9843Y2675D02*
X9943D01*
X13091Y2510D02*
Y2610D01*
X13041Y2560D02*
X13141D01*
X3870Y3985D02*
Y4085D01*
X3820Y4035D02*
X3920D01*
X5364Y7679D02*
Y7774D01*
X5317Y7727D02*
X5412D01*
X5805Y5225D02*
X5900D01*
X5852Y5177D02*
Y5272D01*
X6952Y5972D02*
Y6067D01*
X6904Y6020D02*
X6999D01*
X5118Y7677D02*
Y7772D01*
X5071Y7724D02*
X5166D01*
X6927Y6993D02*
Y7088D01*
X6879Y7041D02*
X6974D01*
X2901Y9263D02*
X2996D01*
X2949Y9216D02*
Y9311D01*
X4956Y7404D02*
X5051D01*
X5004Y7357D02*
Y7452D01*
X1826Y2998D02*
Y3098D01*
X1776Y3048D02*
X1876D01*
X11257Y3077D02*
X11357D01*
X11307Y3027D02*
Y3127D01*
X1340Y1727D02*
Y1823D01*
X1293Y1775D02*
X1388D01*
X5829Y6234D02*
Y6334D01*
X5779Y6284D02*
X5879D01*
X1796Y1113D02*
Y1213D01*
X1746Y1163D02*
X1846D01*
X2392Y1175D02*
X2488D01*
X2440Y1127D02*
Y1223D01*
X3617Y3049D02*
Y3149D01*
X3567Y3099D02*
X3667D01*
D24*
X9506Y2160D02*
X10281D01*
X9506Y3190D02*
X10281D01*
Y2160D02*
Y3190D01*
X9506Y2160D02*
Y3190D01*
X12704Y2045D02*
X13479D01*
X12704Y3075D02*
X13479D01*
Y2045D02*
Y3075D01*
X12704Y2045D02*
Y3075D01*
X3735Y4208D02*
X4005D01*
X3735Y3862D02*
X4005D01*
Y4208D01*
X3735Y3862D02*
Y4208D01*
X5289Y7592D02*
X5439D01*
X5289Y7862D02*
X5439D01*
X5289Y7592D02*
Y7862D01*
X5439Y7592D02*
Y7862D01*
X5987Y5150D02*
Y5300D01*
X5717Y5150D02*
Y5300D01*
Y5150D02*
X5987D01*
X5717Y5300D02*
X5987D01*
X6877Y6155D02*
X7027D01*
X6877Y5885D02*
X7027D01*
Y6155D01*
X6877Y5885D02*
Y6155D01*
X5043Y7859D02*
X5193D01*
X5043Y7589D02*
X5193D01*
Y7859D01*
X5043Y7589D02*
Y7859D01*
X6852Y6906D02*
X7002D01*
X6852Y7176D02*
X7002D01*
X6852Y6906D02*
Y7176D01*
X7002Y6906D02*
Y7176D01*
X2814Y9188D02*
Y9338D01*
X3084Y9188D02*
Y9338D01*
X2814D02*
X3084D01*
X2814Y9188D02*
X3084D01*
X5139Y7329D02*
Y7479D01*
X4869Y7329D02*
Y7479D01*
Y7329D02*
X5139D01*
X4869Y7479D02*
X5139D01*
X1439Y2533D02*
X2214D01*
X1439Y3563D02*
X2214D01*
Y2533D02*
Y3563D01*
X1439Y2533D02*
Y3563D01*
X11135Y2942D02*
Y3212D01*
X11480Y2942D02*
Y3212D01*
X11135D02*
X11480D01*
X11135Y2942D02*
X11480D01*
X1205Y1700D02*
X1475D01*
X1205Y1850D02*
X1475D01*
Y1700D02*
Y1850D01*
X1205Y1700D02*
Y1850D01*
X5237Y5364D02*
X6422D01*
X5237Y7204D02*
X6422D01*
Y5364D02*
Y7204D01*
X5237Y5364D02*
Y7204D01*
X1436Y1598D02*
X2156D01*
X1436Y728D02*
X2156D01*
Y1598D01*
X1436Y728D02*
Y1598D01*
X2305Y1100D02*
Y1250D01*
X2575Y1100D02*
Y1250D01*
X2305D02*
X2575D01*
X2305Y1100D02*
X2575D01*
X3229Y2584D02*
X4004D01*
X3229Y3614D02*
X4004D01*
Y2584D02*
Y3614D01*
X3229Y2584D02*
Y3614D01*
D25*
X6635Y10454D02*
X6686D01*
X6661D01*
Y10606D01*
X6635Y10581D01*
X6838Y10454D02*
Y10606D01*
X6762Y10530D01*
X6864D01*
X6991Y10454D02*
Y10606D01*
X6914Y10530D01*
X7016D01*
X7270Y10454D02*
X7219Y10504D01*
Y10555D01*
X7270Y10606D01*
X7346Y10454D02*
Y10555D01*
X7372D01*
X7397Y10530D01*
Y10454D01*
Y10530D01*
X7422Y10555D01*
X7448Y10530D01*
Y10454D01*
X7498D02*
Y10555D01*
X7524D01*
X7549Y10530D01*
Y10454D01*
Y10530D01*
X7575Y10555D01*
X7600Y10530D01*
Y10454D01*
X7651D02*
X7702Y10504D01*
Y10555D01*
X7651Y10606D01*
X-754Y5560D02*
Y5509D01*
Y5534D01*
X-602D01*
X-627Y5560D01*
Y5433D02*
X-602Y5407D01*
Y5357D01*
X-627Y5331D01*
X-729D01*
X-754Y5357D01*
Y5407D01*
X-729Y5433D01*
X-627D01*
Y5281D02*
X-602Y5255D01*
Y5204D01*
X-627Y5179D01*
X-729D01*
X-754Y5204D01*
Y5255D01*
X-729Y5281D01*
X-627D01*
X-754Y4925D02*
X-703Y4976D01*
X-652D01*
X-602Y4925D01*
X-754Y4849D02*
X-652D01*
Y4823D01*
X-678Y4798D01*
X-754D01*
X-678D01*
X-652Y4773D01*
X-678Y4747D01*
X-754D01*
Y4697D02*
X-652D01*
Y4671D01*
X-678Y4646D01*
X-754D01*
X-678D01*
X-652Y4620D01*
X-678Y4595D01*
X-754D01*
Y4544D02*
X-703Y4493D01*
X-652D01*
X-602Y4544D01*
D31*
X9838Y3065D02*
G03*
X9838Y3065I-30J0D01*
G01*
X13036Y2950D02*
G03*
X13036Y2950I-30J0D01*
G01*
X1771Y3438D02*
G03*
X1771Y3438I-30J0D01*
G01*
X5619Y7079D02*
G03*
X5619Y7079I-30J0D01*
G01*
X3562Y3489D02*
G03*
X3562Y3489I-30J0D01*
G01*
D32*
X9611Y3175D02*
G03*
X9611Y3175I-12J0D01*
G01*
X12809Y3060D02*
G03*
X12809Y3060I-12J0D01*
G01*
X4022Y4142D02*
G03*
X4022Y4142I-12J0D01*
G01*
X1544Y3548D02*
G03*
X1544Y3548I-12J0D01*
G01*
X11212Y3217D02*
G03*
X11212Y3217I-12J0D01*
G01*
X5367Y7194D02*
G03*
X5367Y7194I-12J0D01*
G01*
X2138Y1461D02*
G03*
X2138Y1461I-12J0D01*
G01*
X3334Y3599D02*
G03*
X3334Y3599I-12J0D01*
G01*
D33*
X9708Y2185D02*
X10078D01*
X9708Y3165D02*
X10078D01*
Y2185D02*
Y3165D01*
X9708Y2185D02*
Y3165D01*
X12906Y2070D02*
X13276D01*
X12906Y3050D02*
X13276D01*
Y2070D02*
Y3050D01*
X12906Y2070D02*
Y3050D01*
X3980Y4005D02*
Y4065D01*
X3760Y4005D02*
Y4065D01*
X3980D01*
X3760Y4005D02*
X3980D01*
X1641Y2558D02*
X2011D01*
X1641Y3538D02*
X2011D01*
Y2558D02*
Y3538D01*
X1641Y2558D02*
Y3538D01*
X11278Y3188D02*
X11338D01*
X11278Y2967D02*
X11338D01*
X11278D02*
Y3188D01*
X11338Y2967D02*
Y3188D01*
X5489Y5389D02*
X6169D01*
X5489Y7179D02*
X6169D01*
Y5389D02*
Y7179D01*
X5489Y5389D02*
Y7179D01*
X1461Y1318D02*
X2131D01*
X1461Y1008D02*
X2131D01*
Y1318D01*
X1461Y1008D02*
Y1318D01*
X3432Y2609D02*
X3802D01*
X3432Y3589D02*
X3802D01*
Y2609D02*
Y3589D01*
X3432Y2609D02*
Y3589D01*
M02*
