%FSLAX42Y42*%
%MOMM*%
G71*
G01*
G75*
%ADD10O,1.40X0.45*%
%ADD11R,0.40X0.80*%
%ADD12R,1.00X0.90*%
%ADD13R,0.90X1.00*%
%ADD14R,0.80X0.40*%
%ADD15O,1.90X0.60*%
%ADD16R,0.90X2.25*%
%ADD17R,3.25X2.25*%
%ADD18C,0.25*%
%ADD19C,0.40*%
%ADD20C,0.30*%
%ADD21C,0.80*%
%ADD22C,0.50*%
%ADD23C,0.10*%
%ADD24C,0.05*%
%ADD25C,0.15*%
%ADD26C,1.50*%
%ADD27C,5.00*%
%ADD28C,2.00*%
%ADD29C,1.27*%
%ADD30C,6.00*%
%ADD31C,0.60*%
%ADD32C,0.25*%
%ADD33C,0.20*%
%ADD34O,1.60X0.65*%
%ADD35R,0.66X1.06*%
%ADD36R,0.60X1.00*%
%ADD37R,1.20X1.10*%
%ADD38R,1.10X1.20*%
%ADD39R,1.06X0.66*%
%ADD40R,1.00X0.60*%
%ADD41O,2.10X0.80*%
%ADD42R,1.10X2.45*%
%ADD43R,3.45X2.45*%
%ADD44C,1.70*%
%ADD45C,5.20*%
%ADD46C,2.20*%
%ADD47C,1.47*%
%ADD48C,6.20*%
%ADD49C,0.08*%
%ADD50C,0.38*%
%ADD51C,0.41*%
%ADD52C,0.13*%
D18*
X-16Y10545D02*
X6610D01*
X7757D02*
X14384D01*
X-16D02*
X136Y10596D01*
X-16Y10545D02*
X136Y10494D01*
X14231Y10596D02*
X14384Y10545D01*
X14231Y10494D02*
X14384Y10545D01*
X-16Y10520D02*
Y10570D01*
X14384Y10520D02*
Y10570D01*
X-663Y10011D02*
X-662Y5585D01*
X-662Y4438D02*
X-662Y11D01*
X-663Y10011D02*
X-612Y9859D01*
X-713D02*
X-663Y10011D01*
X-662Y11D02*
X-612Y164D01*
X-713D02*
X-662Y11D01*
X-688Y10011D02*
X-637D01*
X-688Y11D02*
X-637D01*
D20*
X0Y10000D02*
X0Y0D01*
X0Y10000D02*
X14400D01*
Y0D02*
Y10000D01*
X0Y0D02*
X14400Y0D01*
D23*
X9808Y3075D02*
G03*
X9808Y3075I-50J0D01*
G01*
X13006Y2960D02*
G03*
X13006Y2960I-50J0D01*
G01*
X1741Y3448D02*
G03*
X1741Y3448I-50J0D01*
G01*
X5589Y7089D02*
G03*
X5589Y7089I-50J0D01*
G01*
X3532Y3499D02*
G03*
X3532Y3499I-50J0D01*
G01*
X9668Y2185D02*
X10118D01*
X9668Y3165D02*
X10118D01*
Y2185D02*
Y3165D01*
X9668Y2185D02*
Y3165D01*
X12866Y2070D02*
X13316D01*
X12866Y3050D02*
X13316D01*
Y2070D02*
Y3050D01*
X12866Y2070D02*
Y3050D01*
X3760Y4103D02*
X3980D01*
X3760Y3967D02*
X3980D01*
Y4103D01*
X3760Y3967D02*
Y4103D01*
X5317Y7639D02*
X5412D01*
X5317Y7814D02*
X5412D01*
X5317Y7639D02*
Y7814D01*
X5412Y7639D02*
Y7814D01*
X5940Y5177D02*
Y5272D01*
X5765Y5177D02*
Y5272D01*
Y5177D02*
X5940D01*
X5765Y5272D02*
X5940D01*
X6904Y6107D02*
X6999D01*
X6904Y5932D02*
X6999D01*
Y6107D01*
X6904Y5932D02*
Y6107D01*
X5071Y7812D02*
X5166D01*
X5071Y7637D02*
X5166D01*
Y7812D01*
X5071Y7637D02*
Y7812D01*
X6879Y6953D02*
X6974D01*
X6879Y7128D02*
X6974D01*
X6879Y6953D02*
Y7128D01*
X6974Y6953D02*
Y7128D01*
X2861Y9216D02*
Y9311D01*
X3036Y9216D02*
Y9311D01*
X2861D02*
X3036D01*
X2861Y9216D02*
X3036D01*
X5091Y7357D02*
Y7452D01*
X4916Y7357D02*
Y7452D01*
Y7357D02*
X5091D01*
X4916Y7452D02*
X5091D01*
X1601Y2558D02*
X2051D01*
X1601Y3538D02*
X2051D01*
Y2558D02*
Y3538D01*
X1601Y2558D02*
Y3538D01*
X11240Y2967D02*
Y3188D01*
X11375Y2967D02*
Y3188D01*
X11240D02*
X11375D01*
X11240Y2967D02*
X11375D01*
X1252Y1727D02*
X1427D01*
X1252Y1823D02*
X1427D01*
Y1727D02*
Y1823D01*
X1252Y1727D02*
Y1823D01*
X5449Y5389D02*
X6209D01*
X5449Y7179D02*
X6209D01*
Y5389D02*
Y7179D01*
X5449Y5389D02*
Y7179D01*
X1461Y1348D02*
X2131D01*
X1461Y978D02*
X2131D01*
Y1348D01*
X1461Y978D02*
Y1348D01*
X2352Y1127D02*
Y1223D01*
X2527Y1127D02*
Y1223D01*
X2352D02*
X2527D01*
X2352Y1127D02*
X2527D01*
X3392Y2609D02*
X3842D01*
X3392Y3589D02*
X3842D01*
Y2609D02*
Y3589D01*
X3392Y2609D02*
Y3589D01*
X9893Y2625D02*
Y2725D01*
X9843Y2675D02*
X9943D01*
X13091Y2510D02*
Y2610D01*
X13041Y2560D02*
X13141D01*
X3870Y3985D02*
Y4085D01*
X3820Y4035D02*
X3920D01*
X5364Y7679D02*
Y7774D01*
X5317Y7727D02*
X5412D01*
X5805Y5225D02*
X5900D01*
X5852Y5177D02*
Y5272D01*
X6952Y5972D02*
Y6067D01*
X6904Y6020D02*
X6999D01*
X5118Y7677D02*
Y7772D01*
X5071Y7724D02*
X5166D01*
X6927Y6993D02*
Y7088D01*
X6879Y7041D02*
X6974D01*
X2901Y9263D02*
X2996D01*
X2949Y9216D02*
Y9311D01*
X4956Y7404D02*
X5051D01*
X5004Y7357D02*
Y7452D01*
X1826Y2998D02*
Y3098D01*
X1776Y3048D02*
X1876D01*
X11257Y3077D02*
X11357D01*
X11307Y3027D02*
Y3127D01*
X1340Y1727D02*
Y1823D01*
X1293Y1775D02*
X1388D01*
X5829Y6234D02*
Y6334D01*
X5779Y6284D02*
X5879D01*
X1796Y1113D02*
Y1213D01*
X1746Y1163D02*
X1846D01*
X2392Y1175D02*
X2488D01*
X2440Y1127D02*
Y1223D01*
X3617Y3049D02*
Y3149D01*
X3567Y3099D02*
X3667D01*
D24*
X9506Y2160D02*
X10281D01*
X9506Y3190D02*
X10281D01*
Y2160D02*
Y3190D01*
X9506Y2160D02*
Y3190D01*
X12704Y2045D02*
X13479D01*
X12704Y3075D02*
X13479D01*
Y2045D02*
Y3075D01*
X12704Y2045D02*
Y3075D01*
X3735Y4208D02*
X4005D01*
X3735Y3862D02*
X4005D01*
Y4208D01*
X3735Y3862D02*
Y4208D01*
X5289Y7592D02*
X5439D01*
X5289Y7862D02*
X5439D01*
X5289Y7592D02*
Y7862D01*
X5439Y7592D02*
Y7862D01*
X5987Y5150D02*
Y5300D01*
X5717Y5150D02*
Y5300D01*
Y5150D02*
X5987D01*
X5717Y5300D02*
X5987D01*
X6877Y6155D02*
X7027D01*
X6877Y5885D02*
X7027D01*
Y6155D01*
X6877Y5885D02*
Y6155D01*
X5043Y7859D02*
X5193D01*
X5043Y7589D02*
X5193D01*
Y7859D01*
X5043Y7589D02*
Y7859D01*
X6852Y6906D02*
X7002D01*
X6852Y7176D02*
X7002D01*
X6852Y6906D02*
Y7176D01*
X7002Y6906D02*
Y7176D01*
X2814Y9188D02*
Y9338D01*
X3084Y9188D02*
Y9338D01*
X2814D02*
X3084D01*
X2814Y9188D02*
X3084D01*
X5139Y7329D02*
Y7479D01*
X4869Y7329D02*
Y7479D01*
Y7329D02*
X5139D01*
X4869Y7479D02*
X5139D01*
X1439Y2533D02*
X2214D01*
X1439Y3563D02*
X2214D01*
Y2533D02*
Y3563D01*
X1439Y2533D02*
Y3563D01*
X11135Y2942D02*
Y3212D01*
X11480Y2942D02*
Y3212D01*
X11135D02*
X11480D01*
X11135Y2942D02*
X11480D01*
X1205Y1700D02*
X1475D01*
X1205Y1850D02*
X1475D01*
Y1700D02*
Y1850D01*
X1205Y1700D02*
Y1850D01*
X5237Y5364D02*
X6422D01*
X5237Y7204D02*
X6422D01*
Y5364D02*
Y7204D01*
X5237Y5364D02*
Y7204D01*
X1436Y1598D02*
X2156D01*
X1436Y728D02*
X2156D01*
Y1598D01*
X1436Y728D02*
Y1598D01*
X2305Y1100D02*
Y1250D01*
X2575Y1100D02*
Y1250D01*
X2305D02*
X2575D01*
X2305Y1100D02*
X2575D01*
X3229Y2584D02*
X4004D01*
X3229Y3614D02*
X4004D01*
Y2584D02*
Y3614D01*
X3229Y2584D02*
Y3614D01*
D25*
X6635Y10454D02*
X6686D01*
X6661D01*
Y10606D01*
X6635Y10581D01*
X6838Y10454D02*
Y10606D01*
X6762Y10530D01*
X6864D01*
X6991Y10454D02*
Y10606D01*
X6914Y10530D01*
X7016D01*
X7270Y10454D02*
X7219Y10504D01*
Y10555D01*
X7270Y10606D01*
X7346Y10454D02*
Y10555D01*
X7372D01*
X7397Y10530D01*
Y10454D01*
Y10530D01*
X7422Y10555D01*
X7448Y10530D01*
Y10454D01*
X7498D02*
Y10555D01*
X7524D01*
X7549Y10530D01*
Y10454D01*
Y10530D01*
X7575Y10555D01*
X7600Y10530D01*
Y10454D01*
X7651D02*
X7702Y10504D01*
Y10555D01*
X7651Y10606D01*
X-754Y5560D02*
Y5509D01*
Y5534D01*
X-602D01*
X-627Y5560D01*
Y5433D02*
X-602Y5407D01*
Y5357D01*
X-627Y5331D01*
X-729D01*
X-754Y5357D01*
Y5407D01*
X-729Y5433D01*
X-627D01*
Y5281D02*
X-602Y5255D01*
Y5204D01*
X-627Y5179D01*
X-729D01*
X-754Y5204D01*
Y5255D01*
X-729Y5281D01*
X-627D01*
X-754Y4925D02*
X-703Y4976D01*
X-652D01*
X-602Y4925D01*
X-754Y4849D02*
X-652D01*
Y4823D01*
X-678Y4798D01*
X-754D01*
X-678D01*
X-652Y4773D01*
X-678Y4747D01*
X-754D01*
Y4697D02*
X-652D01*
Y4671D01*
X-678Y4646D01*
X-754D01*
X-678D01*
X-652Y4620D01*
X-678Y4595D01*
X-754D01*
Y4544D02*
X-703Y4493D01*
X-652D01*
X-602Y4544D01*
D52*
X10293Y3445D02*
X10372D01*
X10332Y3405D02*
Y3485D01*
X10293Y3648D02*
X10372D01*
X10332Y3608D02*
Y3688D01*
X10293Y3851D02*
X10372D01*
X10332Y3811D02*
Y3891D01*
X4381Y1102D02*
X4686D01*
X4534Y949D02*
Y1254D01*
X3901Y777D02*
X4206D01*
X4054Y624D02*
Y929D01*
X3876Y1402D02*
X4232D01*
X4054Y1224D02*
Y1580D01*
X7532Y4155D02*
X7612D01*
X7572Y4115D02*
Y4195D01*
X7532Y4805D02*
X7612D01*
X7572Y4765D02*
Y4845D01*
X6006Y9474D02*
X6116D01*
X6061Y9419D02*
Y9529D01*
X6260Y9474D02*
X6370D01*
X6315Y9419D02*
Y9529D01*
X6514Y9474D02*
X6624D01*
X6569Y9419D02*
Y9529D01*
X6768Y9474D02*
X6878D01*
X6823Y9419D02*
Y9529D01*
X7022Y9474D02*
X7132D01*
X7077Y9419D02*
Y9529D01*
X7276Y9474D02*
X7386D01*
X7331Y9419D02*
Y9529D01*
X3242Y9474D02*
X3352D01*
X3297Y9419D02*
Y9529D01*
X3496Y9474D02*
X3606D01*
X3551Y9419D02*
Y9529D01*
X3750Y9474D02*
X3860D01*
X3805Y9419D02*
Y9529D01*
X4004Y9474D02*
X4114D01*
X4059Y9419D02*
Y9529D01*
X4258Y9474D02*
X4368D01*
X4313Y9419D02*
Y9529D01*
X4512Y9474D02*
X4622D01*
X4567Y9419D02*
Y9529D01*
X4766Y9474D02*
X4876D01*
X4821Y9419D02*
Y9529D01*
X5020Y9474D02*
X5130D01*
X5075Y9419D02*
Y9529D01*
X8932Y9474D02*
X9042D01*
X8987Y9419D02*
Y9529D01*
X8678Y9474D02*
X8788D01*
X8733Y9419D02*
Y9529D01*
X8424Y9474D02*
X8534D01*
X8479Y9419D02*
Y9529D01*
X5305Y4052D02*
X5415D01*
X5360Y3997D02*
Y4107D01*
X5305Y4306D02*
X5415D01*
X5360Y4251D02*
Y4361D01*
X5305Y4560D02*
X5415D01*
X5360Y4505D02*
Y4615D01*
X2116Y7038D02*
X2195D01*
X2156Y6997D02*
Y7078D01*
X2116Y7292D02*
X2195D01*
X2156Y7251D02*
Y7332D01*
X2116Y7546D02*
X2195D01*
X2156Y7506D02*
Y7586D01*
X2116Y7800D02*
X2195D01*
X2156Y7760D02*
Y7839D01*
X2116Y8054D02*
X2195D01*
X2156Y8014D02*
Y8093D01*
X2116Y8307D02*
X2195D01*
X2156Y8268D02*
Y8347D01*
X2116Y8561D02*
X2195D01*
X2156Y8521D02*
Y8601D01*
X2116Y8815D02*
X2195D01*
X2156Y8775D02*
Y8856D01*
X2369Y7038D02*
X2450D01*
X2409Y6997D02*
Y7078D01*
X2369Y7292D02*
X2450D01*
X2409Y7251D02*
Y7332D01*
X2369Y7546D02*
X2450D01*
X2409Y7506D02*
Y7586D01*
X2369Y7800D02*
X2450D01*
X2409Y7760D02*
Y7839D01*
X2369Y8054D02*
X2450D01*
X2409Y8014D02*
Y8093D01*
X2369Y8307D02*
X2450D01*
X2409Y8268D02*
Y8347D01*
X2369Y8561D02*
X2450D01*
X2409Y8521D02*
Y8601D01*
X2369Y8815D02*
X2450D01*
X2409Y8775D02*
Y8856D01*
X2713Y4283D02*
X2793D01*
X2753Y4242D02*
Y4322D01*
X2713Y4537D02*
X2793D01*
X2753Y4497D02*
Y4576D01*
X2713Y4790D02*
X2793D01*
X2753Y4751D02*
Y4831D01*
X2713Y5044D02*
X2793D01*
X2753Y5004D02*
Y5085D01*
X2713Y5299D02*
X2793D01*
X2753Y5258D02*
Y5338D01*
X2713Y5553D02*
X2793D01*
X2753Y5512D02*
Y5592D01*
X2713Y5806D02*
X2793D01*
X2753Y5767D02*
Y5847D01*
X2713Y6060D02*
X2793D01*
X2753Y6021D02*
Y6101D01*
X2967Y4283D02*
X3047D01*
X3007Y4242D02*
Y4322D01*
X2967Y4537D02*
X3047D01*
X3007Y4497D02*
Y4576D01*
X2967Y4790D02*
X3047D01*
X3007Y4751D02*
Y4831D01*
X2967Y5044D02*
X3047D01*
X3007Y5004D02*
Y5085D01*
X2967Y5299D02*
X3047D01*
X3007Y5258D02*
Y5338D01*
X2967Y5553D02*
X3047D01*
X3007Y5512D02*
Y5592D01*
X2967Y5806D02*
X3047D01*
X3007Y5767D02*
Y5847D01*
X2967Y6060D02*
X3047D01*
X3007Y6021D02*
Y6101D01*
X11626Y5820D02*
X11706D01*
X11666Y5780D02*
Y5860D01*
X11626Y6328D02*
X11706D01*
X11666Y6288D02*
Y6368D01*
X11626Y6836D02*
X11706D01*
X11666Y6796D02*
Y6876D01*
X11626Y4804D02*
X11706D01*
X11666Y4764D02*
Y4844D01*
X11626Y8106D02*
X11706D01*
X11666Y8066D02*
Y8146D01*
X11372Y8360D02*
X11452D01*
X11412Y8320D02*
Y8400D01*
X11626Y4550D02*
X11706D01*
X11666Y4510D02*
Y4590D01*
X11626Y7344D02*
X11706D01*
X11666Y7304D02*
Y7384D01*
X11372Y6836D02*
X11452D01*
X11412Y6796D02*
Y6876D01*
X11372Y7090D02*
X11452D01*
X11412Y7050D02*
Y7130D01*
X11372Y7852D02*
X11452D01*
X11412Y7812D02*
Y7892D01*
X11372Y5820D02*
X11452D01*
X11412Y5780D02*
Y5860D01*
X11372Y5566D02*
X11452D01*
X11412Y5526D02*
Y5606D01*
X11372Y4296D02*
X11452D01*
X11412Y4256D02*
Y4336D01*
X11626Y4296D02*
X11706D01*
X11666Y4256D02*
Y4336D01*
X11626Y7598D02*
X11706D01*
X11666Y7558D02*
Y7638D01*
X11372Y5058D02*
X11452D01*
X11412Y5018D02*
Y5098D01*
X11372Y8106D02*
X11452D01*
X11412Y8066D02*
Y8146D01*
X11626Y8360D02*
X11706D01*
X11666Y8320D02*
Y8400D01*
X11626Y5058D02*
X11706D01*
X11666Y5018D02*
Y5098D01*
X11372Y6074D02*
X11452D01*
X11412Y6034D02*
Y6114D01*
X11372Y4550D02*
X11452D01*
X11412Y4510D02*
Y4590D01*
X11626Y7852D02*
X11706D01*
X11666Y7812D02*
Y7892D01*
X11626Y6074D02*
X11706D01*
X11666Y6034D02*
Y6114D01*
X11372Y5312D02*
X11452D01*
X11412Y5272D02*
Y5352D01*
X11626Y7090D02*
X11706D01*
X11666Y7050D02*
Y7130D01*
X11626Y6582D02*
X11706D01*
X11666Y6542D02*
Y6622D01*
X11372Y6582D02*
X11452D01*
X11412Y6542D02*
Y6622D01*
X11372Y4804D02*
X11452D01*
X11412Y4764D02*
Y4844D01*
X11372Y7598D02*
X11452D01*
X11412Y7558D02*
Y7638D01*
X11372Y6328D02*
X11452D01*
X11412Y6288D02*
Y6368D01*
X11626Y5312D02*
X11706D01*
X11666Y5272D02*
Y5352D01*
X11626Y5566D02*
X11706D01*
X11666Y5526D02*
Y5606D01*
X11372Y7344D02*
X11452D01*
X11412Y7304D02*
Y7384D01*
X13234Y3228D02*
X13306D01*
X13270Y3192D02*
Y3263D01*
X11067Y3778D02*
X11138D01*
X11103Y3742D02*
Y3813D01*
X9537Y3815D02*
X9608D01*
X9572Y3779D02*
Y3851D01*
X6874Y3820D02*
X6946D01*
X6910Y3784D02*
Y3856D01*
X3509Y3933D02*
X3581D01*
X3545Y3897D02*
Y3968D01*
X1839Y2950D02*
X1911D01*
X1875Y2914D02*
Y2986D01*
X1734Y2720D02*
X1806D01*
X1770Y2684D02*
Y2756D01*
X11157Y2830D02*
X11228D01*
X11193Y2794D02*
Y2866D01*
X3897Y3705D02*
X3968D01*
X3933Y3669D02*
Y3741D01*
X3834Y4372D02*
X3906D01*
X3870Y4337D02*
Y4408D01*
X3609Y4135D02*
X3681D01*
X3645Y4099D02*
Y4171D01*
X4544Y4375D02*
X4616D01*
X4580Y4339D02*
Y4411D01*
X3683Y3454D02*
X3754D01*
X3719Y3419D02*
Y3490D01*
X4909Y5958D02*
X4981D01*
X4945Y5922D02*
Y5993D01*
X5087Y6090D02*
X5158D01*
X5122Y6054D02*
Y6126D01*
X3507Y8720D02*
X3578D01*
X3542Y8684D02*
Y8756D01*
X2911Y1491D02*
X2982D01*
X2946Y1455D02*
Y1527D01*
X12479Y2319D02*
X12550D01*
X12515Y2283D02*
Y2355D01*
X5499Y8527D02*
X5570D01*
X5535Y8491D02*
Y8562D01*
X12562Y2138D02*
X12633D01*
X12598Y2102D02*
Y2173D01*
X9002Y2553D02*
X9073D01*
X9037Y2517D02*
Y2588D01*
X9276Y2403D02*
X9347D01*
X9312Y2367D02*
Y2438D01*
X12527Y3566D02*
X12598D01*
X12563Y3531D02*
Y3602D01*
X13127Y2936D02*
X13198D01*
X13162Y2901D02*
Y2972D01*
X13735Y400D02*
X14135D01*
X13935Y200D02*
Y600D01*
X13735Y9600D02*
X14135D01*
X13935Y9400D02*
Y9800D01*
X335Y400D02*
X735D01*
X535Y200D02*
Y600D01*
X335Y9600D02*
X735D01*
X535Y9400D02*
Y9800D01*
X1859Y3343D02*
X1930D01*
X1895Y3307D02*
Y3378D01*
X6670Y7325D02*
X6741D01*
X6706Y7290D02*
Y7361D01*
X4643Y7404D02*
X4714D01*
X4679Y7369D02*
Y7440D01*
X3088Y8983D02*
X3159D01*
X3123Y8947D02*
Y9018D01*
X3155Y3627D02*
X3226D01*
X3190Y3592D02*
Y3663D01*
X6591Y6972D02*
X6662D01*
X6627Y6937D02*
Y7008D01*
X6609Y5939D02*
X6680D01*
X6644Y5903D02*
Y5974D01*
X9936Y3053D02*
X10008D01*
X9972Y3018D02*
Y3089D01*
X3289Y2210D02*
X3360D01*
X3325Y2174D02*
Y2245D01*
X3061Y2591D02*
X3132D01*
X3096Y2555D02*
Y2626D01*
X3089Y2806D02*
X3160D01*
X3124Y2771D02*
Y2842D01*
X1758Y3706D02*
X1829D01*
X1793Y3670D02*
Y3741D01*
X4826Y7798D02*
X4897D01*
X4862Y7762D02*
Y7833D01*
X1759Y1155D02*
X1831D01*
X1795Y1119D02*
Y1191D01*
X947Y1770D02*
X1018D01*
X982Y1734D02*
Y1806D01*
X5864Y6728D02*
X5936D01*
X5900Y6692D02*
Y6763D01*
X5754Y5745D02*
X5826D01*
X5790Y5709D02*
Y5781D01*
X5609Y5660D02*
X5680D01*
X5645Y5624D02*
Y5696D01*
X6027Y6990D02*
X6098D01*
X6062Y6954D02*
Y7026D01*
M02*
