%FSLAX42Y42*%
%MOMM*%
G71*
G01*
G75*
G04 Layer_Physical_Order=1*
G04 Layer_Color=255*
%ADD10O,1.40X0.45*%
%ADD11R,0.40X0.80*%
%ADD12R,1.00X0.90*%
%ADD13R,0.90X1.00*%
%ADD14R,0.80X0.40*%
%ADD15O,1.90X0.60*%
%ADD16R,0.90X2.25*%
%ADD17R,3.25X2.25*%
%ADD18C,0.25*%
%ADD19C,0.40*%
%ADD20C,0.30*%
%ADD21C,0.80*%
%ADD22C,0.50*%
%ADD23C,0.10*%
%ADD24C,0.05*%
%ADD25C,0.15*%
%ADD26C,1.50*%
%ADD27C,5.00*%
%ADD28C,2.00*%
%ADD29C,1.27*%
%ADD30C,6.00*%
D10*
X10188Y2252D02*
D03*
Y2317D02*
D03*
Y2382D02*
D03*
Y2447D02*
D03*
Y2512D02*
D03*
Y2577D02*
D03*
Y2642D02*
D03*
Y2707D02*
D03*
Y2772D02*
D03*
Y2837D02*
D03*
Y2902D02*
D03*
Y2967D02*
D03*
Y3032D02*
D03*
Y3097D02*
D03*
X9598Y2252D02*
D03*
Y2317D02*
D03*
Y2382D02*
D03*
Y2447D02*
D03*
Y2512D02*
D03*
Y2577D02*
D03*
Y2642D02*
D03*
Y2707D02*
D03*
Y2772D02*
D03*
Y2837D02*
D03*
Y2902D02*
D03*
Y2967D02*
D03*
Y3032D02*
D03*
Y3097D02*
D03*
X13386Y2138D02*
D03*
Y2203D02*
D03*
Y2268D02*
D03*
Y2333D02*
D03*
Y2398D02*
D03*
Y2463D02*
D03*
Y2528D02*
D03*
Y2593D02*
D03*
Y2658D02*
D03*
Y2723D02*
D03*
Y2788D02*
D03*
Y2853D02*
D03*
Y2918D02*
D03*
Y2983D02*
D03*
X12796Y2138D02*
D03*
Y2203D02*
D03*
Y2268D02*
D03*
Y2333D02*
D03*
Y2398D02*
D03*
Y2463D02*
D03*
Y2528D02*
D03*
Y2593D02*
D03*
Y2658D02*
D03*
Y2723D02*
D03*
Y2788D02*
D03*
Y2853D02*
D03*
Y2918D02*
D03*
Y2983D02*
D03*
X2121Y2625D02*
D03*
Y2691D02*
D03*
Y2756D02*
D03*
Y2820D02*
D03*
Y2885D02*
D03*
Y2950D02*
D03*
Y3016D02*
D03*
Y3081D02*
D03*
Y3145D02*
D03*
Y3210D02*
D03*
Y3276D02*
D03*
Y3340D02*
D03*
Y3406D02*
D03*
Y3471D02*
D03*
X1531Y2625D02*
D03*
Y2691D02*
D03*
Y2756D02*
D03*
Y2820D02*
D03*
Y2885D02*
D03*
Y2950D02*
D03*
Y3016D02*
D03*
Y3081D02*
D03*
Y3145D02*
D03*
Y3210D02*
D03*
Y3276D02*
D03*
Y3340D02*
D03*
Y3406D02*
D03*
Y3471D02*
D03*
X3912Y2676D02*
D03*
Y2741D02*
D03*
Y2806D02*
D03*
Y2871D02*
D03*
Y2936D02*
D03*
Y3001D02*
D03*
Y3066D02*
D03*
Y3131D02*
D03*
Y3196D02*
D03*
Y3261D02*
D03*
Y3326D02*
D03*
Y3391D02*
D03*
Y3456D02*
D03*
Y3521D02*
D03*
X3322Y2676D02*
D03*
Y2741D02*
D03*
Y2806D02*
D03*
Y2871D02*
D03*
Y2936D02*
D03*
Y3001D02*
D03*
Y3066D02*
D03*
Y3131D02*
D03*
Y3196D02*
D03*
Y3261D02*
D03*
Y3326D02*
D03*
Y3391D02*
D03*
Y3456D02*
D03*
Y3521D02*
D03*
D11*
X3935Y4142D02*
D03*
X3870D02*
D03*
X3805D02*
D03*
Y3928D02*
D03*
X3935D02*
D03*
D12*
X5364Y7659D02*
D03*
Y7794D02*
D03*
X6952Y6087D02*
D03*
Y5952D02*
D03*
X5118Y7792D02*
D03*
Y7657D02*
D03*
X6927Y6973D02*
D03*
Y7108D02*
D03*
D13*
X5920Y5225D02*
D03*
X5785D02*
D03*
X2881Y9263D02*
D03*
X3016D02*
D03*
X5071Y7404D02*
D03*
X4936D02*
D03*
X1407Y1775D02*
D03*
X1273D02*
D03*
X2373Y1175D02*
D03*
X2508D02*
D03*
D14*
X11200Y3142D02*
D03*
Y3077D02*
D03*
Y3012D02*
D03*
X11415D02*
D03*
Y3142D02*
D03*
D15*
X6304Y5458D02*
D03*
Y5585D02*
D03*
Y5712D02*
D03*
Y5839D02*
D03*
Y5966D02*
D03*
Y6093D02*
D03*
Y6220D02*
D03*
Y6347D02*
D03*
Y6474D02*
D03*
Y6601D02*
D03*
Y6728D02*
D03*
Y6855D02*
D03*
Y6982D02*
D03*
Y7109D02*
D03*
X5354Y5458D02*
D03*
Y5585D02*
D03*
Y5712D02*
D03*
Y5839D02*
D03*
Y5966D02*
D03*
Y6093D02*
D03*
Y6220D02*
D03*
Y6347D02*
D03*
Y6474D02*
D03*
Y6601D02*
D03*
Y6728D02*
D03*
Y6855D02*
D03*
Y6982D02*
D03*
Y7109D02*
D03*
D16*
X2026Y1461D02*
D03*
X1796D02*
D03*
X1566D02*
D03*
D17*
X1796Y866D02*
D03*
D18*
X11666Y5566D02*
X11706D01*
X13747Y2861D02*
Y3525D01*
X11706Y5566D02*
X13747Y3525D01*
X13702Y2880D02*
Y3348D01*
X11735Y5315D02*
X13702Y3348D01*
X13793Y2835D02*
Y3765D01*
X11703Y5855D02*
X13793Y3765D01*
X13884Y2798D02*
Y4108D01*
X11661Y6331D02*
X13884Y4108D01*
X13838Y2816D02*
Y3927D01*
X11688Y6077D02*
X13838Y3927D01*
X11661Y6077D02*
X11688D01*
X13566Y2936D02*
Y3158D01*
X12171Y4553D02*
X13566Y3158D01*
X11735Y4553D02*
X12171D01*
X13611Y2917D02*
Y3177D01*
X11982Y4807D02*
X13611Y3177D01*
X11735Y4807D02*
X11982D01*
X13657Y2898D02*
Y3196D01*
X11792Y5061D02*
X13657Y3196D01*
X11735Y5061D02*
X11792D01*
X1875Y2950D02*
X2005Y2820D01*
X2121D01*
X1770Y2720D02*
Y2753D01*
X1773Y2756D01*
X1531D02*
X1773D01*
X11415Y2864D02*
X12243Y2036D01*
X11415Y2864D02*
Y3012D01*
X12243Y2036D02*
X12904D01*
X11159Y3077D02*
X11200D01*
X10526Y2445D02*
X11159Y3077D01*
X9994Y2445D02*
X10526D01*
X3870Y4142D02*
Y4372D01*
X4185Y3266D02*
Y6042D01*
X4230Y3222D02*
Y6060D01*
X4276Y3204D02*
Y6079D01*
X4321Y3185D02*
Y6098D01*
X4050Y3131D02*
X4185Y3266D01*
X2417Y7810D02*
X4185Y6042D01*
X4074Y3066D02*
X4230Y3222D01*
X4102Y6189D02*
X4230Y6060D01*
X4073Y3001D02*
X4276Y3204D01*
X4147Y6208D02*
X4276Y6079D01*
X4073Y2936D02*
X4321Y3185D01*
X4192Y6227D02*
X4321Y6098D01*
X4192Y6227D02*
Y6796D01*
X4147Y6208D02*
Y6587D01*
X4102Y6189D02*
Y6379D01*
X4580Y4375D02*
Y6090D01*
X5221Y6731D01*
X4141Y2806D02*
X4770Y3435D01*
X4141Y2741D02*
X4815Y3416D01*
X4140Y2676D02*
X4881Y3417D01*
X3759Y2225D02*
X4926Y3392D01*
X4815Y6146D02*
X5146Y6477D01*
X4815Y3416D02*
Y6146D01*
X4770Y6165D02*
X5209Y6604D01*
X4770Y3435D02*
Y6165D01*
X5221Y6731D02*
X5364D01*
X5209Y6604D02*
X5364D01*
X5146Y6477D02*
X5364D01*
X5351Y6090D02*
X5354Y6093D01*
X5122Y6090D02*
X5351D01*
X4926Y3392D02*
Y5611D01*
X5028Y5712D01*
X4881Y5676D02*
X5044Y5839D01*
X4881Y3417D02*
Y5676D01*
X5028Y5712D02*
X5354D01*
X5028Y5712D02*
X5028Y5712D01*
X4917Y6858D02*
X5364D01*
X3912Y2676D02*
X4140D01*
X3791Y2741D02*
X4141D01*
X3792Y2806D02*
X4141D01*
X1894Y2225D02*
X3759D01*
X2417Y8064D02*
X4102Y6379D01*
X2417Y8318D02*
X4147Y6587D01*
X2417Y8571D02*
X4192Y6796D01*
X3922Y3131D02*
X4050D01*
X3912Y3066D02*
X4074D01*
X3297Y8478D02*
X4917Y6858D01*
X3297Y8478D02*
Y9263D01*
X3542Y8720D02*
Y9466D01*
X3551Y9474D01*
X1193Y3234D02*
Y6839D01*
X2163Y7810D01*
X1147Y3215D02*
Y7048D01*
X2163Y8064D01*
X1102Y3168D02*
Y7257D01*
X2163Y8318D01*
X1057Y7465D02*
X2163Y8571D01*
X1057Y3145D02*
Y7465D01*
X11274Y4415D02*
X11447Y4587D01*
X11274Y4195D02*
Y4415D01*
X11229Y4623D02*
X11447Y4841D01*
X11229Y4177D02*
Y4623D01*
X11183Y4832D02*
X11447Y5095D01*
X11183Y4158D02*
Y4832D01*
X11138Y5295D02*
X11447Y5603D01*
X11138Y4139D02*
Y5295D01*
X11092Y5503D02*
X11447Y5857D01*
X11092Y4121D02*
Y5503D01*
X11046Y5711D02*
X11447Y6111D01*
X11046Y4102D02*
Y5711D01*
X10937Y6110D02*
X11409Y6582D01*
X10937Y3286D02*
Y6110D01*
X10892Y6319D02*
X11409Y6836D01*
X10892Y3305D02*
Y6319D01*
X10846Y6527D02*
X11409Y7090D01*
X10846Y3323D02*
Y6527D01*
X10752Y7195D02*
X11447Y7889D01*
X10752Y3357D02*
Y7195D01*
X10707Y7403D02*
X11447Y8143D01*
X10707Y3376D02*
Y7403D01*
X11661Y8109D02*
X11808Y8256D01*
Y8442D01*
X11899Y7839D02*
Y8479D01*
X11944Y7625D02*
Y8498D01*
X11990Y7417D02*
Y8517D01*
X12035Y7208D02*
Y8536D01*
X12081Y6999D02*
Y8555D01*
X11716Y8598D02*
X11854Y8461D01*
X11662Y7602D02*
X11899Y7839D01*
X11735Y8644D02*
X11899Y8479D01*
X11664Y7345D02*
X11944Y7625D01*
X11754Y8689D02*
X11944Y8498D01*
X11701Y7127D02*
X11990Y7417D01*
X11772Y8735D02*
X11990Y8517D01*
X11701Y6873D02*
X12035Y7208D01*
X11791Y8780D02*
X12035Y8536D01*
X11701Y6619D02*
X12081Y6999D01*
X11810Y8825D02*
X12081Y8555D01*
X3085Y3742D02*
X3369Y4027D01*
X3085Y3478D02*
Y3742D01*
Y3478D02*
X3237Y3326D01*
X3040Y3460D02*
X3238Y3261D01*
X3040Y3460D02*
Y3761D01*
X3324Y4046D01*
X2994Y3780D02*
X3278Y4064D01*
X2994Y3441D02*
Y3780D01*
Y3441D02*
X3239Y3196D01*
X2949Y3422D02*
X3239Y3131D01*
X2949Y3422D02*
Y3799D01*
X3233Y4083D01*
X2903Y3818D02*
X3188Y4102D01*
X2903Y3396D02*
Y3818D01*
Y3396D02*
X3233Y3066D01*
X2858Y3373D02*
X3230Y3001D01*
X2858Y3373D02*
Y3836D01*
X3142Y4121D01*
X2812Y4093D02*
X3009Y4290D01*
X2812Y3355D02*
Y4093D01*
Y3355D02*
X3231Y2936D01*
X3142Y4121D02*
Y4411D01*
X3188Y4102D02*
Y4657D01*
X3233Y4083D02*
Y4828D01*
X3278Y4064D02*
Y5037D01*
X3324Y4046D02*
Y5246D01*
X3369Y4027D02*
Y5454D01*
X3009Y5814D02*
X3369Y5454D01*
X3009Y5560D02*
X3324Y5246D01*
X3009Y5052D02*
X3233Y4828D01*
X3009Y5306D02*
X3278Y5037D01*
X3047Y4798D02*
X3188Y4657D01*
X3009Y4798D02*
X3047D01*
X3009Y4544D02*
X3142Y4411D01*
X2579Y3295D02*
Y4113D01*
X2756Y4290D01*
X2306Y5365D02*
X2756Y5814D01*
X2352Y3401D02*
Y5156D01*
X2756Y5560D01*
X2397Y4948D02*
X2756Y5306D01*
X2443Y4739D02*
X2756Y5052D01*
X2488Y4530D02*
X2756Y4798D01*
X2533Y4322D02*
X2756Y4544D01*
X3231Y2936D02*
X3322D01*
X2234Y2951D02*
X2579Y3295D01*
X2234Y3015D02*
X2533Y3314D01*
X13482Y2788D02*
X13611Y2917D01*
X13481Y2723D02*
X13657Y2898D01*
X13480Y2658D02*
X13702Y2880D01*
X13480Y2593D02*
X13747Y2861D01*
X13485Y2528D02*
X13793Y2835D01*
X13485Y2463D02*
X13838Y2816D01*
X13484Y2398D02*
X13884Y2798D01*
X13181Y2918D02*
X13386D01*
X12683Y2658D02*
X12796D01*
X11183Y4158D02*
X12683Y2658D01*
X12684Y2593D02*
X12796D01*
X11138Y4139D02*
X12684Y2593D01*
X12685Y2528D02*
X12796D01*
X11092Y4121D02*
X12685Y2528D01*
X12682Y2788D02*
X12796D01*
X11274Y4195D02*
X12682Y2788D01*
X12680Y2726D02*
X12796D01*
X11229Y4177D02*
X12680Y2726D01*
X10798Y7013D02*
X11386Y7601D01*
X10798Y3339D02*
Y7013D01*
X9144Y6929D02*
X11040Y8825D01*
X9189Y6910D02*
X11059Y8780D01*
X9235Y6891D02*
X11078Y8735D01*
X9280Y6872D02*
X11097Y8689D01*
X9325Y6853D02*
X11116Y8644D01*
X9371Y6835D02*
X11134Y8598D01*
X11697Y8553D02*
X11808Y8442D01*
X9416Y6816D02*
X11153Y8553D01*
X11697D01*
X11134Y8598D02*
X11716D01*
X11116Y8644D02*
X11735D01*
X11097Y8689D02*
X11754D01*
X11078Y8735D02*
X11772D01*
X11059Y8780D02*
X11791D01*
X11040Y8825D02*
X11810D01*
X11590Y8507D02*
X11701Y8397D01*
X11172Y8507D02*
X11590D01*
X9462Y6797D02*
X11172Y8507D01*
X5690Y7026D02*
X6823Y8159D01*
X5690Y6624D02*
Y7026D01*
Y6624D02*
X6091Y6223D01*
X5750Y6979D02*
X7077Y8306D01*
X5750Y6686D02*
Y6979D01*
Y6686D02*
X6083Y6352D01*
X8987Y8539D02*
Y9474D01*
X7052Y6604D02*
X8987Y8539D01*
X6314Y6604D02*
X7052D01*
X10188Y2707D02*
X10294D01*
X10188Y2642D02*
X10294D01*
X4055Y3001D02*
X4073D01*
X3912Y2936D02*
X4073D01*
X1531Y2589D02*
X1894Y2225D01*
X1384Y2885D02*
X1531D01*
X1102Y3168D02*
X1384Y2885D01*
X1381Y2821D02*
X1531D01*
X1057Y3145D02*
X1381Y2821D01*
X4907Y6985D02*
X5364D01*
X4567Y7325D02*
X4907Y6985D01*
X5255Y7404D02*
X5357Y7506D01*
X5116Y7579D02*
X5273Y7422D01*
X5116Y7579D02*
Y7628D01*
X5357Y7506D02*
Y7633D01*
X7077Y8306D02*
Y9474D01*
X8733Y8464D02*
Y9474D01*
X7127Y6858D02*
X8733Y8464D01*
X6314Y6858D02*
X7127D01*
X3230Y3001D02*
X3322D01*
X1193Y3234D02*
X1410Y3017D01*
X1530D01*
X1412Y2951D02*
X1531D01*
X1147Y3215D02*
X1412Y2951D01*
X12515Y2319D02*
X12566Y2268D01*
X12796D01*
X3297Y9263D02*
Y9474D01*
X3016Y9263D02*
X3297D01*
X4821Y9240D02*
X5535Y8527D01*
X6823Y8159D02*
Y9474D01*
X5852Y8230D02*
X6061Y8438D01*
Y9474D01*
X12596Y2136D02*
X12598Y2138D01*
X12796D01*
X9035Y2555D02*
X9037Y2553D01*
X8793Y2555D02*
X9035D01*
X9312Y2403D02*
X9335Y2380D01*
X9601D01*
X12563Y3216D02*
Y3566D01*
Y3216D02*
X12796Y2983D01*
Y2723D02*
Y2726D01*
X1895Y3343D02*
X1958Y3406D01*
X2121D01*
Y3471D02*
Y3487D01*
X3296Y3521D02*
X3322D01*
X6614Y5969D02*
X6644Y5939D01*
X6314Y6096D02*
X6944D01*
X4821Y9240D02*
Y9474D01*
X3182Y2676D02*
X3322D01*
X3096Y2591D02*
X3182Y2676D01*
X5357Y7803D02*
X5847D01*
X5090Y7404D02*
X5255D01*
X3912Y3001D02*
X4050D01*
X3237Y3326D02*
X3322D01*
X3238Y3261D02*
X3322D01*
X2533Y3314D02*
Y4322D01*
X2488Y3333D02*
Y4530D01*
X2443Y3352D02*
Y4739D01*
X2397Y3378D02*
Y4948D01*
X2121Y3081D02*
X2235D01*
X2218Y3341D02*
X2306Y3429D01*
Y5365D01*
X2226Y3276D02*
X2352Y3401D01*
X2230Y3211D02*
X2397Y3378D01*
X2121Y3146D02*
X2236D01*
X2443Y3352D01*
X2235Y3081D02*
X2488Y3333D01*
X2122Y3015D02*
X2234D01*
X2121Y2951D02*
X2234D01*
X12686Y2463D02*
X12796D01*
X13386D02*
X13485D01*
X13386Y2398D02*
X13484D01*
X13386Y2528D02*
X13485D01*
X13386Y2788D02*
X13482D01*
X13386Y2723D02*
X13481D01*
X13386Y2658D02*
X13480D01*
X13386Y2593D02*
X13480D01*
X13386Y2853D02*
X13483D01*
X10191Y2965D02*
X10295D01*
X10707Y3376D01*
X10191Y2900D02*
X10294D01*
X10752Y3357D01*
X10191Y2835D02*
X10293D01*
X10798Y3339D01*
X10191Y2770D02*
X10293D01*
X3239Y3196D02*
X3322D01*
X3239Y3131D02*
X3322D01*
X3233Y3066D02*
X3322D01*
X9144Y2758D02*
Y6929D01*
X9189Y2777D02*
Y6910D01*
Y2777D02*
X9457Y2510D01*
X9144Y2758D02*
X9458Y2445D01*
X10294Y2642D02*
X10937Y3286D01*
X10294Y2707D02*
X10892Y3305D01*
X10293Y2770D02*
X10846Y3323D01*
X13483Y2853D02*
X13566Y2936D01*
X9458Y2445D02*
X9601D01*
X9457Y2510D02*
X9601D01*
X2121Y3341D02*
X2218D01*
X2121Y3276D02*
X2226D01*
X2121Y3211D02*
X2230D01*
X5852Y7600D02*
Y8230D01*
X5364Y7112D02*
X5852Y7600D01*
X4567Y7325D02*
Y9474D01*
X3441Y2392D02*
X3791Y2741D01*
X3424Y2439D02*
X3792Y2806D01*
X2588Y2439D02*
X3424D01*
X2121Y2756D02*
X2271D01*
X2588Y2439D01*
X2121Y2691D02*
X2272D01*
X2121Y2626D02*
X2273D01*
X2558Y2340D01*
X2272Y2691D02*
X2571Y2392D01*
X3441D01*
X9462Y2909D02*
Y6797D01*
Y2909D02*
X9471Y2900D01*
X9601D01*
X9472Y2835D02*
X9601D01*
X9416Y2891D02*
X9472Y2835D01*
X9416Y2891D02*
Y6816D01*
X9371Y2866D02*
Y6835D01*
Y2866D02*
X9467Y2770D01*
X9601D01*
X9454Y2705D02*
X9601D01*
X9325Y2834D02*
X9454Y2705D01*
X9325Y2834D02*
Y6853D01*
X9280Y2815D02*
Y6872D01*
Y2815D02*
X9455Y2640D01*
X9601D01*
X9456Y2575D02*
X9601D01*
X9235Y2796D02*
Y6891D01*
Y2796D02*
X9456Y2575D01*
X2558Y2340D02*
X3589D01*
X3918Y2670D01*
X1531Y2589D02*
Y2626D01*
X6091Y6223D02*
X6314D01*
X11046Y4102D02*
X12686Y2463D01*
X1566Y2010D02*
X1568Y2012D01*
X1561Y1775D02*
X1566Y1770D01*
X6083Y6352D02*
X6312D01*
X6311Y6728D02*
X6314Y6731D01*
X5900Y6728D02*
X6311D01*
X5758Y5220D02*
X5785D01*
X5044Y5839D02*
X5354D01*
X11854Y8041D02*
Y8461D01*
X11853Y8040D02*
X11854Y8041D01*
X11853Y8039D02*
Y8040D01*
X11666Y7852D02*
X11853Y8039D01*
X11633Y1900D02*
X13190D01*
X13386Y2096D01*
Y2138D01*
X12904Y2036D02*
X13200Y2333D01*
X13386D01*
X12922Y1991D02*
X13202Y2271D01*
X13383D01*
X12941Y1945D02*
X13199Y2203D01*
X13386D01*
X11671Y1991D02*
X12922D01*
X11652Y1945D02*
X12941D01*
X6314Y6477D02*
X6818D01*
X8793Y4502D01*
X6314Y5842D02*
X7389D01*
X8748Y4483D01*
X6314Y5715D02*
X7452D01*
X8703Y4464D01*
X6314Y5588D02*
X7514D01*
X8657Y4445D01*
X6314Y5461D02*
X7577D01*
X8612Y4426D01*
X8793Y2555D02*
Y4502D01*
X8612Y2438D02*
Y4426D01*
Y2438D02*
X8992Y2058D01*
X9800D01*
X9011Y2104D02*
X9781D01*
X8657Y2457D02*
X9011Y2104D01*
X8657Y2457D02*
Y4445D01*
X8703Y2476D02*
Y4464D01*
Y2476D02*
X9029Y2149D01*
X9762D01*
X9048Y2194D02*
X9744D01*
X8748Y2495D02*
X9048Y2194D01*
X8748Y2495D02*
Y4483D01*
X8793Y2513D02*
Y2555D01*
Y2513D02*
X9057Y2250D01*
X9601D01*
X11284D02*
X11633Y1900D01*
X9992Y2250D02*
X11284D01*
X9800Y2058D02*
X9992Y2250D01*
X11283Y2315D02*
X11652Y1945D01*
X9992Y2315D02*
X11283D01*
X9781Y2104D02*
X9992Y2315D01*
X11282Y2380D02*
X11671Y1991D01*
X9993Y2380D02*
X11282D01*
X9762Y2149D02*
X9993Y2380D01*
X9744Y2194D02*
X9994Y2445D01*
X-16Y10545D02*
X6610D01*
X7757D02*
X14384D01*
X-16D02*
X136Y10596D01*
X-16Y10545D02*
X136Y10494D01*
X14231Y10596D02*
X14384Y10545D01*
X14231Y10494D02*
X14384Y10545D01*
X-16Y10520D02*
Y10570D01*
X14384Y10520D02*
Y10570D01*
X-663Y10011D02*
X-662Y5585D01*
X-662Y4438D02*
X-662Y11D01*
X-663Y10011D02*
X-612Y9859D01*
X-713D02*
X-663Y10011D01*
X-662Y11D02*
X-612Y164D01*
X-713D02*
X-662Y11D01*
X-688Y10011D02*
X-637D01*
X-688Y11D02*
X-637D01*
D19*
X13270Y3228D02*
X13386Y3111D01*
Y2983D02*
Y3111D01*
X10188Y3301D02*
X10332Y3445D01*
X10188Y3097D02*
Y3301D01*
X11103Y3740D02*
Y3778D01*
Y3740D02*
X11415Y3428D01*
Y3142D02*
Y3428D01*
X3935Y3708D02*
Y3928D01*
D20*
X9572Y3123D02*
X9601Y3095D01*
X9572Y3123D02*
Y3815D01*
X3510Y3920D02*
X3805D01*
X11193Y2830D02*
X11200Y2838D01*
Y3012D01*
X3797Y4135D02*
X3805Y4142D01*
X3645Y4135D02*
X3797D01*
X3510Y2875D02*
X3514Y2871D01*
X3912D01*
X3908Y2875D02*
X3912Y2871D01*
X3510Y2875D02*
Y3920D01*
X3510Y3920D01*
X3719Y3454D02*
X3720Y3456D01*
X3912D01*
X4945Y5958D02*
X4954Y5966D01*
X5354D01*
X5345Y5958D02*
X5354Y5966D01*
Y5458D02*
X5360Y5453D01*
Y4560D02*
Y5453D01*
X3720Y3456D02*
X3785Y3521D01*
X3912D01*
X6100Y5340D02*
Y5812D01*
X5565Y6347D02*
X6100Y5812D01*
X5354Y6347D02*
X5565D01*
X6635Y4805D02*
X7572D01*
X6100Y5340D02*
X6635Y4805D01*
X1796Y1461D02*
X1801Y1466D01*
X1793Y3706D02*
X1902D01*
X2121Y3487D01*
X2881Y8984D02*
Y9263D01*
X3190Y3627D02*
X3296Y3521D01*
X9996Y3030D02*
X10191D01*
X3124Y2806D02*
X3322D01*
X1767Y3706D02*
X1793D01*
X1531Y3471D02*
X1767Y3706D01*
X0Y10000D02*
X0Y0D01*
X0Y10000D02*
X14400D01*
Y0D02*
Y10000D01*
X0Y0D02*
X14400Y0D01*
D21*
X4382Y1412D02*
X6790Y3820D01*
X6910D01*
X4382Y1412D02*
X5972Y3002D01*
X4054Y1412D02*
X4382D01*
X4054Y1402D02*
Y1412D01*
X3995Y1461D02*
X4054Y1402D01*
X2508Y1175D02*
Y1461D01*
X2026D02*
X2508D01*
X3995D01*
D22*
X3933Y3705D02*
X3935Y3708D01*
X5573Y3890D02*
Y5029D01*
X3694Y2012D02*
X5573Y3890D01*
X6644Y5939D02*
X6658Y5952D01*
X6952D01*
X1568Y2012D02*
X3694D01*
X846Y2377D02*
Y8004D01*
Y2377D02*
X1212Y2012D01*
X846Y8004D02*
X1825Y8983D01*
X6706Y7112D02*
X6914D01*
X6314D02*
X6706D01*
Y7325D01*
X4679Y7404D02*
X4920D01*
X6627Y6972D02*
X6927D01*
X6314Y6985D02*
X6614D01*
X6314Y5969D02*
X6614D01*
X4862Y7798D02*
X5116D01*
X1825Y8983D02*
X3123D01*
X5928Y5110D02*
Y5220D01*
X5847Y5029D02*
X5928Y5110D01*
X5573Y5029D02*
X5847D01*
X5364Y5588D02*
X5514D01*
X5573Y5029D02*
Y5530D01*
X5364Y6223D02*
X5527D01*
X1796Y1156D02*
Y1461D01*
X1795Y1155D02*
X1796Y1156D01*
X1795Y867D02*
Y1155D01*
Y867D02*
X1796Y866D01*
X1212Y2012D02*
X1568D01*
X1407Y1775D02*
X1561D01*
X1566Y1461D02*
Y1770D01*
Y2010D01*
X988Y1775D02*
X1273D01*
X982Y1770D02*
X988Y1775D01*
X5785Y5220D02*
Y5965D01*
X5527Y6223D02*
X5785Y5965D01*
X5544Y5559D02*
X5645Y5660D01*
X5514Y5588D02*
X5544Y5559D01*
X5573Y5530D01*
X6063Y7109D02*
X6304D01*
X6062Y6990D02*
Y7110D01*
X1815Y1175D02*
X2373D01*
X1796Y1156D02*
X1815Y1175D01*
D23*
X9808Y3075D02*
G03*
X9808Y3075I-50J0D01*
G01*
X13006Y2960D02*
G03*
X13006Y2960I-50J0D01*
G01*
X1741Y3448D02*
G03*
X1741Y3448I-50J0D01*
G01*
X5589Y7089D02*
G03*
X5589Y7089I-50J0D01*
G01*
X3532Y3499D02*
G03*
X3532Y3499I-50J0D01*
G01*
X9668Y2185D02*
X10118D01*
X9668Y3165D02*
X10118D01*
Y2185D02*
Y3165D01*
X9668Y2185D02*
Y3165D01*
X12866Y2070D02*
X13316D01*
X12866Y3050D02*
X13316D01*
Y2070D02*
Y3050D01*
X12866Y2070D02*
Y3050D01*
X3760Y4103D02*
X3980D01*
X3760Y3967D02*
X3980D01*
Y4103D01*
X3760Y3967D02*
Y4103D01*
X5317Y7639D02*
X5412D01*
X5317Y7814D02*
X5412D01*
X5317Y7639D02*
Y7814D01*
X5412Y7639D02*
Y7814D01*
X5940Y5177D02*
Y5272D01*
X5765Y5177D02*
Y5272D01*
Y5177D02*
X5940D01*
X5765Y5272D02*
X5940D01*
X6904Y6107D02*
X6999D01*
X6904Y5932D02*
X6999D01*
Y6107D01*
X6904Y5932D02*
Y6107D01*
X5071Y7812D02*
X5166D01*
X5071Y7637D02*
X5166D01*
Y7812D01*
X5071Y7637D02*
Y7812D01*
X6879Y6953D02*
X6974D01*
X6879Y7128D02*
X6974D01*
X6879Y6953D02*
Y7128D01*
X6974Y6953D02*
Y7128D01*
X2861Y9216D02*
Y9311D01*
X3036Y9216D02*
Y9311D01*
X2861D02*
X3036D01*
X2861Y9216D02*
X3036D01*
X5091Y7357D02*
Y7452D01*
X4916Y7357D02*
Y7452D01*
Y7357D02*
X5091D01*
X4916Y7452D02*
X5091D01*
X1601Y2558D02*
X2051D01*
X1601Y3538D02*
X2051D01*
Y2558D02*
Y3538D01*
X1601Y2558D02*
Y3538D01*
X11240Y2967D02*
Y3188D01*
X11375Y2967D02*
Y3188D01*
X11240D02*
X11375D01*
X11240Y2967D02*
X11375D01*
X1252Y1727D02*
X1427D01*
X1252Y1823D02*
X1427D01*
Y1727D02*
Y1823D01*
X1252Y1727D02*
Y1823D01*
X5449Y5389D02*
X6209D01*
X5449Y7179D02*
X6209D01*
Y5389D02*
Y7179D01*
X5449Y5389D02*
Y7179D01*
X1461Y1348D02*
X2131D01*
X1461Y978D02*
X2131D01*
Y1348D01*
X1461Y978D02*
Y1348D01*
X2352Y1127D02*
Y1223D01*
X2527Y1127D02*
Y1223D01*
X2352D02*
X2527D01*
X2352Y1127D02*
X2527D01*
X3392Y2609D02*
X3842D01*
X3392Y3589D02*
X3842D01*
Y2609D02*
Y3589D01*
X3392Y2609D02*
Y3589D01*
X9893Y2625D02*
Y2725D01*
X9843Y2675D02*
X9943D01*
X13091Y2510D02*
Y2610D01*
X13041Y2560D02*
X13141D01*
X3870Y3985D02*
Y4085D01*
X3820Y4035D02*
X3920D01*
X5364Y7679D02*
Y7774D01*
X5317Y7727D02*
X5412D01*
X5805Y5225D02*
X5900D01*
X5852Y5177D02*
Y5272D01*
X6952Y5972D02*
Y6067D01*
X6904Y6020D02*
X6999D01*
X5118Y7677D02*
Y7772D01*
X5071Y7724D02*
X5166D01*
X6927Y6993D02*
Y7088D01*
X6879Y7041D02*
X6974D01*
X2901Y9263D02*
X2996D01*
X2949Y9216D02*
Y9311D01*
X4956Y7404D02*
X5051D01*
X5004Y7357D02*
Y7452D01*
X1826Y2998D02*
Y3098D01*
X1776Y3048D02*
X1876D01*
X11257Y3077D02*
X11357D01*
X11307Y3027D02*
Y3127D01*
X1340Y1727D02*
Y1823D01*
X1293Y1775D02*
X1388D01*
X5829Y6234D02*
Y6334D01*
X5779Y6284D02*
X5879D01*
X1796Y1113D02*
Y1213D01*
X1746Y1163D02*
X1846D01*
X2392Y1175D02*
X2488D01*
X2440Y1127D02*
Y1223D01*
X3617Y3049D02*
Y3149D01*
X3567Y3099D02*
X3667D01*
D24*
X9506Y2160D02*
X10281D01*
X9506Y3190D02*
X10281D01*
Y2160D02*
Y3190D01*
X9506Y2160D02*
Y3190D01*
X12704Y2045D02*
X13479D01*
X12704Y3075D02*
X13479D01*
Y2045D02*
Y3075D01*
X12704Y2045D02*
Y3075D01*
X3735Y4208D02*
X4005D01*
X3735Y3862D02*
X4005D01*
Y4208D01*
X3735Y3862D02*
Y4208D01*
X5289Y7592D02*
X5439D01*
X5289Y7862D02*
X5439D01*
X5289Y7592D02*
Y7862D01*
X5439Y7592D02*
Y7862D01*
X5987Y5150D02*
Y5300D01*
X5717Y5150D02*
Y5300D01*
Y5150D02*
X5987D01*
X5717Y5300D02*
X5987D01*
X6877Y6155D02*
X7027D01*
X6877Y5885D02*
X7027D01*
Y6155D01*
X6877Y5885D02*
Y6155D01*
X5043Y7859D02*
X5193D01*
X5043Y7589D02*
X5193D01*
Y7859D01*
X5043Y7589D02*
Y7859D01*
X6852Y6906D02*
X7002D01*
X6852Y7176D02*
X7002D01*
X6852Y6906D02*
Y7176D01*
X7002Y6906D02*
Y7176D01*
X2814Y9188D02*
Y9338D01*
X3084Y9188D02*
Y9338D01*
X2814D02*
X3084D01*
X2814Y9188D02*
X3084D01*
X5139Y7329D02*
Y7479D01*
X4869Y7329D02*
Y7479D01*
Y7329D02*
X5139D01*
X4869Y7479D02*
X5139D01*
X1439Y2533D02*
X2214D01*
X1439Y3563D02*
X2214D01*
Y2533D02*
Y3563D01*
X1439Y2533D02*
Y3563D01*
X11135Y2942D02*
Y3212D01*
X11480Y2942D02*
Y3212D01*
X11135D02*
X11480D01*
X11135Y2942D02*
X11480D01*
X1205Y1700D02*
X1475D01*
X1205Y1850D02*
X1475D01*
Y1700D02*
Y1850D01*
X1205Y1700D02*
Y1850D01*
X5237Y5364D02*
X6422D01*
X5237Y7204D02*
X6422D01*
Y5364D02*
Y7204D01*
X5237Y5364D02*
Y7204D01*
X1436Y1598D02*
X2156D01*
X1436Y728D02*
X2156D01*
Y1598D01*
X1436Y728D02*
Y1598D01*
X2305Y1100D02*
Y1250D01*
X2575Y1100D02*
Y1250D01*
X2305D02*
X2575D01*
X2305Y1100D02*
X2575D01*
X3229Y2584D02*
X4004D01*
X3229Y3614D02*
X4004D01*
Y2584D02*
Y3614D01*
X3229Y2584D02*
Y3614D01*
D25*
X6635Y10454D02*
X6686D01*
X6661D01*
Y10606D01*
X6635Y10581D01*
X6838Y10454D02*
Y10606D01*
X6762Y10530D01*
X6864D01*
X6991Y10454D02*
Y10606D01*
X6914Y10530D01*
X7016D01*
X7270Y10454D02*
X7219Y10504D01*
Y10555D01*
X7270Y10606D01*
X7346Y10454D02*
Y10555D01*
X7372D01*
X7397Y10530D01*
Y10454D01*
Y10530D01*
X7422Y10555D01*
X7448Y10530D01*
Y10454D01*
X7498D02*
Y10555D01*
X7524D01*
X7549Y10530D01*
Y10454D01*
Y10530D01*
X7575Y10555D01*
X7600Y10530D01*
Y10454D01*
X7651D02*
X7702Y10504D01*
Y10555D01*
X7651Y10606D01*
X-754Y5560D02*
Y5509D01*
Y5534D01*
X-602D01*
X-627Y5560D01*
Y5433D02*
X-602Y5407D01*
Y5357D01*
X-627Y5331D01*
X-729D01*
X-754Y5357D01*
Y5407D01*
X-729Y5433D01*
X-627D01*
Y5281D02*
X-602Y5255D01*
Y5204D01*
X-627Y5179D01*
X-729D01*
X-754Y5204D01*
Y5255D01*
X-729Y5281D01*
X-627D01*
X-754Y4925D02*
X-703Y4976D01*
X-652D01*
X-602Y4925D01*
X-754Y4849D02*
X-652D01*
Y4823D01*
X-678Y4798D01*
X-754D01*
X-678D01*
X-652Y4773D01*
X-678Y4747D01*
X-754D01*
Y4697D02*
X-652D01*
Y4671D01*
X-678Y4646D01*
X-754D01*
X-678D01*
X-652Y4620D01*
X-678Y4595D01*
X-754D01*
Y4544D02*
X-703Y4493D01*
X-652D01*
X-602Y4544D01*
D26*
X10332Y3445D02*
D03*
Y3648D02*
D03*
Y3851D02*
D03*
X7572Y4155D02*
D03*
Y4805D02*
D03*
X2156Y7038D02*
D03*
Y7292D02*
D03*
Y7546D02*
D03*
Y7800D02*
D03*
Y8054D02*
D03*
Y8307D02*
D03*
Y8561D02*
D03*
Y8815D02*
D03*
X2409Y7038D02*
D03*
Y7292D02*
D03*
Y7546D02*
D03*
Y7800D02*
D03*
Y8054D02*
D03*
Y8307D02*
D03*
Y8561D02*
D03*
Y8815D02*
D03*
X2753Y4283D02*
D03*
Y4537D02*
D03*
Y4790D02*
D03*
Y5044D02*
D03*
Y5299D02*
D03*
Y5553D02*
D03*
Y5806D02*
D03*
Y6060D02*
D03*
X3007Y4283D02*
D03*
Y4537D02*
D03*
Y4790D02*
D03*
Y5044D02*
D03*
Y5299D02*
D03*
Y5553D02*
D03*
Y5806D02*
D03*
Y6060D02*
D03*
X11666Y5820D02*
D03*
Y6328D02*
D03*
Y6836D02*
D03*
Y4804D02*
D03*
Y8106D02*
D03*
X11412Y8360D02*
D03*
X11666Y4550D02*
D03*
Y7344D02*
D03*
X11412Y6836D02*
D03*
Y7090D02*
D03*
Y7852D02*
D03*
Y5820D02*
D03*
Y5566D02*
D03*
Y4296D02*
D03*
X11666D02*
D03*
Y7598D02*
D03*
X11412Y5058D02*
D03*
Y8106D02*
D03*
X11666Y8360D02*
D03*
Y5058D02*
D03*
X11412Y6074D02*
D03*
Y4550D02*
D03*
X11666Y7852D02*
D03*
Y6074D02*
D03*
X11412Y5312D02*
D03*
X11666Y7090D02*
D03*
Y6582D02*
D03*
X11412D02*
D03*
Y4804D02*
D03*
Y7598D02*
D03*
Y6328D02*
D03*
X11666Y5312D02*
D03*
Y5566D02*
D03*
X11412Y7344D02*
D03*
D27*
X4534Y1102D02*
D03*
X4054Y777D02*
D03*
Y1402D02*
D03*
D28*
X6061Y9474D02*
D03*
X6315D02*
D03*
X6569D02*
D03*
X6823D02*
D03*
X7077D02*
D03*
X7331D02*
D03*
X3297Y9474D02*
D03*
X3551D02*
D03*
X3805D02*
D03*
X4059D02*
D03*
X4313D02*
D03*
X4567D02*
D03*
X4821D02*
D03*
X5075D02*
D03*
X8987Y9474D02*
D03*
X8733D02*
D03*
X8479D02*
D03*
X5360Y4052D02*
D03*
Y4306D02*
D03*
Y4560D02*
D03*
D29*
X13270Y3228D02*
D03*
X11103Y3778D02*
D03*
X9572Y3815D02*
D03*
X6910Y3820D02*
D03*
X3545Y3933D02*
D03*
X1875Y2950D02*
D03*
X1770Y2720D02*
D03*
X11193Y2830D02*
D03*
X3933Y3705D02*
D03*
X3870Y4372D02*
D03*
X3645Y4135D02*
D03*
X4580Y4375D02*
D03*
X3719Y3454D02*
D03*
X4945Y5958D02*
D03*
X5122Y6090D02*
D03*
X3542Y8720D02*
D03*
X2946Y1491D02*
D03*
X12515Y2319D02*
D03*
X5535Y8527D02*
D03*
X12598Y2138D02*
D03*
X9037Y2553D02*
D03*
X9312Y2403D02*
D03*
X12563Y3566D02*
D03*
X13162Y2936D02*
D03*
X1895Y3343D02*
D03*
X6706Y7325D02*
D03*
X4679Y7404D02*
D03*
X3123Y8983D02*
D03*
X3190Y3627D02*
D03*
X6627Y6972D02*
D03*
X6644Y5939D02*
D03*
X9972Y3053D02*
D03*
X3325Y2210D02*
D03*
X3096Y2591D02*
D03*
X3124Y2806D02*
D03*
X1793Y3706D02*
D03*
X4862Y7798D02*
D03*
X1795Y1155D02*
D03*
X982Y1770D02*
D03*
X5900Y6728D02*
D03*
X5790Y5745D02*
D03*
X5645Y5660D02*
D03*
X6062Y6990D02*
D03*
D30*
X13935Y400D02*
D03*
Y9600D02*
D03*
X535Y400D02*
D03*
Y9600D02*
D03*
M02*
