%FSLAX42Y42*%
%MOMM*%
G71*
G01*
G75*
G04 Layer_Color=2752767*
%ADD10O,1.40X0.45*%
%ADD11R,0.40X0.80*%
%ADD12R,1.00X0.90*%
%ADD13R,0.90X1.00*%
%ADD14R,0.80X0.40*%
%ADD15O,1.90X0.60*%
%ADD16R,0.90X2.25*%
%ADD17R,3.25X2.25*%
%ADD18C,0.25*%
%ADD19C,0.40*%
%ADD20C,0.30*%
%ADD21C,0.80*%
%ADD22C,0.50*%
%ADD23C,0.10*%
%ADD24C,0.05*%
%ADD25C,0.15*%
%ADD26C,1.50*%
%ADD27C,5.00*%
%ADD28C,2.00*%
%ADD29C,1.27*%
%ADD30C,6.00*%
%ADD31C,0.60*%
%ADD32C,0.25*%
%ADD33C,0.20*%
%ADD34O,1.60X0.65*%
%ADD35R,0.66X1.06*%
%ADD36R,0.60X1.00*%
%ADD37R,1.20X1.10*%
%ADD38R,1.10X1.20*%
%ADD39R,1.06X0.66*%
%ADD40R,1.00X0.60*%
%ADD41O,2.10X0.80*%
%ADD42R,1.10X2.45*%
%ADD43R,3.45X2.45*%
%ADD44C,1.70*%
%ADD45C,5.20*%
%ADD46C,2.20*%
%ADD47C,1.47*%
%ADD48C,6.20*%
%ADD49C,0.08*%
%ADD50C,0.38*%
%ADD51C,0.41*%
D18*
X-16Y10545D02*
X6610D01*
X7757D02*
X14384D01*
X-16D02*
X136Y10596D01*
X-16Y10545D02*
X136Y10494D01*
X14231Y10596D02*
X14384Y10545D01*
X14231Y10494D02*
X14384Y10545D01*
X-16Y10520D02*
Y10570D01*
X14384Y10520D02*
Y10570D01*
X-663Y10011D02*
X-662Y5585D01*
X-662Y4438D02*
X-662Y11D01*
X-663Y10011D02*
X-612Y9859D01*
X-713D02*
X-663Y10011D01*
X-662Y11D02*
X-612Y164D01*
X-713D02*
X-662Y11D01*
X-688Y10011D02*
X-637D01*
X-688Y11D02*
X-637D01*
X23171Y2460D02*
Y2613D01*
X23247D01*
X23273Y2587D01*
Y2536D01*
X23247Y2511D01*
X23171D01*
X23222D02*
X23273Y2460D01*
X23349D02*
X23400D01*
X23425Y2486D01*
Y2536D01*
X23400Y2562D01*
X23349D01*
X23324Y2536D01*
Y2486D01*
X23349Y2460D01*
X23476Y2562D02*
Y2486D01*
X23501Y2460D01*
X23577D01*
Y2562D01*
X23628Y2460D02*
Y2562D01*
X23704D01*
X23730Y2536D01*
Y2460D01*
X23882Y2613D02*
Y2460D01*
X23806D01*
X23781Y2486D01*
Y2536D01*
X23806Y2562D01*
X23882D01*
X23171Y2079D02*
Y2232D01*
X23247D01*
X23273Y2206D01*
Y2155D01*
X23247Y2130D01*
X23171D01*
X23222D02*
X23273Y2079D01*
X23349D02*
X23400D01*
X23425Y2105D01*
Y2155D01*
X23400Y2181D01*
X23349D01*
X23324Y2155D01*
Y2105D01*
X23349Y2079D01*
X23476Y2181D02*
Y2105D01*
X23501Y2079D01*
X23577D01*
Y2181D01*
X23628Y2079D02*
Y2181D01*
X23704D01*
X23730Y2155D01*
Y2079D01*
X23882Y2232D02*
Y2079D01*
X23806D01*
X23781Y2105D01*
Y2155D01*
X23806Y2181D01*
X23882D01*
X23171Y1698D02*
Y1851D01*
X23247D01*
X23273Y1825D01*
Y1774D01*
X23247Y1749D01*
X23171D01*
X23222D02*
X23273Y1698D01*
X23349D02*
X23400D01*
X23425Y1724D01*
Y1774D01*
X23400Y1800D01*
X23349D01*
X23324Y1774D01*
Y1724D01*
X23349Y1698D01*
X23476Y1800D02*
Y1724D01*
X23501Y1698D01*
X23577D01*
Y1800D01*
X23628Y1698D02*
Y1800D01*
X23704D01*
X23730Y1774D01*
Y1698D01*
X23882Y1851D02*
Y1698D01*
X23806D01*
X23781Y1724D01*
Y1774D01*
X23806Y1800D01*
X23882D01*
X23171Y1317D02*
Y1470D01*
X23247D01*
X23273Y1444D01*
Y1393D01*
X23247Y1368D01*
X23171D01*
X23222D02*
X23273Y1317D01*
X23349D02*
X23400D01*
X23425Y1343D01*
Y1393D01*
X23400Y1419D01*
X23349D01*
X23324Y1393D01*
Y1343D01*
X23349Y1317D01*
X23476Y1419D02*
Y1343D01*
X23501Y1317D01*
X23577D01*
Y1419D01*
X23628Y1317D02*
Y1419D01*
X23704D01*
X23730Y1393D01*
Y1317D01*
X23882Y1470D02*
Y1317D01*
X23806D01*
X23781Y1343D01*
Y1393D01*
X23806Y1419D01*
X23882D01*
X23171Y936D02*
Y1089D01*
X23247D01*
X23273Y1063D01*
Y1012D01*
X23247Y987D01*
X23171D01*
X23222D02*
X23273Y936D01*
X23349D02*
X23400D01*
X23425Y962D01*
Y1012D01*
X23400Y1038D01*
X23349D01*
X23324Y1012D01*
Y962D01*
X23349Y936D01*
X23476Y1038D02*
Y962D01*
X23501Y936D01*
X23577D01*
Y1038D01*
X23628Y936D02*
Y1038D01*
X23704D01*
X23730Y1012D01*
Y936D01*
X23882Y1089D02*
Y936D01*
X23806D01*
X23781Y962D01*
Y1012D01*
X23806Y1038D01*
X23882D01*
X23171Y555D02*
Y708D01*
X23247D01*
X23273Y682D01*
Y631D01*
X23247Y606D01*
X23171D01*
X23222D02*
X23273Y555D01*
X23349D02*
X23400D01*
X23425Y581D01*
Y631D01*
X23400Y657D01*
X23349D01*
X23324Y631D01*
Y581D01*
X23349Y555D01*
X23476Y657D02*
Y581D01*
X23501Y555D01*
X23577D01*
Y657D01*
X23628Y555D02*
Y657D01*
X23704D01*
X23730Y631D01*
Y555D01*
X23882Y708D02*
Y555D01*
X23806D01*
X23781Y581D01*
Y631D01*
X23806Y657D01*
X23882D01*
X21886Y2460D02*
Y2613D01*
X21962D01*
X21988Y2587D01*
Y2536D01*
X21962Y2511D01*
X21886D01*
X22039Y2613D02*
X22140D01*
X22089D01*
Y2460D01*
X22191Y2613D02*
Y2460D01*
Y2536D01*
X22293D01*
Y2613D01*
Y2460D01*
X21886Y2079D02*
Y2232D01*
X21962D01*
X21988Y2206D01*
Y2155D01*
X21962Y2130D01*
X21886D01*
X22039Y2232D02*
X22140D01*
X22089D01*
Y2079D01*
X22191Y2232D02*
Y2079D01*
Y2155D01*
X22293D01*
Y2232D01*
Y2079D01*
X21886Y1698D02*
Y1851D01*
X21962D01*
X21988Y1825D01*
Y1774D01*
X21962Y1749D01*
X21886D01*
X22039Y1851D02*
X22140D01*
X22089D01*
Y1698D01*
X22191Y1851D02*
Y1698D01*
Y1774D01*
X22293D01*
Y1851D01*
Y1698D01*
X21886Y1317D02*
Y1470D01*
X21962D01*
X21988Y1444D01*
Y1393D01*
X21962Y1368D01*
X21886D01*
X22039Y1470D02*
X22140D01*
X22089D01*
Y1317D01*
X22191Y1470D02*
Y1317D01*
Y1393D01*
X22293D01*
Y1470D01*
Y1317D01*
X21886Y936D02*
Y1089D01*
X21962D01*
X21988Y1063D01*
Y1012D01*
X21962Y987D01*
X21886D01*
X22039Y1089D02*
X22140D01*
X22089D01*
Y936D01*
X22191Y1089D02*
Y936D01*
Y1012D01*
X22293D01*
Y1089D01*
Y936D01*
X21886Y555D02*
Y708D01*
X21962D01*
X21988Y682D01*
Y631D01*
X21962Y606D01*
X21886D01*
X22039Y708D02*
X22140D01*
X22089D01*
Y555D01*
X22191Y708D02*
Y555D01*
Y631D01*
X22293D01*
Y708D01*
Y555D01*
X18468Y2587D02*
X18494Y2613D01*
X18545D01*
X18570Y2587D01*
Y2562D01*
X18545Y2536D01*
X18519D01*
X18545D01*
X18570Y2511D01*
Y2486D01*
X18545Y2460D01*
X18494D01*
X18468Y2486D01*
X18621Y2460D02*
Y2486D01*
X18646D01*
Y2460D01*
X18621D01*
X18849Y2613D02*
X18748D01*
Y2536D01*
X18799Y2562D01*
X18824D01*
X18849Y2536D01*
Y2486D01*
X18824Y2460D01*
X18773D01*
X18748Y2486D01*
X19002Y2613D02*
X18951Y2587D01*
X18900Y2536D01*
Y2486D01*
X18926Y2460D01*
X18976D01*
X19002Y2486D01*
Y2511D01*
X18976Y2536D01*
X18900D01*
X19052Y2587D02*
X19078Y2613D01*
X19129D01*
X19154Y2587D01*
Y2486D01*
X19129Y2460D01*
X19078D01*
X19052Y2486D01*
Y2587D01*
X19205Y2460D02*
Y2562D01*
X19230D01*
X19256Y2536D01*
Y2460D01*
Y2536D01*
X19281Y2562D01*
X19306Y2536D01*
Y2460D01*
X19357D02*
Y2562D01*
X19383D01*
X19408Y2536D01*
Y2460D01*
Y2536D01*
X19433Y2562D01*
X19459Y2536D01*
Y2460D01*
X19713D02*
X19662Y2511D01*
Y2562D01*
X19713Y2613D01*
X19789Y2460D02*
X19840D01*
X19814D01*
Y2613D01*
X19789Y2587D01*
X19992Y2460D02*
Y2613D01*
X19916Y2536D01*
X20017D01*
X20068Y2587D02*
X20094Y2613D01*
X20144D01*
X20170Y2587D01*
Y2486D01*
X20144Y2460D01*
X20094D01*
X20068Y2486D01*
Y2587D01*
X20221Y2460D02*
Y2486D01*
X20246D01*
Y2460D01*
X20221D01*
X20347D02*
X20398D01*
X20373D01*
Y2613D01*
X20347Y2587D01*
X20576Y2613D02*
X20525Y2587D01*
X20474Y2536D01*
Y2486D01*
X20500Y2460D01*
X20551D01*
X20576Y2486D01*
Y2511D01*
X20551Y2536D01*
X20474D01*
X20627Y2460D02*
Y2562D01*
X20652D01*
X20678Y2536D01*
Y2460D01*
Y2536D01*
X20703Y2562D01*
X20728Y2536D01*
Y2460D01*
X20779D02*
X20830D01*
X20805D01*
Y2562D01*
X20779D01*
X20906Y2460D02*
X20957D01*
X20931D01*
Y2613D01*
X20906D01*
X21033Y2460D02*
X21084Y2511D01*
Y2562D01*
X21033Y2613D01*
X18468Y2206D02*
X18494Y2232D01*
X18545D01*
X18570Y2206D01*
Y2181D01*
X18545Y2155D01*
X18519D01*
X18545D01*
X18570Y2130D01*
Y2105D01*
X18545Y2079D01*
X18494D01*
X18468Y2105D01*
X18621Y2079D02*
Y2105D01*
X18646D01*
Y2079D01*
X18621D01*
X18748Y2206D02*
X18773Y2232D01*
X18824D01*
X18849Y2206D01*
Y2105D01*
X18824Y2079D01*
X18773D01*
X18748Y2105D01*
Y2206D01*
X19002Y2232D02*
X18900D01*
Y2155D01*
X18951Y2181D01*
X18976D01*
X19002Y2155D01*
Y2105D01*
X18976Y2079D01*
X18926D01*
X18900Y2105D01*
X19052Y2206D02*
X19078Y2232D01*
X19129D01*
X19154Y2206D01*
Y2105D01*
X19129Y2079D01*
X19078D01*
X19052Y2105D01*
Y2206D01*
X19205Y2079D02*
Y2181D01*
X19230D01*
X19256Y2155D01*
Y2079D01*
Y2155D01*
X19281Y2181D01*
X19306Y2155D01*
Y2079D01*
X19357D02*
Y2181D01*
X19383D01*
X19408Y2155D01*
Y2079D01*
Y2155D01*
X19433Y2181D01*
X19459Y2155D01*
Y2079D01*
X19713D02*
X19662Y2130D01*
Y2181D01*
X19713Y2232D01*
X19789Y2079D02*
X19840D01*
X19814D01*
Y2232D01*
X19789Y2206D01*
X20017Y2079D02*
X19916D01*
X20017Y2181D01*
Y2206D01*
X19992Y2232D01*
X19941D01*
X19916Y2206D01*
X20068D02*
X20094Y2232D01*
X20144D01*
X20170Y2206D01*
Y2105D01*
X20144Y2079D01*
X20094D01*
X20068Y2105D01*
Y2206D01*
X20221Y2079D02*
Y2105D01*
X20246D01*
Y2079D01*
X20221D01*
X20347Y2206D02*
X20373Y2232D01*
X20424D01*
X20449Y2206D01*
Y2105D01*
X20424Y2079D01*
X20373D01*
X20347Y2105D01*
Y2206D01*
X20500D02*
X20525Y2232D01*
X20576D01*
X20601Y2206D01*
Y2181D01*
X20576Y2155D01*
X20601Y2130D01*
Y2105D01*
X20576Y2079D01*
X20525D01*
X20500Y2105D01*
Y2130D01*
X20525Y2155D01*
X20500Y2181D01*
Y2206D01*
X20525Y2155D02*
X20576D01*
X20652Y2079D02*
Y2181D01*
X20678D01*
X20703Y2155D01*
Y2079D01*
Y2155D01*
X20728Y2181D01*
X20754Y2155D01*
Y2079D01*
X20805D02*
X20855D01*
X20830D01*
Y2181D01*
X20805D01*
X20931Y2079D02*
X20982D01*
X20957D01*
Y2232D01*
X20931D01*
X21058Y2079D02*
X21109Y2130D01*
Y2181D01*
X21058Y2232D01*
X18545Y1698D02*
Y1851D01*
X18468Y1774D01*
X18570D01*
X18621Y1698D02*
Y1724D01*
X18646D01*
Y1698D01*
X18621D01*
X18748Y1825D02*
X18773Y1851D01*
X18824D01*
X18849Y1825D01*
Y1724D01*
X18824Y1698D01*
X18773D01*
X18748Y1724D01*
Y1825D01*
X18900D02*
X18926Y1851D01*
X18976D01*
X19002Y1825D01*
Y1724D01*
X18976Y1698D01*
X18926D01*
X18900Y1724D01*
Y1825D01*
X19052D02*
X19078Y1851D01*
X19129D01*
X19154Y1825D01*
Y1724D01*
X19129Y1698D01*
X19078D01*
X19052Y1724D01*
Y1825D01*
X19205Y1698D02*
Y1800D01*
X19230D01*
X19256Y1774D01*
Y1698D01*
Y1774D01*
X19281Y1800D01*
X19306Y1774D01*
Y1698D01*
X19357D02*
Y1800D01*
X19383D01*
X19408Y1774D01*
Y1698D01*
Y1774D01*
X19433Y1800D01*
X19459Y1774D01*
Y1698D01*
X19713D02*
X19662Y1749D01*
Y1800D01*
X19713Y1851D01*
X19789Y1698D02*
X19840D01*
X19814D01*
Y1851D01*
X19789Y1825D01*
X20017Y1851D02*
X19916D01*
Y1774D01*
X19967Y1800D01*
X19992D01*
X20017Y1774D01*
Y1724D01*
X19992Y1698D01*
X19941D01*
X19916Y1724D01*
X20068Y1851D02*
X20170D01*
Y1825D01*
X20068Y1724D01*
Y1698D01*
X20221D02*
Y1724D01*
X20246D01*
Y1698D01*
X20221D01*
X20424D02*
Y1851D01*
X20347Y1774D01*
X20449D01*
X20500Y1825D02*
X20525Y1851D01*
X20576D01*
X20601Y1825D01*
Y1800D01*
X20576Y1774D01*
X20601Y1749D01*
Y1724D01*
X20576Y1698D01*
X20525D01*
X20500Y1724D01*
Y1749D01*
X20525Y1774D01*
X20500Y1800D01*
Y1825D01*
X20525Y1774D02*
X20576D01*
X20652Y1698D02*
Y1800D01*
X20678D01*
X20703Y1774D01*
Y1698D01*
Y1774D01*
X20728Y1800D01*
X20754Y1774D01*
Y1698D01*
X20805D02*
X20855D01*
X20830D01*
Y1800D01*
X20805D01*
X20931Y1698D02*
X20982D01*
X20957D01*
Y1851D01*
X20931D01*
X21058Y1698D02*
X21109Y1749D01*
Y1800D01*
X21058Y1851D01*
X18468Y1317D02*
X18519D01*
X18494D01*
Y1470D01*
X18468Y1444D01*
X18595Y1317D02*
Y1343D01*
X18621D01*
Y1317D01*
X18595D01*
X18722D02*
X18773D01*
X18748D01*
Y1470D01*
X18722Y1444D01*
X18849D02*
X18875Y1470D01*
X18926D01*
X18951Y1444D01*
Y1343D01*
X18926Y1317D01*
X18875D01*
X18849Y1343D01*
Y1444D01*
X19002D02*
X19027Y1470D01*
X19078D01*
X19103Y1444D01*
Y1343D01*
X19078Y1317D01*
X19027D01*
X19002Y1343D01*
Y1444D01*
X19154Y1317D02*
Y1419D01*
X19179D01*
X19205Y1393D01*
Y1317D01*
Y1393D01*
X19230Y1419D01*
X19256Y1393D01*
Y1317D01*
X19306D02*
Y1419D01*
X19332D01*
X19357Y1393D01*
Y1317D01*
Y1393D01*
X19383Y1419D01*
X19408Y1393D01*
Y1317D01*
X19662D02*
X19611Y1368D01*
Y1419D01*
X19662Y1470D01*
X19814Y1317D02*
Y1470D01*
X19738Y1393D01*
X19840D01*
X19890Y1444D02*
X19916Y1470D01*
X19967D01*
X19992Y1444D01*
Y1419D01*
X19967Y1393D01*
X19941D01*
X19967D01*
X19992Y1368D01*
Y1343D01*
X19967Y1317D01*
X19916D01*
X19890Y1343D01*
X20043Y1317D02*
Y1343D01*
X20068D01*
Y1317D01*
X20043D01*
X20170Y1444D02*
X20195Y1470D01*
X20246D01*
X20271Y1444D01*
Y1419D01*
X20246Y1393D01*
X20221D01*
X20246D01*
X20271Y1368D01*
Y1343D01*
X20246Y1317D01*
X20195D01*
X20170Y1343D01*
X20322Y1317D02*
X20373D01*
X20347D01*
Y1470D01*
X20322Y1444D01*
X20449Y1317D02*
Y1419D01*
X20474D01*
X20500Y1393D01*
Y1317D01*
Y1393D01*
X20525Y1419D01*
X20551Y1393D01*
Y1317D01*
X20601D02*
X20652D01*
X20627D01*
Y1419D01*
X20601D01*
X20728Y1317D02*
X20779D01*
X20754D01*
Y1470D01*
X20728D01*
X20855Y1317D02*
X20906Y1368D01*
Y1419D01*
X20855Y1470D01*
X18468Y1063D02*
X18494Y1089D01*
X18545D01*
X18570Y1063D01*
Y962D01*
X18545Y936D01*
X18494D01*
X18468Y962D01*
Y1063D01*
X18621Y936D02*
Y962D01*
X18646D01*
Y936D01*
X18621D01*
X18748Y1089D02*
X18849D01*
Y1063D01*
X18748Y962D01*
Y936D01*
X18900D02*
X18951D01*
X18926D01*
Y1089D01*
X18900Y1063D01*
X19027Y936D02*
X19078D01*
X19052D01*
Y1089D01*
X19027Y1063D01*
X19154Y936D02*
Y1038D01*
X19179D01*
X19205Y1012D01*
Y936D01*
Y1012D01*
X19230Y1038D01*
X19256Y1012D01*
Y936D01*
X19306D02*
Y1038D01*
X19332D01*
X19357Y1012D01*
Y936D01*
Y1012D01*
X19383Y1038D01*
X19408Y1012D01*
Y936D01*
X19662D02*
X19611Y987D01*
Y1038D01*
X19662Y1089D01*
X19840Y936D02*
X19738D01*
X19840Y1038D01*
Y1063D01*
X19814Y1089D01*
X19763D01*
X19738Y1063D01*
X19890D02*
X19916Y1089D01*
X19967D01*
X19992Y1063D01*
Y1038D01*
X19967Y1012D01*
X19992Y987D01*
Y962D01*
X19967Y936D01*
X19916D01*
X19890Y962D01*
Y987D01*
X19916Y1012D01*
X19890Y1038D01*
Y1063D01*
X19916Y1012D02*
X19967D01*
X20043Y936D02*
Y962D01*
X20068D01*
Y936D01*
X20043D01*
X20170Y1063D02*
X20195Y1089D01*
X20246D01*
X20271Y1063D01*
Y962D01*
X20246Y936D01*
X20195D01*
X20170Y962D01*
Y1063D01*
X20322D02*
X20347Y1089D01*
X20398D01*
X20424Y1063D01*
Y962D01*
X20398Y936D01*
X20347D01*
X20322Y962D01*
Y1063D01*
X20474Y936D02*
Y1038D01*
X20500D01*
X20525Y1012D01*
Y936D01*
Y1012D01*
X20551Y1038D01*
X20576Y1012D01*
Y936D01*
X20627D02*
X20678D01*
X20652D01*
Y1038D01*
X20627D01*
X20754Y936D02*
X20805D01*
X20779D01*
Y1089D01*
X20754D01*
X20881Y936D02*
X20931Y987D01*
Y1038D01*
X20881Y1089D01*
X18468Y682D02*
X18494Y708D01*
X18545D01*
X18570Y682D01*
Y581D01*
X18545Y555D01*
X18494D01*
X18468Y581D01*
Y682D01*
X18621Y555D02*
Y581D01*
X18646D01*
Y555D01*
X18621D01*
X18748Y682D02*
X18773Y708D01*
X18824D01*
X18849Y682D01*
Y657D01*
X18824Y631D01*
X18849Y606D01*
Y581D01*
X18824Y555D01*
X18773D01*
X18748Y581D01*
Y606D01*
X18773Y631D01*
X18748Y657D01*
Y682D01*
X18773Y631D02*
X18824D01*
X18900Y682D02*
X18926Y708D01*
X18976D01*
X19002Y682D01*
Y581D01*
X18976Y555D01*
X18926D01*
X18900Y581D01*
Y682D01*
X19052D02*
X19078Y708D01*
X19129D01*
X19154Y682D01*
Y581D01*
X19129Y555D01*
X19078D01*
X19052Y581D01*
Y682D01*
X19205Y555D02*
Y657D01*
X19230D01*
X19256Y631D01*
Y555D01*
Y631D01*
X19281Y657D01*
X19306Y631D01*
Y555D01*
X19357D02*
Y657D01*
X19383D01*
X19408Y631D01*
Y555D01*
Y631D01*
X19433Y657D01*
X19459Y631D01*
Y555D01*
X19713D02*
X19662Y606D01*
Y657D01*
X19713Y708D01*
X19789Y682D02*
X19814Y708D01*
X19865D01*
X19890Y682D01*
Y657D01*
X19865Y631D01*
X19840D01*
X19865D01*
X19890Y606D01*
Y581D01*
X19865Y555D01*
X19814D01*
X19789Y581D01*
X19941Y555D02*
X19992D01*
X19967D01*
Y708D01*
X19941Y682D01*
X20068Y555D02*
Y581D01*
X20094D01*
Y555D01*
X20068D01*
X20297Y708D02*
X20195D01*
Y631D01*
X20246Y657D01*
X20271D01*
X20297Y631D01*
Y581D01*
X20271Y555D01*
X20221D01*
X20195Y581D01*
X20347Y682D02*
X20373Y708D01*
X20424D01*
X20449Y682D01*
Y581D01*
X20424Y555D01*
X20373D01*
X20347Y581D01*
Y682D01*
X20500Y555D02*
Y657D01*
X20525D01*
X20551Y631D01*
Y555D01*
Y631D01*
X20576Y657D01*
X20601Y631D01*
Y555D01*
X20652D02*
X20703D01*
X20678D01*
Y657D01*
X20652D01*
X20779Y555D02*
X20830D01*
X20805D01*
Y708D01*
X20779D01*
X20906Y555D02*
X20957Y606D01*
Y657D01*
X20906Y708D01*
X16696Y174D02*
X16747D01*
X16721D01*
Y327D01*
X16696Y301D01*
X16899Y174D02*
Y327D01*
X16823Y250D01*
X16925D01*
X16975Y174D02*
X17026D01*
X17001D01*
Y327D01*
X16975Y301D01*
X17255Y327D02*
X17356D01*
X17305D01*
Y174D01*
X17432D02*
X17483D01*
X17509Y200D01*
Y250D01*
X17483Y276D01*
X17432D01*
X17407Y250D01*
Y200D01*
X17432Y174D01*
X17585Y301D02*
Y276D01*
X17559D01*
X17610D01*
X17585D01*
Y200D01*
X17610Y174D01*
X17712Y276D02*
X17762D01*
X17788Y250D01*
Y174D01*
X17712D01*
X17686Y200D01*
X17712Y225D01*
X17788D01*
X17839Y174D02*
X17889D01*
X17864D01*
Y327D01*
X17839D01*
X16696Y2460D02*
X16747D01*
X16721D01*
Y2613D01*
X16696Y2587D01*
X16798Y2079D02*
X16696D01*
X16798Y2181D01*
Y2206D01*
X16772Y2232D01*
X16721D01*
X16696Y2206D01*
X16772Y1698D02*
Y1851D01*
X16696Y1774D01*
X16798D01*
Y1317D02*
X16696D01*
X16798Y1419D01*
Y1444D01*
X16772Y1470D01*
X16721D01*
X16696Y1444D01*
X16848D02*
X16874Y1470D01*
X16925D01*
X16950Y1444D01*
Y1343D01*
X16925Y1317D01*
X16874D01*
X16848Y1343D01*
Y1444D01*
X16772Y936D02*
Y1089D01*
X16696Y1012D01*
X16798D01*
X16848Y1063D02*
X16874Y1089D01*
X16925D01*
X16950Y1063D01*
Y1038D01*
X16925Y1012D01*
X16899D01*
X16925D01*
X16950Y987D01*
Y962D01*
X16925Y936D01*
X16874D01*
X16848Y962D01*
X16696Y708D02*
X16798D01*
Y682D01*
X16696Y581D01*
Y555D01*
X16848D02*
X16899D01*
X16874D01*
Y708D01*
X16848Y682D01*
D20*
X0Y10000D02*
X0Y0D01*
X0Y10000D02*
X14400D01*
Y0D02*
Y10000D01*
X0Y0D02*
X14400Y0D01*
D23*
X9808Y3075D02*
G03*
X9808Y3075I-50J0D01*
G01*
X13006Y2960D02*
G03*
X13006Y2960I-50J0D01*
G01*
X1741Y3448D02*
G03*
X1741Y3448I-50J0D01*
G01*
X5589Y7089D02*
G03*
X5589Y7089I-50J0D01*
G01*
X3532Y3499D02*
G03*
X3532Y3499I-50J0D01*
G01*
X9668Y2185D02*
X10118D01*
X9668Y3165D02*
X10118D01*
Y2185D02*
Y3165D01*
X9668Y2185D02*
Y3165D01*
X12866Y2070D02*
X13316D01*
X12866Y3050D02*
X13316D01*
Y2070D02*
Y3050D01*
X12866Y2070D02*
Y3050D01*
X3760Y4103D02*
X3980D01*
X3760Y3967D02*
X3980D01*
Y4103D01*
X3760Y3967D02*
Y4103D01*
X5317Y7639D02*
X5412D01*
X5317Y7814D02*
X5412D01*
X5317Y7639D02*
Y7814D01*
X5412Y7639D02*
Y7814D01*
X5940Y5177D02*
Y5272D01*
X5765Y5177D02*
Y5272D01*
Y5177D02*
X5940D01*
X5765Y5272D02*
X5940D01*
X6904Y6107D02*
X6999D01*
X6904Y5932D02*
X6999D01*
Y6107D01*
X6904Y5932D02*
Y6107D01*
X5071Y7812D02*
X5166D01*
X5071Y7637D02*
X5166D01*
Y7812D01*
X5071Y7637D02*
Y7812D01*
X6879Y6953D02*
X6974D01*
X6879Y7128D02*
X6974D01*
X6879Y6953D02*
Y7128D01*
X6974Y6953D02*
Y7128D01*
X2861Y9216D02*
Y9311D01*
X3036Y9216D02*
Y9311D01*
X2861D02*
X3036D01*
X2861Y9216D02*
X3036D01*
X5091Y7357D02*
Y7452D01*
X4916Y7357D02*
Y7452D01*
Y7357D02*
X5091D01*
X4916Y7452D02*
X5091D01*
X1601Y2558D02*
X2051D01*
X1601Y3538D02*
X2051D01*
Y2558D02*
Y3538D01*
X1601Y2558D02*
Y3538D01*
X11240Y2967D02*
Y3188D01*
X11375Y2967D02*
Y3188D01*
X11240D02*
X11375D01*
X11240Y2967D02*
X11375D01*
X1252Y1727D02*
X1427D01*
X1252Y1823D02*
X1427D01*
Y1727D02*
Y1823D01*
X1252Y1727D02*
Y1823D01*
X5449Y5389D02*
X6209D01*
X5449Y7179D02*
X6209D01*
Y5389D02*
Y7179D01*
X5449Y5389D02*
Y7179D01*
X1461Y1348D02*
X2131D01*
X1461Y978D02*
X2131D01*
Y1348D01*
X1461Y978D02*
Y1348D01*
X2352Y1127D02*
Y1223D01*
X2527Y1127D02*
Y1223D01*
X2352D02*
X2527D01*
X2352Y1127D02*
X2527D01*
X3392Y2609D02*
X3842D01*
X3392Y3589D02*
X3842D01*
Y2609D02*
Y3589D01*
X3392Y2609D02*
Y3589D01*
X9893Y2625D02*
Y2725D01*
X9843Y2675D02*
X9943D01*
X13091Y2510D02*
Y2610D01*
X13041Y2560D02*
X13141D01*
X3870Y3985D02*
Y4085D01*
X3820Y4035D02*
X3920D01*
X5364Y7679D02*
Y7774D01*
X5317Y7727D02*
X5412D01*
X5805Y5225D02*
X5900D01*
X5852Y5177D02*
Y5272D01*
X6952Y5972D02*
Y6067D01*
X6904Y6020D02*
X6999D01*
X5118Y7677D02*
Y7772D01*
X5071Y7724D02*
X5166D01*
X6927Y6993D02*
Y7088D01*
X6879Y7041D02*
X6974D01*
X2901Y9263D02*
X2996D01*
X2949Y9216D02*
Y9311D01*
X4956Y7404D02*
X5051D01*
X5004Y7357D02*
Y7452D01*
X1826Y2998D02*
Y3098D01*
X1776Y3048D02*
X1876D01*
X11257Y3077D02*
X11357D01*
X11307Y3027D02*
Y3127D01*
X1340Y1727D02*
Y1823D01*
X1293Y1775D02*
X1388D01*
X5829Y6234D02*
Y6334D01*
X5779Y6284D02*
X5879D01*
X1796Y1113D02*
Y1213D01*
X1746Y1163D02*
X1846D01*
X2392Y1175D02*
X2488D01*
X2440Y1127D02*
Y1223D01*
X3617Y3049D02*
Y3149D01*
X3567Y3099D02*
X3667D01*
D24*
X9506Y2160D02*
X10281D01*
X9506Y3190D02*
X10281D01*
Y2160D02*
Y3190D01*
X9506Y2160D02*
Y3190D01*
X12704Y2045D02*
X13479D01*
X12704Y3075D02*
X13479D01*
Y2045D02*
Y3075D01*
X12704Y2045D02*
Y3075D01*
X3735Y4208D02*
X4005D01*
X3735Y3862D02*
X4005D01*
Y4208D01*
X3735Y3862D02*
Y4208D01*
X5289Y7592D02*
X5439D01*
X5289Y7862D02*
X5439D01*
X5289Y7592D02*
Y7862D01*
X5439Y7592D02*
Y7862D01*
X5987Y5150D02*
Y5300D01*
X5717Y5150D02*
Y5300D01*
Y5150D02*
X5987D01*
X5717Y5300D02*
X5987D01*
X6877Y6155D02*
X7027D01*
X6877Y5885D02*
X7027D01*
Y6155D01*
X6877Y5885D02*
Y6155D01*
X5043Y7859D02*
X5193D01*
X5043Y7589D02*
X5193D01*
Y7859D01*
X5043Y7589D02*
Y7859D01*
X6852Y6906D02*
X7002D01*
X6852Y7176D02*
X7002D01*
X6852Y6906D02*
Y7176D01*
X7002Y6906D02*
Y7176D01*
X2814Y9188D02*
Y9338D01*
X3084Y9188D02*
Y9338D01*
X2814D02*
X3084D01*
X2814Y9188D02*
X3084D01*
X5139Y7329D02*
Y7479D01*
X4869Y7329D02*
Y7479D01*
Y7329D02*
X5139D01*
X4869Y7479D02*
X5139D01*
X1439Y2533D02*
X2214D01*
X1439Y3563D02*
X2214D01*
Y2533D02*
Y3563D01*
X1439Y2533D02*
Y3563D01*
X11135Y2942D02*
Y3212D01*
X11480Y2942D02*
Y3212D01*
X11135D02*
X11480D01*
X11135Y2942D02*
X11480D01*
X1205Y1700D02*
X1475D01*
X1205Y1850D02*
X1475D01*
Y1700D02*
Y1850D01*
X1205Y1700D02*
Y1850D01*
X5237Y5364D02*
X6422D01*
X5237Y7204D02*
X6422D01*
Y5364D02*
Y7204D01*
X5237Y5364D02*
Y7204D01*
X1436Y1598D02*
X2156D01*
X1436Y728D02*
X2156D01*
Y1598D01*
X1436Y728D02*
Y1598D01*
X2305Y1100D02*
Y1250D01*
X2575Y1100D02*
Y1250D01*
X2305D02*
X2575D01*
X2305Y1100D02*
X2575D01*
X3229Y2584D02*
X4004D01*
X3229Y3614D02*
X4004D01*
Y2584D02*
Y3614D01*
X3229Y2584D02*
Y3614D01*
D25*
X6635Y10454D02*
X6686D01*
X6661D01*
Y10606D01*
X6635Y10581D01*
X6838Y10454D02*
Y10606D01*
X6762Y10530D01*
X6864D01*
X6991Y10454D02*
Y10606D01*
X6914Y10530D01*
X7016D01*
X7270Y10454D02*
X7219Y10504D01*
Y10555D01*
X7270Y10606D01*
X7346Y10454D02*
Y10555D01*
X7372D01*
X7397Y10530D01*
Y10454D01*
Y10530D01*
X7422Y10555D01*
X7448Y10530D01*
Y10454D01*
X7498D02*
Y10555D01*
X7524D01*
X7549Y10530D01*
Y10454D01*
Y10530D01*
X7575Y10555D01*
X7600Y10530D01*
Y10454D01*
X7651D02*
X7702Y10504D01*
Y10555D01*
X7651Y10606D01*
X-754Y5560D02*
Y5509D01*
Y5534D01*
X-602D01*
X-627Y5560D01*
Y5433D02*
X-602Y5407D01*
Y5357D01*
X-627Y5331D01*
X-729D01*
X-754Y5357D01*
Y5407D01*
X-729Y5433D01*
X-627D01*
Y5281D02*
X-602Y5255D01*
Y5204D01*
X-627Y5179D01*
X-729D01*
X-754Y5204D01*
Y5255D01*
X-729Y5281D01*
X-627D01*
X-754Y4925D02*
X-703Y4976D01*
X-652D01*
X-602Y4925D01*
X-754Y4849D02*
X-652D01*
Y4823D01*
X-678Y4798D01*
X-754D01*
X-678D01*
X-652Y4773D01*
X-678Y4747D01*
X-754D01*
Y4697D02*
X-652D01*
Y4671D01*
X-678Y4646D01*
X-754D01*
X-678D01*
X-652Y4620D01*
X-678Y4595D01*
X-754D01*
Y4544D02*
X-703Y4493D01*
X-652D01*
X-602Y4544D01*
D49*
X15483Y619D02*
G03*
X15483Y619I-63J0D01*
G01*
X11454Y7344D02*
G03*
X11454Y7344I-42J0D01*
G01*
X11708Y5566D02*
G03*
X11708Y5566I-42J0D01*
G01*
Y5312D02*
G03*
X11708Y5312I-42J0D01*
G01*
X11454Y6328D02*
G03*
X11454Y6328I-42J0D01*
G01*
Y7598D02*
G03*
X11454Y7598I-42J0D01*
G01*
Y4804D02*
G03*
X11454Y4804I-42J0D01*
G01*
Y6582D02*
G03*
X11454Y6582I-42J0D01*
G01*
X11708D02*
G03*
X11708Y6582I-42J0D01*
G01*
Y7090D02*
G03*
X11708Y7090I-42J0D01*
G01*
X11454Y5312D02*
G03*
X11454Y5312I-42J0D01*
G01*
X11708Y6074D02*
G03*
X11708Y6074I-42J0D01*
G01*
Y7852D02*
G03*
X11708Y7852I-42J0D01*
G01*
X11454Y4550D02*
G03*
X11454Y4550I-42J0D01*
G01*
Y6074D02*
G03*
X11454Y6074I-42J0D01*
G01*
X11708Y5058D02*
G03*
X11708Y5058I-42J0D01*
G01*
Y8360D02*
G03*
X11708Y8360I-42J0D01*
G01*
X11454Y8106D02*
G03*
X11454Y8106I-42J0D01*
G01*
Y5058D02*
G03*
X11454Y5058I-42J0D01*
G01*
X11708Y7598D02*
G03*
X11708Y7598I-42J0D01*
G01*
Y4296D02*
G03*
X11708Y4296I-42J0D01*
G01*
X11454D02*
G03*
X11454Y4296I-42J0D01*
G01*
Y5566D02*
G03*
X11454Y5566I-42J0D01*
G01*
Y5820D02*
G03*
X11454Y5820I-42J0D01*
G01*
Y7852D02*
G03*
X11454Y7852I-42J0D01*
G01*
Y7090D02*
G03*
X11454Y7090I-42J0D01*
G01*
Y6836D02*
G03*
X11454Y6836I-42J0D01*
G01*
X11708Y7344D02*
G03*
X11708Y7344I-42J0D01*
G01*
Y4550D02*
G03*
X11708Y4550I-42J0D01*
G01*
X11454Y8360D02*
G03*
X11454Y8360I-42J0D01*
G01*
X11708Y8106D02*
G03*
X11708Y8106I-42J0D01*
G01*
Y4804D02*
G03*
X11708Y4804I-42J0D01*
G01*
Y6836D02*
G03*
X11708Y6836I-42J0D01*
G01*
Y6328D02*
G03*
X11708Y6328I-42J0D01*
G01*
Y5820D02*
G03*
X11708Y5820I-42J0D01*
G01*
X3049Y6060D02*
G03*
X3049Y6060I-42J0D01*
G01*
Y5806D02*
G03*
X3049Y5806I-42J0D01*
G01*
Y5553D02*
G03*
X3049Y5553I-42J0D01*
G01*
Y5299D02*
G03*
X3049Y5299I-42J0D01*
G01*
Y5044D02*
G03*
X3049Y5044I-42J0D01*
G01*
Y4790D02*
G03*
X3049Y4790I-42J0D01*
G01*
Y4537D02*
G03*
X3049Y4537I-42J0D01*
G01*
Y4283D02*
G03*
X3049Y4283I-42J0D01*
G01*
X2795Y6060D02*
G03*
X2795Y6060I-42J0D01*
G01*
Y5806D02*
G03*
X2795Y5806I-42J0D01*
G01*
Y5553D02*
G03*
X2795Y5553I-42J0D01*
G01*
Y5299D02*
G03*
X2795Y5299I-42J0D01*
G01*
Y5044D02*
G03*
X2795Y5044I-42J0D01*
G01*
Y4790D02*
G03*
X2795Y4790I-42J0D01*
G01*
Y4537D02*
G03*
X2795Y4537I-42J0D01*
G01*
Y4283D02*
G03*
X2795Y4283I-42J0D01*
G01*
X2452Y8815D02*
G03*
X2452Y8815I-42J0D01*
G01*
Y8561D02*
G03*
X2452Y8561I-42J0D01*
G01*
Y8307D02*
G03*
X2452Y8307I-42J0D01*
G01*
Y8054D02*
G03*
X2452Y8054I-42J0D01*
G01*
Y7800D02*
G03*
X2452Y7800I-42J0D01*
G01*
Y7546D02*
G03*
X2452Y7546I-42J0D01*
G01*
Y7292D02*
G03*
X2452Y7292I-42J0D01*
G01*
Y7038D02*
G03*
X2452Y7038I-42J0D01*
G01*
X2198Y8815D02*
G03*
X2198Y8815I-42J0D01*
G01*
Y8561D02*
G03*
X2198Y8561I-42J0D01*
G01*
Y8307D02*
G03*
X2198Y8307I-42J0D01*
G01*
Y8054D02*
G03*
X2198Y8054I-42J0D01*
G01*
Y7800D02*
G03*
X2198Y7800I-42J0D01*
G01*
Y7546D02*
G03*
X2198Y7546I-42J0D01*
G01*
Y7292D02*
G03*
X2198Y7292I-42J0D01*
G01*
Y7038D02*
G03*
X2198Y7038I-42J0D01*
G01*
X7615Y4805D02*
G03*
X7615Y4805I-42J0D01*
G01*
Y4155D02*
G03*
X7615Y4155I-42J0D01*
G01*
X10375Y3851D02*
G03*
X10375Y3851I-42J0D01*
G01*
Y3648D02*
G03*
X10375Y3648I-42J0D01*
G01*
Y3445D02*
G03*
X10375Y3445I-42J0D01*
G01*
X15356Y2492D02*
X15387D01*
X15356D02*
Y2556D01*
X15387D01*
Y2587D01*
X15451D01*
Y2556D02*
Y2587D01*
Y2556D02*
X15483D01*
Y2492D02*
Y2556D01*
X15451Y2492D02*
X15483D01*
X15451Y2460D02*
Y2492D01*
X15387Y2460D02*
X15451D01*
X15387D02*
Y2492D01*
X15356Y2079D02*
X15419Y2111D01*
X15483Y2079D01*
X15451Y2143D02*
X15483Y2079D01*
X15451Y2143D02*
X15483Y2206D01*
X15419Y2175D02*
X15483Y2206D01*
X15356D02*
X15419Y2175D01*
X15356Y2206D02*
X15387Y2143D01*
X15356Y2079D02*
X15387Y2143D01*
X15356Y1698D02*
Y1730D01*
X15387Y1762D01*
X15356Y1794D02*
X15387Y1762D01*
X15356Y1794D02*
Y1825D01*
X15387D01*
X15419Y1794D01*
X15451Y1825D01*
X15483D01*
Y1794D02*
Y1825D01*
X15451Y1762D02*
X15483Y1794D01*
X15451Y1762D02*
X15483Y1730D01*
Y1698D02*
Y1730D01*
X15451Y1698D02*
X15483D01*
X15419Y1730D02*
X15451Y1698D01*
X15387D02*
X15419Y1730D01*
X15356Y1698D02*
X15387D01*
X15419Y1317D02*
X15483Y1444D01*
X15356D02*
X15483D01*
X15356D02*
X15419Y1317D01*
X15356Y936D02*
X15483D01*
Y1063D01*
X15356D02*
X15483D01*
X15356Y936D02*
Y1063D01*
X6020Y6948D02*
X6105D01*
Y7032D01*
X6020D02*
X6105D01*
X6020Y6948D02*
Y7032D01*
X5602Y5618D02*
X5687D01*
Y5702D01*
X5602D02*
X5687D01*
X5602Y5618D02*
Y5702D01*
X5748Y5703D02*
X5832D01*
Y5787D01*
X5748D02*
X5832D01*
X5748Y5703D02*
Y5787D01*
X5858Y6685D02*
X5942D01*
Y6770D01*
X5858D02*
X5942D01*
X5858Y6685D02*
Y6770D01*
X940Y1728D02*
X1025D01*
Y1812D01*
X940D02*
X1025D01*
X940Y1728D02*
Y1812D01*
X1753Y1113D02*
X1837D01*
Y1197D01*
X1753D02*
X1837D01*
X1753Y1113D02*
Y1197D01*
X4819Y7755D02*
X4904D01*
Y7840D01*
X4819D02*
X4904D01*
X4819Y7755D02*
Y7840D01*
X1751Y3664D02*
X1836D01*
Y3748D01*
X1751D02*
X1836D01*
X1751Y3664D02*
Y3748D01*
X3082Y2764D02*
X3167D01*
Y2849D01*
X3082D02*
X3167D01*
X3082Y2764D02*
Y2849D01*
X3054Y2548D02*
X3139D01*
Y2633D01*
X3054D02*
X3139D01*
X3054Y2548D02*
Y2633D01*
X3283Y2167D02*
X3367D01*
Y2252D01*
X3283D02*
X3367D01*
X3283Y2167D02*
Y2252D01*
X9930Y3011D02*
X10014D01*
Y3095D01*
X9930D02*
X10014D01*
X9930Y3011D02*
Y3095D01*
X6602Y5896D02*
X6687D01*
Y5981D01*
X6602D02*
X6687D01*
X6602Y5896D02*
Y5981D01*
X6585Y6930D02*
X6669D01*
Y7015D01*
X6585D02*
X6669D01*
X6585Y6930D02*
Y7015D01*
X3148Y3585D02*
X3233D01*
Y3669D01*
X3148D02*
X3233D01*
X3148Y3585D02*
Y3669D01*
X3081Y8940D02*
X3165D01*
Y9025D01*
X3081D02*
X3165D01*
X3081Y8940D02*
Y9025D01*
X4636Y7362D02*
X4721D01*
Y7446D01*
X4636D02*
X4721D01*
X4636Y7362D02*
Y7446D01*
X6663Y7283D02*
X6748D01*
Y7368D01*
X6663D02*
X6748D01*
X6663Y7283D02*
Y7368D01*
X1853Y3300D02*
X1937D01*
Y3385D01*
X1853D02*
X1937D01*
X1853Y3300D02*
Y3385D01*
X493Y9558D02*
Y9579D01*
X514Y9600D01*
X493Y9621D02*
X514Y9600D01*
X493Y9621D02*
Y9642D01*
X514D01*
X535Y9621D01*
X557Y9642D01*
X578D01*
Y9621D02*
Y9642D01*
X557Y9600D02*
X578Y9621D01*
X557Y9600D02*
X578Y9579D01*
Y9558D02*
Y9579D01*
X557Y9558D02*
X578D01*
X535Y9579D02*
X557Y9558D01*
X514D02*
X535Y9579D01*
X493Y9558D02*
X514D01*
X493Y358D02*
Y379D01*
X514Y400D01*
X493Y421D02*
X514Y400D01*
X493Y421D02*
Y442D01*
X514D01*
X535Y421D01*
X557Y442D01*
X578D01*
Y421D02*
Y442D01*
X557Y400D02*
X578Y421D01*
X557Y400D02*
X578Y379D01*
Y358D02*
Y379D01*
X557Y358D02*
X578D01*
X535Y379D02*
X557Y358D01*
X514D02*
X535Y379D01*
X493Y358D02*
X514D01*
X13893Y9558D02*
Y9579D01*
X13914Y9600D01*
X13893Y9621D02*
X13914Y9600D01*
X13893Y9621D02*
Y9642D01*
X13914D01*
X13935Y9621D01*
X13957Y9642D01*
X13978D01*
Y9621D02*
Y9642D01*
X13957Y9600D02*
X13978Y9621D01*
X13957Y9600D02*
X13978Y9579D01*
Y9558D02*
Y9579D01*
X13957Y9558D02*
X13978D01*
X13935Y9579D02*
X13957Y9558D01*
X13914D02*
X13935Y9579D01*
X13893Y9558D02*
X13914D01*
X13893Y358D02*
Y379D01*
X13914Y400D01*
X13893Y421D02*
X13914Y400D01*
X13893Y421D02*
Y442D01*
X13914D01*
X13935Y421D01*
X13957Y442D01*
X13978D01*
Y421D02*
Y442D01*
X13957Y400D02*
X13978Y421D01*
X13957Y400D02*
X13978Y379D01*
Y358D02*
Y379D01*
X13957Y358D02*
X13978D01*
X13935Y379D02*
X13957Y358D01*
X13914D02*
X13935Y379D01*
X13893Y358D02*
X13914D01*
X13120Y2894D02*
X13205D01*
Y2979D01*
X13120D02*
X13205D01*
X13120Y2894D02*
Y2979D01*
X12521Y3524D02*
X12605D01*
Y3608D01*
X12521D02*
X12605D01*
X12521Y3524D02*
Y3608D01*
X9269Y2361D02*
X9354D01*
Y2445D01*
X9269D02*
X9354D01*
X9269Y2361D02*
Y2445D01*
X8995Y2510D02*
X9080D01*
Y2595D01*
X8995D02*
X9080D01*
X8995Y2510D02*
Y2595D01*
X12555Y2095D02*
X12640D01*
Y2180D01*
X12555D02*
X12640D01*
X12555Y2095D02*
Y2180D01*
X5492Y8484D02*
X5577D01*
Y8569D01*
X5492D02*
X5577D01*
X5492Y8484D02*
Y8569D01*
X12472Y2277D02*
X12557D01*
Y2361D01*
X12472D02*
X12557D01*
X12472Y2277D02*
Y2361D01*
X2904Y1449D02*
X2989D01*
Y1533D01*
X2904D02*
X2989D01*
X2904Y1449D02*
Y1533D01*
X3500Y8678D02*
X3585D01*
Y8762D01*
X3500D02*
X3585D01*
X3500Y8678D02*
Y8762D01*
X5080Y6048D02*
X5165D01*
Y6132D01*
X5080D02*
X5165D01*
X5080Y6048D02*
Y6132D01*
X4903Y5915D02*
X4987D01*
Y6000D01*
X4903D02*
X4987D01*
X4903Y5915D02*
Y6000D01*
X3676Y3412D02*
X3761D01*
Y3497D01*
X3676D02*
X3761D01*
X3676Y3412D02*
Y3497D01*
X4538Y4333D02*
X4622D01*
Y4417D01*
X4538D02*
X4622D01*
X4538Y4333D02*
Y4417D01*
X3603Y4093D02*
X3687D01*
Y4177D01*
X3603D02*
X3687D01*
X3603Y4093D02*
Y4177D01*
X3828Y4330D02*
X3912D01*
Y4415D01*
X3828D02*
X3912D01*
X3828Y4330D02*
Y4415D01*
X3890Y3663D02*
X3975D01*
Y3747D01*
X3890D02*
X3975D01*
X3890Y3663D02*
Y3747D01*
X11150Y2788D02*
X11235D01*
Y2872D01*
X11150D02*
X11235D01*
X11150Y2788D02*
Y2872D01*
X1728Y2678D02*
X1812D01*
Y2762D01*
X1728D02*
X1812D01*
X1728Y2678D02*
Y2762D01*
X1833Y2908D02*
X1917D01*
Y2992D01*
X1833D02*
X1917D01*
X1833Y2908D02*
Y2992D01*
X3503Y3890D02*
X3587D01*
Y3975D01*
X3503D02*
X3587D01*
X3503Y3890D02*
Y3975D01*
X6868Y3778D02*
X6952D01*
Y3862D01*
X6868D02*
X6952D01*
X6868Y3778D02*
Y3862D01*
X9530Y3773D02*
X9615D01*
Y3857D01*
X9530D02*
X9615D01*
X9530Y3773D02*
Y3857D01*
X11060Y3735D02*
X11145D01*
Y3820D01*
X11060D02*
X11145D01*
X11060Y3735D02*
Y3820D01*
X13228Y3185D02*
X13312D01*
Y3270D01*
X13228D02*
X13312D01*
X13228Y3185D02*
Y3270D01*
X5360Y4518D02*
X5402Y4602D01*
X5318D02*
X5402D01*
X5318D02*
X5360Y4518D01*
Y4264D02*
X5402Y4348D01*
X5318D02*
X5402D01*
X5318D02*
X5360Y4264D01*
Y4010D02*
X5402Y4094D01*
X5318D02*
X5402D01*
X5318D02*
X5360Y4010D01*
X8479Y9432D02*
X8521Y9517D01*
X8436D02*
X8521D01*
X8436D02*
X8479Y9432D01*
X8733D02*
X8775Y9517D01*
X8690D02*
X8775D01*
X8690D02*
X8733Y9432D01*
X8987D02*
X9029Y9517D01*
X8944D02*
X9029D01*
X8944D02*
X8987Y9432D01*
X5075Y9432D02*
X5117Y9517D01*
X5033D02*
X5117D01*
X5033D02*
X5075Y9432D01*
X4821D02*
X4863Y9517D01*
X4779D02*
X4863D01*
X4779D02*
X4821Y9432D01*
X4567D02*
X4609Y9517D01*
X4525D02*
X4609D01*
X4525D02*
X4567Y9432D01*
X4313D02*
X4355Y9517D01*
X4271D02*
X4355D01*
X4271D02*
X4313Y9432D01*
X4059D02*
X4101Y9517D01*
X4017D02*
X4101D01*
X4017D02*
X4059Y9432D01*
X3805D02*
X3847Y9517D01*
X3763D02*
X3847D01*
X3763D02*
X3805Y9432D01*
X3551D02*
X3593Y9517D01*
X3509D02*
X3593D01*
X3509D02*
X3551Y9432D01*
X3297D02*
X3339Y9517D01*
X3255D02*
X3339D01*
X3255D02*
X3297Y9432D01*
X7331Y9432D02*
X7373Y9517D01*
X7288D02*
X7373D01*
X7288D02*
X7331Y9432D01*
X7077D02*
X7119Y9517D01*
X7034D02*
X7119D01*
X7034D02*
X7077Y9432D01*
X6823D02*
X6865Y9517D01*
X6780D02*
X6865D01*
X6780D02*
X6823Y9432D01*
X6569D02*
X6611Y9517D01*
X6526D02*
X6611D01*
X6526D02*
X6569Y9432D01*
X6315D02*
X6357Y9517D01*
X6272D02*
X6357D01*
X6272D02*
X6315Y9432D01*
X6061D02*
X6103Y9517D01*
X6018D02*
X6103D01*
X6018D02*
X6061Y9432D01*
X4012Y1381D02*
X4033D01*
X4012D02*
Y1423D01*
X4033D01*
Y1444D01*
X4075D01*
Y1423D02*
Y1444D01*
Y1423D02*
X4096D01*
Y1381D02*
Y1423D01*
X4075Y1381D02*
X4096D01*
X4075Y1360D02*
Y1381D01*
X4033Y1360D02*
X4075D01*
X4033D02*
Y1381D01*
X4012Y735D02*
X4054Y756D01*
X4096Y735D01*
X4075Y777D02*
X4096Y735D01*
X4075Y777D02*
X4096Y819D01*
X4054Y798D02*
X4096Y819D01*
X4012D02*
X4054Y798D01*
X4012Y819D02*
X4033Y777D01*
X4012Y735D02*
X4033Y777D01*
X4492Y1060D02*
X4534Y1081D01*
X4576Y1060D01*
X4555Y1102D02*
X4576Y1060D01*
X4555Y1102D02*
X4576Y1144D01*
X4534Y1123D02*
X4576Y1144D01*
X4492D02*
X4534Y1123D01*
X4492Y1144D02*
X4513Y1102D01*
X4492Y1060D02*
X4513Y1102D01*
D50*
X15182Y2727D02*
X25035D01*
X15182Y441D02*
X25035D01*
X15182Y60D02*
X25035D01*
Y3108D01*
X15182D02*
X25035D01*
X15182Y60D02*
Y3108D01*
X23057Y60D02*
Y3108D01*
X21772Y60D02*
Y3108D01*
X18354Y60D02*
Y3108D01*
X16582Y60D02*
Y3108D01*
D51*
X23171Y3024D02*
Y2841D01*
Y2933D01*
X23293D01*
Y3024D01*
Y2841D01*
X23385D02*
X23445D01*
X23476Y2872D01*
Y2933D01*
X23445Y2963D01*
X23385D01*
X23354Y2933D01*
Y2872D01*
X23385Y2841D01*
X23537D02*
X23598D01*
X23567D01*
Y3024D01*
X23537D01*
X23781Y2841D02*
X23720D01*
X23689Y2872D01*
Y2933D01*
X23720Y2963D01*
X23781D01*
X23811Y2933D01*
Y2902D01*
X23689D01*
X24055Y3024D02*
X24177D01*
X24116D01*
Y2841D01*
X24238Y2963D02*
Y2872D01*
X24268Y2841D01*
X24360D01*
Y2811D01*
X24329Y2780D01*
X24299D01*
X24360Y2841D02*
Y2963D01*
X24421Y2780D02*
Y2963D01*
X24512D01*
X24542Y2933D01*
Y2872D01*
X24512Y2841D01*
X24421D01*
X24695D02*
X24634D01*
X24603Y2872D01*
Y2933D01*
X24634Y2963D01*
X24695D01*
X24725Y2933D01*
Y2902D01*
X24603D01*
X21886Y2841D02*
Y3024D01*
X21978D01*
X22008Y2994D01*
Y2933D01*
X21978Y2902D01*
X21886D01*
X22069Y2841D02*
X22130D01*
X22100D01*
Y3024D01*
X22069D01*
X22252Y2963D02*
X22313D01*
X22343Y2933D01*
Y2841D01*
X22252D01*
X22221Y2872D01*
X22252Y2902D01*
X22343D01*
X22435Y2994D02*
Y2963D01*
X22404D01*
X22465D01*
X22435D01*
Y2872D01*
X22465Y2841D01*
X22648D02*
X22587D01*
X22557Y2872D01*
Y2933D01*
X22587Y2963D01*
X22648D01*
X22679Y2933D01*
Y2902D01*
X22557D01*
X22861Y3024D02*
Y2841D01*
X22770D01*
X22739Y2872D01*
Y2933D01*
X22770Y2963D01*
X22861D01*
X18590Y3024D02*
X18468D01*
Y2933D01*
X18529D01*
X18468D01*
Y2841D01*
X18651D02*
X18712D01*
X18682D01*
Y2963D01*
X18651D01*
X18804Y2841D02*
Y2963D01*
X18895D01*
X18926Y2933D01*
Y2841D01*
X18986D02*
X19047D01*
X19017D01*
Y2963D01*
X18986D01*
X19139Y2841D02*
X19230D01*
X19261Y2872D01*
X19230Y2902D01*
X19169D01*
X19139Y2933D01*
X19169Y2963D01*
X19261D01*
X19322Y3024D02*
Y2841D01*
Y2933D01*
X19352Y2963D01*
X19413D01*
X19444Y2933D01*
Y2841D01*
X19596D02*
X19535D01*
X19504Y2872D01*
Y2933D01*
X19535Y2963D01*
X19596D01*
X19626Y2933D01*
Y2902D01*
X19504D01*
X19809Y3024D02*
Y2841D01*
X19718D01*
X19687Y2872D01*
Y2933D01*
X19718Y2963D01*
X19809D01*
X20053Y3024D02*
Y2841D01*
Y2933D01*
X20175D01*
Y3024D01*
Y2841D01*
X20266D02*
X20327D01*
X20358Y2872D01*
Y2933D01*
X20327Y2963D01*
X20266D01*
X20236Y2933D01*
Y2872D01*
X20266Y2841D01*
X20419D02*
X20479D01*
X20449D01*
Y3024D01*
X20419D01*
X20662Y2841D02*
X20601D01*
X20571Y2872D01*
Y2933D01*
X20601Y2963D01*
X20662D01*
X20693Y2933D01*
Y2902D01*
X20571D01*
X21058Y2994D02*
X21028Y3024D01*
X20967D01*
X20937Y2994D01*
Y2963D01*
X20967Y2933D01*
X21028D01*
X21058Y2902D01*
Y2872D01*
X21028Y2841D01*
X20967D01*
X20937Y2872D01*
X21119Y2841D02*
X21180D01*
X21150D01*
Y2963D01*
X21119D01*
X21272D02*
X21394D01*
X21272Y2841D01*
X21394D01*
X21546D02*
X21485D01*
X21455Y2872D01*
Y2933D01*
X21485Y2963D01*
X21546D01*
X21576Y2933D01*
Y2902D01*
X21455D01*
X16696Y3024D02*
Y2841D01*
Y2933D01*
X16818D01*
Y3024D01*
Y2841D01*
X16879D02*
X16940D01*
X16909D01*
Y2963D01*
X16879D01*
X17062Y2994D02*
Y2963D01*
X17031D01*
X17092D01*
X17062D01*
Y2872D01*
X17092Y2841D01*
X17488Y2994D02*
X17458Y3024D01*
X17397D01*
X17366Y2994D01*
Y2872D01*
X17397Y2841D01*
X17458D01*
X17488Y2872D01*
X17580Y2841D02*
X17641D01*
X17671Y2872D01*
Y2933D01*
X17641Y2963D01*
X17580D01*
X17549Y2933D01*
Y2872D01*
X17580Y2841D01*
X17732Y2963D02*
Y2872D01*
X17762Y2841D01*
X17854D01*
Y2963D01*
X17915Y2841D02*
Y2963D01*
X18006D01*
X18037Y2933D01*
Y2841D01*
X18128Y2994D02*
Y2963D01*
X18098D01*
X18159D01*
X18128D01*
Y2872D01*
X18159Y2841D01*
X15533Y2994D02*
X15503Y3024D01*
X15442D01*
X15411Y2994D01*
Y2963D01*
X15442Y2933D01*
X15503D01*
X15533Y2902D01*
Y2872D01*
X15503Y2841D01*
X15442D01*
X15411Y2872D01*
X15594Y2963D02*
Y2872D01*
X15624Y2841D01*
X15716D01*
Y2811D01*
X15685Y2780D01*
X15655D01*
X15716Y2841D02*
Y2963D01*
X15777Y2841D02*
Y2963D01*
X15807D01*
X15838Y2933D01*
Y2841D01*
Y2933D01*
X15868Y2963D01*
X15899Y2933D01*
Y2841D01*
X15960Y3024D02*
Y2841D01*
X16051D01*
X16081Y2872D01*
Y2902D01*
Y2933D01*
X16051Y2963D01*
X15960D01*
X16173Y2841D02*
X16234D01*
X16264Y2872D01*
Y2933D01*
X16234Y2963D01*
X16173D01*
X16142Y2933D01*
Y2872D01*
X16173Y2841D01*
X16325D02*
X16386D01*
X16356D01*
Y3024D01*
X16325D01*
M02*
