M48
;Layer_Color=9474304
;FILE_FORMAT=4:4
METRIC,LZ
T8F00S00C5.0800
%
G90
G05
T08
G00X01445048Y-00024893
M15
G01X01449895Y-00023393
G01X01454347Y-0002096
G01X01458227Y-0001769
G01X01461379Y-00013715
G01X01463678Y-00009192
G01X01465033Y-00004302
G01X014654Y0
G01X014654Y01
G01X01464893Y01005048
G01X01463393Y01009895
G01X0146096Y01014347
G01X0145769Y01018227
G01X01453715Y01021379
G01X01449192Y01023678
G01X01444302Y01025033
G01X0144Y010254
G01X0Y010254
G01X-00005048Y01024893
G01X-00009895Y01023393
G01X-00014347Y0102096
G01X-00018227Y0101769
G01X-00021379Y01013715
G01X-00023678Y01009192
G01X-00025033Y01004302
G01X-000254Y01
G01X-000254Y0
G01X-00024893Y-00005048
G01X-00023393Y-00009895
G01X-0002096Y-00014347
G01X-0001769Y-00018227
G01X-00013715Y-00021379
G01X-00009192Y-00023678
G01X-00004302Y-00025033
G01X0Y-000254
G01X0144Y-000254
G01X01445048Y-00024893
M16
M17
M30
