M48
;Layer_Color=9474304
;FILE_FORMAT=2:5
INCH,LZ
;TYPE=PLATED
T1F00S00C0.02799
T2F00S00C0.02800
T3F00S00C0.03150
T4F00S00C0.04331
T5F00S00C0.12008
T6F00S00C0.14016
T7F00S00C0.15748
%
T01
X0222235Y0222835
X0238681Y0275197
T02
X0070669Y0045472
X0495966Y0084166
X05182Y01156
X0522441Y0127067
X04946Y01404
X04927Y00913
X044065Y0111417
X0437106Y0148721
X037687Y0150197
X03926Y01202
X03666Y00946
X03558Y01005
X0272047Y0150394
X0180315Y0172244
X0152362Y0172146
X0143504Y0162795
X0139567Y0154823
X0154823Y0145866
X01464Y0136
X01256Y01428
X0123Y0110484
X01219Y0102
X01309Y0087
X0116Y00587
X0038681Y0069685
X0069685Y0107087
X0073819Y0116142
X00746Y01316
X00706Y01459
X0122958Y0353643
X0139469Y0343307
X02179Y03357
X01914Y0307
X01842Y02915
X0194685Y0234547
X0201673Y0239764
X0227953Y0226181
X0261593Y0233807
X02609Y02745
X0264Y02884
X0232283Y0264862
T03
X0406791Y013563
Y014363
Y015163
X0449287Y0169142
X0459287
Y0179142
Y0189142
Y0199142
X0449287
Y0209142
X0459287
X0449287Y0189142
Y0179142
X029813Y0189173
Y0163583
X0118386Y0168602
X0108386
Y0178602
Y0188602
Y0198602
Y0208602
X0118386
Y0198602
Y0188602
Y0178602
Y0218602
X0108386
Y0228602
Y0238602
X0118386
Y0228602
X0094862Y0277067
X0084862
Y0287067
Y0297067
Y0307067
Y0317067
Y0327067
Y0337067
Y0347067
X0094862
Y0337067
Y0327067
Y0317067
Y0307067
Y0297067
Y0287067
X0449287Y0289142
X0459287
Y0299142
Y0309142
Y0319142
X0449287
Y0329142
X0459287
X0449287Y0309142
Y0299142
Y0279142
Y0269142
X0459287
Y0279142
Y0259142
Y0249142
Y0239142
Y0229142
X0449287
Y0219142
X0459287
X0449287Y0239142
Y0249142
Y0259142
T04
X0211024Y0159528
Y0169528
Y0179528
X03438Y0373
X03538
X03338
X0288606
X0278606
X0268606
X0258606
X0248606
X0238606
X0199806Y0373
X0189806
X0179806
X0169806
X0159806
X0149806
X0139806
X0129806
T05
X01596Y0030588
X0178498Y0043383
T06
X01596Y0055194
T07
X0021081Y0015748
X054864
Y0377953
X0021081
M30
