%FSLAX42Y42*%
%MOMM*%
G71*
G01*
G75*
G04 Layer_Color=16711935*
%ADD10O,1.40X0.45*%
%ADD11R,0.40X0.80*%
%ADD12R,1.00X0.90*%
%ADD13R,0.90X1.00*%
%ADD14R,0.80X0.40*%
%ADD15O,1.90X0.60*%
%ADD16R,0.90X2.25*%
%ADD17R,3.25X2.25*%
%ADD18C,0.25*%
%ADD19C,0.40*%
%ADD20C,0.30*%
%ADD21C,0.80*%
%ADD22C,0.50*%
%ADD23C,0.10*%
%ADD24C,0.05*%
%ADD25C,0.15*%
%ADD26C,1.50*%
%ADD27C,5.00*%
%ADD28C,2.00*%
%ADD29C,1.27*%
%ADD30C,6.00*%
%ADD31C,0.60*%
%ADD32C,0.25*%
%ADD33C,0.20*%
%ADD34O,1.60X0.65*%
%ADD35R,0.66X1.06*%
%ADD36R,0.60X1.00*%
%ADD37R,1.20X1.10*%
%ADD38R,1.10X1.20*%
%ADD39R,1.06X0.66*%
%ADD40R,1.00X0.60*%
%ADD41O,2.10X0.80*%
%ADD42R,1.10X2.45*%
%ADD43R,3.45X2.45*%
%ADD44C,1.70*%
%ADD45C,5.20*%
%ADD46C,2.20*%
%ADD47C,1.47*%
%ADD48C,6.20*%
D18*
X-16Y10545D02*
X6610D01*
X7757D02*
X14384D01*
X-16D02*
X136Y10596D01*
X-16Y10545D02*
X136Y10494D01*
X14231Y10596D02*
X14384Y10545D01*
X14231Y10494D02*
X14384Y10545D01*
X-16Y10520D02*
Y10570D01*
X14384Y10520D02*
Y10570D01*
X-663Y10011D02*
X-662Y5585D01*
X-662Y4438D02*
X-662Y11D01*
X-663Y10011D02*
X-612Y9859D01*
X-713D02*
X-663Y10011D01*
X-662Y11D02*
X-612Y164D01*
X-713D02*
X-662Y11D01*
X-688Y10011D02*
X-637D01*
X-688Y11D02*
X-637D01*
D20*
X0Y10000D02*
X0Y0D01*
X0Y10000D02*
X14400D01*
Y0D02*
Y10000D01*
X0Y0D02*
X14400Y0D01*
D23*
X9808Y3075D02*
G03*
X9808Y3075I-50J0D01*
G01*
X13006Y2960D02*
G03*
X13006Y2960I-50J0D01*
G01*
X1741Y3448D02*
G03*
X1741Y3448I-50J0D01*
G01*
X5589Y7089D02*
G03*
X5589Y7089I-50J0D01*
G01*
X3532Y3499D02*
G03*
X3532Y3499I-50J0D01*
G01*
X9668Y2185D02*
X10118D01*
X9668Y3165D02*
X10118D01*
Y2185D02*
Y3165D01*
X9668Y2185D02*
Y3165D01*
X12866Y2070D02*
X13316D01*
X12866Y3050D02*
X13316D01*
Y2070D02*
Y3050D01*
X12866Y2070D02*
Y3050D01*
X3760Y4103D02*
X3980D01*
X3760Y3967D02*
X3980D01*
Y4103D01*
X3760Y3967D02*
Y4103D01*
X5317Y7639D02*
X5412D01*
X5317Y7814D02*
X5412D01*
X5317Y7639D02*
Y7814D01*
X5412Y7639D02*
Y7814D01*
X5940Y5177D02*
Y5272D01*
X5765Y5177D02*
Y5272D01*
Y5177D02*
X5940D01*
X5765Y5272D02*
X5940D01*
X6904Y6107D02*
X6999D01*
X6904Y5932D02*
X6999D01*
Y6107D01*
X6904Y5932D02*
Y6107D01*
X5071Y7812D02*
X5166D01*
X5071Y7637D02*
X5166D01*
Y7812D01*
X5071Y7637D02*
Y7812D01*
X6879Y6953D02*
X6974D01*
X6879Y7128D02*
X6974D01*
X6879Y6953D02*
Y7128D01*
X6974Y6953D02*
Y7128D01*
X2861Y9216D02*
Y9311D01*
X3036Y9216D02*
Y9311D01*
X2861D02*
X3036D01*
X2861Y9216D02*
X3036D01*
X5091Y7357D02*
Y7452D01*
X4916Y7357D02*
Y7452D01*
Y7357D02*
X5091D01*
X4916Y7452D02*
X5091D01*
X1601Y2558D02*
X2051D01*
X1601Y3538D02*
X2051D01*
Y2558D02*
Y3538D01*
X1601Y2558D02*
Y3538D01*
X11240Y2967D02*
Y3188D01*
X11375Y2967D02*
Y3188D01*
X11240D02*
X11375D01*
X11240Y2967D02*
X11375D01*
X1252Y1727D02*
X1427D01*
X1252Y1823D02*
X1427D01*
Y1727D02*
Y1823D01*
X1252Y1727D02*
Y1823D01*
X5449Y5389D02*
X6209D01*
X5449Y7179D02*
X6209D01*
Y5389D02*
Y7179D01*
X5449Y5389D02*
Y7179D01*
X1461Y1348D02*
X2131D01*
X1461Y978D02*
X2131D01*
Y1348D01*
X1461Y978D02*
Y1348D01*
X2352Y1127D02*
Y1223D01*
X2527Y1127D02*
Y1223D01*
X2352D02*
X2527D01*
X2352Y1127D02*
X2527D01*
X3392Y2609D02*
X3842D01*
X3392Y3589D02*
X3842D01*
Y2609D02*
Y3589D01*
X3392Y2609D02*
Y3589D01*
X9893Y2625D02*
Y2725D01*
X9843Y2675D02*
X9943D01*
X13091Y2510D02*
Y2610D01*
X13041Y2560D02*
X13141D01*
X3870Y3985D02*
Y4085D01*
X3820Y4035D02*
X3920D01*
X5364Y7679D02*
Y7774D01*
X5317Y7727D02*
X5412D01*
X5805Y5225D02*
X5900D01*
X5852Y5177D02*
Y5272D01*
X6952Y5972D02*
Y6067D01*
X6904Y6020D02*
X6999D01*
X5118Y7677D02*
Y7772D01*
X5071Y7724D02*
X5166D01*
X6927Y6993D02*
Y7088D01*
X6879Y7041D02*
X6974D01*
X2901Y9263D02*
X2996D01*
X2949Y9216D02*
Y9311D01*
X4956Y7404D02*
X5051D01*
X5004Y7357D02*
Y7452D01*
X1826Y2998D02*
Y3098D01*
X1776Y3048D02*
X1876D01*
X11257Y3077D02*
X11357D01*
X11307Y3027D02*
Y3127D01*
X1340Y1727D02*
Y1823D01*
X1293Y1775D02*
X1388D01*
X5829Y6234D02*
Y6334D01*
X5779Y6284D02*
X5879D01*
X1796Y1113D02*
Y1213D01*
X1746Y1163D02*
X1846D01*
X2392Y1175D02*
X2488D01*
X2440Y1127D02*
Y1223D01*
X3617Y3049D02*
Y3149D01*
X3567Y3099D02*
X3667D01*
D24*
X9506Y2160D02*
X10281D01*
X9506Y3190D02*
X10281D01*
Y2160D02*
Y3190D01*
X9506Y2160D02*
Y3190D01*
X12704Y2045D02*
X13479D01*
X12704Y3075D02*
X13479D01*
Y2045D02*
Y3075D01*
X12704Y2045D02*
Y3075D01*
X3735Y4208D02*
X4005D01*
X3735Y3862D02*
X4005D01*
Y4208D01*
X3735Y3862D02*
Y4208D01*
X5289Y7592D02*
X5439D01*
X5289Y7862D02*
X5439D01*
X5289Y7592D02*
Y7862D01*
X5439Y7592D02*
Y7862D01*
X5987Y5150D02*
Y5300D01*
X5717Y5150D02*
Y5300D01*
Y5150D02*
X5987D01*
X5717Y5300D02*
X5987D01*
X6877Y6155D02*
X7027D01*
X6877Y5885D02*
X7027D01*
Y6155D01*
X6877Y5885D02*
Y6155D01*
X5043Y7859D02*
X5193D01*
X5043Y7589D02*
X5193D01*
Y7859D01*
X5043Y7589D02*
Y7859D01*
X6852Y6906D02*
X7002D01*
X6852Y7176D02*
X7002D01*
X6852Y6906D02*
Y7176D01*
X7002Y6906D02*
Y7176D01*
X2814Y9188D02*
Y9338D01*
X3084Y9188D02*
Y9338D01*
X2814D02*
X3084D01*
X2814Y9188D02*
X3084D01*
X5139Y7329D02*
Y7479D01*
X4869Y7329D02*
Y7479D01*
Y7329D02*
X5139D01*
X4869Y7479D02*
X5139D01*
X1439Y2533D02*
X2214D01*
X1439Y3563D02*
X2214D01*
Y2533D02*
Y3563D01*
X1439Y2533D02*
Y3563D01*
X11135Y2942D02*
Y3212D01*
X11480Y2942D02*
Y3212D01*
X11135D02*
X11480D01*
X11135Y2942D02*
X11480D01*
X1205Y1700D02*
X1475D01*
X1205Y1850D02*
X1475D01*
Y1700D02*
Y1850D01*
X1205Y1700D02*
Y1850D01*
X5237Y5364D02*
X6422D01*
X5237Y7204D02*
X6422D01*
Y5364D02*
Y7204D01*
X5237Y5364D02*
Y7204D01*
X1436Y1598D02*
X2156D01*
X1436Y728D02*
X2156D01*
Y1598D01*
X1436Y728D02*
Y1598D01*
X2305Y1100D02*
Y1250D01*
X2575Y1100D02*
Y1250D01*
X2305D02*
X2575D01*
X2305Y1100D02*
X2575D01*
X3229Y2584D02*
X4004D01*
X3229Y3614D02*
X4004D01*
Y2584D02*
Y3614D01*
X3229Y2584D02*
Y3614D01*
D25*
X6635Y10454D02*
X6686D01*
X6661D01*
Y10606D01*
X6635Y10581D01*
X6838Y10454D02*
Y10606D01*
X6762Y10530D01*
X6864D01*
X6991Y10454D02*
Y10606D01*
X6914Y10530D01*
X7016D01*
X7270Y10454D02*
X7219Y10504D01*
Y10555D01*
X7270Y10606D01*
X7346Y10454D02*
Y10555D01*
X7372D01*
X7397Y10530D01*
Y10454D01*
Y10530D01*
X7422Y10555D01*
X7448Y10530D01*
Y10454D01*
X7498D02*
Y10555D01*
X7524D01*
X7549Y10530D01*
Y10454D01*
Y10530D01*
X7575Y10555D01*
X7600Y10530D01*
Y10454D01*
X7651D02*
X7702Y10504D01*
Y10555D01*
X7651Y10606D01*
X-754Y5560D02*
Y5509D01*
Y5534D01*
X-602D01*
X-627Y5560D01*
Y5433D02*
X-602Y5407D01*
Y5357D01*
X-627Y5331D01*
X-729D01*
X-754Y5357D01*
Y5407D01*
X-729Y5433D01*
X-627D01*
Y5281D02*
X-602Y5255D01*
Y5204D01*
X-627Y5179D01*
X-729D01*
X-754Y5204D01*
Y5255D01*
X-729Y5281D01*
X-627D01*
X-754Y4925D02*
X-703Y4976D01*
X-652D01*
X-602Y4925D01*
X-754Y4849D02*
X-652D01*
Y4823D01*
X-678Y4798D01*
X-754D01*
X-678D01*
X-652Y4773D01*
X-678Y4747D01*
X-754D01*
Y4697D02*
X-652D01*
Y4671D01*
X-678Y4646D01*
X-754D01*
X-678D01*
X-652Y4620D01*
X-678Y4595D01*
X-754D01*
Y4544D02*
X-703Y4493D01*
X-652D01*
X-602Y4544D01*
D44*
X10332Y3445D02*
D03*
Y3648D02*
D03*
Y3851D02*
D03*
X7572Y4155D02*
D03*
Y4805D02*
D03*
X2156Y7038D02*
D03*
Y7292D02*
D03*
Y7546D02*
D03*
Y7800D02*
D03*
Y8054D02*
D03*
Y8307D02*
D03*
Y8561D02*
D03*
Y8815D02*
D03*
X2409Y7038D02*
D03*
Y7292D02*
D03*
Y7546D02*
D03*
Y7800D02*
D03*
Y8054D02*
D03*
Y8307D02*
D03*
Y8561D02*
D03*
Y8815D02*
D03*
X2753Y4283D02*
D03*
Y4537D02*
D03*
Y4790D02*
D03*
Y5044D02*
D03*
Y5299D02*
D03*
Y5553D02*
D03*
Y5806D02*
D03*
Y6060D02*
D03*
X3007Y4283D02*
D03*
Y4537D02*
D03*
Y4790D02*
D03*
Y5044D02*
D03*
Y5299D02*
D03*
Y5553D02*
D03*
Y5806D02*
D03*
Y6060D02*
D03*
X11666Y5820D02*
D03*
Y6328D02*
D03*
Y6836D02*
D03*
Y4804D02*
D03*
Y8106D02*
D03*
X11412Y8360D02*
D03*
X11666Y4550D02*
D03*
Y7344D02*
D03*
X11412Y6836D02*
D03*
Y7090D02*
D03*
Y7852D02*
D03*
Y5820D02*
D03*
Y5566D02*
D03*
Y4296D02*
D03*
X11666D02*
D03*
Y7598D02*
D03*
X11412Y5058D02*
D03*
Y8106D02*
D03*
X11666Y8360D02*
D03*
Y5058D02*
D03*
X11412Y6074D02*
D03*
Y4550D02*
D03*
X11666Y7852D02*
D03*
Y6074D02*
D03*
X11412Y5312D02*
D03*
X11666Y7090D02*
D03*
Y6582D02*
D03*
X11412D02*
D03*
Y4804D02*
D03*
Y7598D02*
D03*
Y6328D02*
D03*
X11666Y5312D02*
D03*
Y5566D02*
D03*
X11412Y7344D02*
D03*
D45*
X4534Y1102D02*
D03*
X4054Y777D02*
D03*
Y1402D02*
D03*
D46*
X6061Y9474D02*
D03*
X6315D02*
D03*
X6569D02*
D03*
X6823D02*
D03*
X7077D02*
D03*
X7331D02*
D03*
X3297Y9474D02*
D03*
X3551D02*
D03*
X3805D02*
D03*
X4059D02*
D03*
X4313D02*
D03*
X4567D02*
D03*
X4821D02*
D03*
X5075D02*
D03*
X8987Y9474D02*
D03*
X8733D02*
D03*
X8479D02*
D03*
X5360Y4052D02*
D03*
Y4306D02*
D03*
Y4560D02*
D03*
D47*
X13270Y3228D02*
D03*
X11103Y3778D02*
D03*
X9572Y3815D02*
D03*
X6910Y3820D02*
D03*
X3545Y3933D02*
D03*
X1875Y2950D02*
D03*
X1770Y2720D02*
D03*
X11193Y2830D02*
D03*
X3933Y3705D02*
D03*
X3870Y4372D02*
D03*
X3645Y4135D02*
D03*
X4580Y4375D02*
D03*
X3719Y3454D02*
D03*
X4945Y5958D02*
D03*
X5122Y6090D02*
D03*
X3542Y8720D02*
D03*
X2946Y1491D02*
D03*
X12515Y2319D02*
D03*
X5535Y8527D02*
D03*
X12598Y2138D02*
D03*
X9037Y2553D02*
D03*
X9312Y2403D02*
D03*
X12563Y3566D02*
D03*
X13162Y2936D02*
D03*
X1895Y3343D02*
D03*
X6706Y7325D02*
D03*
X4679Y7404D02*
D03*
X3123Y8983D02*
D03*
X3190Y3627D02*
D03*
X6627Y6972D02*
D03*
X6644Y5939D02*
D03*
X9972Y3053D02*
D03*
X3325Y2210D02*
D03*
X3096Y2591D02*
D03*
X3124Y2806D02*
D03*
X1793Y3706D02*
D03*
X4862Y7798D02*
D03*
X1795Y1155D02*
D03*
X982Y1770D02*
D03*
X5900Y6728D02*
D03*
X5790Y5745D02*
D03*
X5645Y5660D02*
D03*
X6062Y6990D02*
D03*
D48*
X13935Y400D02*
D03*
Y9600D02*
D03*
X535Y400D02*
D03*
Y9600D02*
D03*
M02*
